<?xml version="1.0" encoding="UTF-8" standalone="no"?>
<svg
   version="1.1"
   width="35mm"
   height="45mm"
   viewBox="0 0 35 45"
   id="svg1031"
   sodipodi:docname="TGS2600-F_Cu.svg"
   inkscape:version="1.3.2 (091e20ef0f, 2023-11-25, custom)"
   inkscape:export-filename="PNG/travesBCV2.png"
   inkscape:export-xdpi="1000"
   inkscape:export-ydpi="1000"
   xmlns:inkscape="http://www.inkscape.org/namespaces/inkscape"
   xmlns:sodipodi="http://sodipodi.sourceforge.net/DTD/sodipodi-0.dtd"
   xmlns="http://www.w3.org/2000/svg"
   xmlns:svg="http://www.w3.org/2000/svg"
   xmlns:rdf="http://www.w3.org/1999/02/22-rdf-syntax-ns#"
   xmlns:cc="http://creativecommons.org/ns#"
   xmlns:dc="http://purl.org/dc/elements/1.1/">
  <defs
     id="defs1031" />
  <sodipodi:namedview
     id="namedview1031"
     pagecolor="#505050"
     bordercolor="#eeeeee"
     borderopacity="1"
     inkscape:showpageshadow="0"
     inkscape:pageopacity="0"
     inkscape:pagecheckerboard="0"
     inkscape:deskcolor="#505050"
     inkscape:document-units="mm"
     inkscape:zoom="5.5382876"
     inkscape:cx="54.619771"
     inkscape:cy="78.453853"
     inkscape:window-width="1916"
     inkscape:window-height="1157"
     inkscape:window-x="0"
     inkscape:window-y="41"
     inkscape:window-maximized="1"
     inkscape:current-layer="layer2"
     showgrid="false" />
  <title
     id="title1">SVG Image created as TGS2600-F_Cu.svg date 2024/08/01 16:29:04 </title>
  <desc
     id="desc1">Image generated by PCBNEW </desc>
  <metadata
     id="metadata1031">
    <rdf:RDF>
      <cc:Work
         rdf:about="">
        <dc:title>SVG Image created as TGS2600-F_Cu.svg date 2024/08/01 16:29:04 </dc:title>
      </cc:Work>
    </rdf:RDF>
  </metadata>
  <g
     inkscape:groupmode="layer"
     id="layer1"
     inkscape:label="bg"
     style="display:inline">
    <rect
       style="display:inline;fill:#000000;fill-opacity:1;stroke:none;stroke-width:0.676363;stroke-opacity:1"
       id="rect1031"
       width="35"
       height="45"
       x="0"
       y="-1.7763568e-15" />
  </g>
  <g
     inkscape:groupmode="layer"
     id="layer2"
     inkscape:label="outline"
     style="display:inline">
    <path
       d="m 31.91,7.26 c 0,-2.8056065 -2.274393,-5.08 -5.08,-5.08 H 8.17 c -2.8056065,0 -5.08,2.2743935 -5.08,5.08 v 30.48 c 0,2.805607 2.2743935,5.08 5.08,5.08 h 18.66 c 2.805607,0 5.08,-2.274393 5.08,-5.08 z"
       id="path926"
       style="fill:#ffffff;fill-opacity:1;stroke:#000000;stroke-width:1.4;stroke-linecap:round;stroke-linejoin:round;stroke-opacity:1;stroke-dasharray:none"
       sodipodi:nodetypes="ccccccccc" />
  </g>
  <g
     inkscape:groupmode="layer"
     id="layer4"
     inkscape:label="traces"
     style="display:none">
    <circle
       cx="9.2200041"
       cy="18.160004"
       r="0.5"
       id="circle931"
       style="fill:#000000;fill-opacity:1;stroke:none" />
    <circle
       cx="9.2200041"
       cy="20.699997"
       r="0.5"
       id="circle932"
       style="fill:#000000;fill-opacity:1;stroke:none" />
    <circle
       cx="9.2200041"
       cy="23.239998"
       r="0.5"
       id="circle933"
       style="fill:#000000;fill-opacity:1;stroke:none" />
    <circle
       cx="9.2200041"
       cy="25.779999"
       r="0.5"
       id="circle934"
       style="fill:#000000;fill-opacity:1;stroke:none" />
    <circle
       cx="9.2200041"
       cy="28.32"
       r="0.5"
       id="circle935"
       style="fill:#000000;fill-opacity:1;stroke:none" />
    <circle
       cx="21.179995"
       cy="13.82"
       r="0.405"
       id="circle936"
       style="fill:#000000;fill-opacity:1;stroke:none" />
    <circle
       cx="21.179995"
       cy="17.419998"
       r="0.405"
       id="circle937"
       style="fill:#000000;fill-opacity:1;stroke:none" />
    <circle
       cx="17.580004"
       cy="17.419998"
       r="0.405"
       id="circle938"
       style="fill:#000000;fill-opacity:1;stroke:none" />
    <circle
       cx="17.580004"
       cy="13.82"
       r="0.405"
       id="circle939"
       style="fill:#000000;fill-opacity:1;stroke:none" />
    <circle
       cx="21.179995"
       cy="31.599998"
       r="0.405"
       id="circle940"
       style="fill:#000000;fill-opacity:1;stroke:none" />
    <circle
       cx="21.179995"
       cy="35.199997"
       r="0.405"
       id="circle941"
       style="fill:#000000;fill-opacity:1;stroke:none" />
    <circle
       cx="17.580004"
       cy="35.199997"
       r="0.405"
       id="circle942"
       style="fill:#000000;fill-opacity:1;stroke:none" />
    <circle
       cx="17.580004"
       cy="31.599998"
       r="0.405"
       id="circle943"
       style="fill:#000000;fill-opacity:1;stroke:none" />
    <path
       style="fill:#000000;fill-opacity:1;fill-rule:evenodd;stroke:none;stroke-width:0.2;stroke-linecap:round;stroke-linejoin:round;stroke-opacity:1"
       d="m 27.95,29.42 h 1.7 v 1.4 h -1.7 z"
       id="path945" />
    <path
       style="fill:#000000;fill-opacity:1;fill-rule:evenodd;stroke:none;stroke-width:0.2;stroke-linecap:round;stroke-linejoin:round;stroke-opacity:1"
       d="m 27.95,32.82 h 1.7 v 1.4 h -1.7 z"
       id="path946" />
    <path
       style="fill:#000000;fill-opacity:1;fill-rule:evenodd;stroke:none;stroke-width:0.2;stroke-linecap:round;stroke-linejoin:round;stroke-opacity:1"
       d="m 8.37,19.01 v -1.7 h 1.7 v 1.7 z"
       id="path947" />
    <circle
       cx="9.2200041"
       cy="20.699997"
       r="0.85000002"
       id="circle947"
       style="fill:#000000;fill-opacity:1;stroke:none" />
    <circle
       cx="9.2200041"
       cy="23.239998"
       r="0.85000002"
       id="circle948"
       style="fill:#000000;fill-opacity:1;stroke:none" />
    <circle
       cx="9.2200041"
       cy="25.779999"
       r="0.85000002"
       id="circle949"
       style="fill:#000000;fill-opacity:1;stroke:none" />
    <circle
       cx="9.2200041"
       cy="28.32"
       r="0.85000002"
       id="circle950"
       style="fill:#000000;fill-opacity:1;stroke:none" />
    <path
       style="fill:#000000;fill-opacity:1;fill-rule:evenodd;stroke:none"
       d="m 27.95,11.64 h 1.7 v 1.4 h -1.7 z"
       id="path950" />
    <path
       style="fill:#000000;fill-opacity:1;fill-rule:evenodd;stroke:none"
       d="m 27.95,15.04 h 1.7 v 1.4 h -1.7 z"
       id="path951" />
    <circle
       cx="21.179995"
       cy="13.82"
       r="0.88"
       id="circle951"
       style="fill:#000000;fill-opacity:1;stroke:none" />
    <circle
       cx="21.179995"
       cy="17.419998"
       r="0.88"
       id="circle952"
       style="fill:#000000;fill-opacity:1;stroke:none" />
    <circle
       cx="17.580004"
       cy="17.419998"
       r="0.88"
       id="circle953"
       style="fill:#000000;fill-opacity:1;stroke:none" />
    <circle
       cx="17.580004"
       cy="13.82"
       r="0.88"
       id="circle954"
       style="fill:#000000;fill-opacity:1;stroke:none" />
    <circle
       cx="21.179995"
       cy="31.599998"
       r="0.88"
       id="circle955"
       style="fill:#000000;fill-opacity:1;stroke:none" />
    <circle
       cx="21.179995"
       cy="35.199997"
       r="0.88"
       id="circle956"
       style="fill:#000000;fill-opacity:1;stroke:none" />
    <circle
       cx="17.580004"
       cy="35.199997"
       r="0.88"
       id="circle957"
       style="fill:#000000;fill-opacity:1;stroke:none" />
    <circle
       cx="17.580004"
       cy="31.599998"
       r="0.88"
       id="circle958"
       style="fill:#000000;fill-opacity:1;stroke:none" />
    <circle
       cx="6.5599999"
       cy="33.480003"
       r="0.69999999"
       id="circle959"
       style="fill:#000000;fill-opacity:1;stroke:none" />
    <circle
       cx="17.559999"
       cy="22.279999"
       r="0.69999999"
       id="circle960"
       style="fill:#000000;fill-opacity:1;stroke:none" />
    <circle
       cx="10.259997"
       cy="13.779999"
       r="0.69999999"
       id="circle961"
       style="fill:#000000;fill-opacity:1;stroke:none" />
    <circle
       cx="21.759996"
       cy="23.279999"
       r="0.69999999"
       id="circle962"
       style="fill:#000000;fill-opacity:1;stroke:none" />
    <path
       d="m 28.8,28.92 h 1.02"
       id="path962"
       style="fill:none;stroke:#000000;stroke-width:0.55;stroke-linecap:round;stroke-linejoin:round;stroke-opacity:1" />
    <path
       d="M 30.86,27.88 V 11.78"
       id="path963"
       style="fill:none;stroke:#000000;stroke-width:0.55;stroke-linecap:round;stroke-linejoin:round;stroke-opacity:1" />
    <path
       d="m 29.82,28.92 1.04,-1.04"
       id="path964"
       style="fill:none;stroke:#000000;stroke-width:0.55;stroke-linecap:round;stroke-linejoin:round;stroke-opacity:1" />
    <path
       d="m 30.86,11.78 -0.7,-0.7"
       id="path965"
       style="fill:none;stroke:#000000;stroke-width:0.55;stroke-linecap:round;stroke-linejoin:round;stroke-opacity:1" />
    <path
       d="m 30.16,11.08 h -1.4"
       id="path966"
       style="fill:none;stroke:#000000;stroke-width:0.55;stroke-linecap:round;stroke-linejoin:round;stroke-opacity:1" />
    <path
       d="m 28.76,11.08 -0.7,-0.7"
       id="path967"
       style="fill:none;stroke:#000000;stroke-width:0.55;stroke-linecap:round;stroke-linejoin:round;stroke-opacity:1" />
    <path
       d="m 13.16,24.08 -1.6,1.6"
       id="path968"
       style="fill:none;stroke:#000000;stroke-width:0.55;stroke-linecap:round;stroke-linejoin:round;stroke-opacity:1" />
    <path
       d="M 11.36,25.78 H 9.22"
       id="path969"
       style="fill:none;stroke:#000000;stroke-width:0.55;stroke-linecap:round;stroke-linejoin:round;stroke-opacity:1" />
    <path
       d="m 11.48,20.7 1.68,1.68"
       id="path970"
       style="fill:none;stroke:#000000;stroke-width:0.55;stroke-linecap:round;stroke-linejoin:round;stroke-opacity:1" />
    <path
       d="m 11.56,25.68 h -0.1"
       id="path971"
       style="fill:none;stroke:#000000;stroke-width:0.55;stroke-linecap:round;stroke-linejoin:round;stroke-opacity:1" />
    <path
       d="m 9.22,20.7 h 2.26"
       id="path972"
       style="fill:none;stroke:#000000;stroke-width:0.55;stroke-linecap:round;stroke-linejoin:round;stroke-opacity:1" />
    <path
       d="m 11.46,25.68 -0.1,0.1"
       id="path973"
       style="fill:none;stroke:#000000;stroke-width:0.55;stroke-linecap:round;stroke-linejoin:round;stroke-opacity:1" />
    <path
       d="m 13.16,22.38 v 1.7"
       id="path974"
       style="fill:none;stroke:#000000;stroke-width:0.55;stroke-linecap:round;stroke-linejoin:round;stroke-opacity:1" />
    <path
       d="M 17.58,22.26 V 17.42"
       id="path975"
       style="fill:none;stroke:#000000;stroke-width:0.55;stroke-linecap:round;stroke-linejoin:round;stroke-opacity:1" />
    <path
       d="m 17.56,22.28 0.02,-0.02"
       id="path976"
       style="fill:none;stroke:#000000;stroke-width:0.55;stroke-linecap:round;stroke-linejoin:round;stroke-opacity:1" />
    <path
       d="M 17.58,22.3 17.56,22.28"
       id="path977"
       style="fill:none;stroke:#000000;stroke-width:0.55;stroke-linecap:round;stroke-linejoin:round;stroke-opacity:1" />
    <path
       d="m 10.26,13.77 3.69,-3.69"
       id="path978"
       style="fill:none;stroke:#000000;stroke-width:0.55;stroke-linecap:round;stroke-linejoin:round;stroke-opacity:1" />
    <path
       d="M 10.26,13.78 V 13.77"
       id="path979"
       style="fill:none;stroke:#000000;stroke-width:0.55;stroke-linecap:round;stroke-linejoin:round;stroke-opacity:1" />
    <path
       d="m 21.76,23.28 v -0.9"
       id="path980"
       style="fill:none;stroke:#000000;stroke-width:0.55;stroke-linecap:round;stroke-linejoin:round;stroke-opacity:1" />
    <path
       d="m 21.76,22.38 2.2,-2.2"
       id="path981"
       style="fill:none;stroke:#000000;stroke-width:0.55;stroke-linecap:round;stroke-linejoin:round;stroke-opacity:1" />
    <path
       d="M 28.8,11.12 28.06,10.38"
       id="path982"
       style="fill:none;stroke:#000000;stroke-width:0.55;stroke-linecap:round;stroke-linejoin:round;stroke-opacity:1" />
    <path
       d="m 28.06,10.38 -0.3,-0.3"
       id="path983"
       style="fill:none;stroke:#000000;stroke-width:0.55;stroke-linecap:round;stroke-linejoin:round;stroke-opacity:1" />
    <path
       d="M 17.58,35.2 V 24.88"
       id="path985"
       style="fill:none;stroke:#000000;stroke-width:0.55;stroke-linecap:round;stroke-linejoin:round;stroke-opacity:1" />
    <path
       d="M 17.58,24.88 V 22.3"
       id="path986"
       style="fill:none;stroke:#000000;stroke-width:0.55;stroke-linecap:round;stroke-linejoin:round;stroke-opacity:1" />
    <path
       d="M 17.58,24.88 V 22.5"
       id="path987"
       style="fill:none;stroke:#000000;stroke-width:0.55;stroke-linecap:round;stroke-linejoin:round;stroke-opacity:1" />
    <path
       d="M 17.58,22.5 13.24,18.16"
       id="path988"
       style="fill:none;stroke:#000000;stroke-width:0.55;stroke-linecap:round;stroke-linejoin:round;stroke-opacity:1" />
    <path
       d="M 13.24,18.16 H 9.22"
       id="path989"
       style="fill:none;stroke:#000000;stroke-width:0.55;stroke-linecap:round;stroke-linejoin:round;stroke-opacity:1" />
    <path
       d="m 17.58,17.42 v -3.6"
       id="path990"
       style="fill:none;stroke:#000000;stroke-width:0.55;stroke-linecap:round;stroke-linejoin:round;stroke-opacity:1" />
    <path
       d="M 17.58,35.2 V 31.6"
       id="path991"
       style="fill:none;stroke:#000000;stroke-width:0.55;stroke-linecap:round;stroke-linejoin:round;stroke-opacity:1" />
    <path
       d="m 23.51,37.53 0.45,0.45"
       id="path992"
       style="fill:none;stroke:#000000;stroke-width:0.55;stroke-linecap:round;stroke-linejoin:round;stroke-opacity:1" />
    <path
       d="m 21.18,35.2 2.33,2.33"
       id="path993"
       style="fill:none;stroke:#000000;stroke-width:0.55;stroke-linecap:round;stroke-linejoin:round;stroke-opacity:1" />
    <path
       d="M 23.51,37.53 H 10.61"
       id="path994"
       style="fill:none;stroke:#000000;stroke-width:0.55;stroke-linecap:round;stroke-linejoin:round;stroke-opacity:1" />
    <path
       d="M 10.61,37.53 6.56,33.48"
       id="path995"
       style="fill:none;stroke:#000000;stroke-width:0.55;stroke-linecap:round;stroke-linejoin:round;stroke-opacity:1" />
    <path
       d="m 28.8,12.32 v -1.2"
       id="path996"
       style="fill:none;stroke:#000000;stroke-width:0.55;stroke-linecap:round;stroke-linejoin:round;stroke-opacity:1" />
    <path
       d="m 27.76,10.08 h -4.5"
       id="path997"
       style="fill:none;stroke:#000000;stroke-width:0.55;stroke-linecap:round;stroke-linejoin:round;stroke-opacity:1" />
    <path
       d="m 21.18,17.4 2.78,2.78"
       id="path998"
       style="fill:none;stroke:#000000;stroke-width:0.55;stroke-linecap:round;stroke-linejoin:round;stroke-opacity:1" />
    <path
       d="m 23.96,20.18 h 3.2"
       id="path999"
       style="fill:none;stroke:#000000;stroke-width:0.55;stroke-linecap:round;stroke-linejoin:round;stroke-opacity:1" />
    <path
       d="M 28.8,18.54 V 15.72"
       id="path1000"
       style="fill:none;stroke:#000000;stroke-width:0.55;stroke-linecap:round;stroke-linejoin:round;stroke-opacity:1" />
    <path
       d="M 21.18,12.16 V 13.8"
       id="path1001"
       style="fill:none;stroke:#000000;stroke-width:0.55;stroke-linecap:round;stroke-linejoin:round;stroke-opacity:1" />
    <path
       d="m 23.26,10.08 -2.08,2.08"
       id="path1002"
       style="fill:none;stroke:#000000;stroke-width:0.55;stroke-linecap:round;stroke-linejoin:round;stroke-opacity:1" />
    <path
       d="M 27.16,20.18 28.8,18.54"
       id="path1003"
       style="fill:none;stroke:#000000;stroke-width:0.55;stroke-linecap:round;stroke-linejoin:round;stroke-opacity:1" />
    <path
       d="m 28.8,30.12 v -1.2"
       id="path1004"
       style="fill:none;stroke:#000000;stroke-width:0.55;stroke-linecap:round;stroke-linejoin:round;stroke-opacity:1" />
    <path
       d="M 28.8,28.92 27.76,27.88"
       id="path1005"
       style="fill:none;stroke:#000000;stroke-width:0.55;stroke-linecap:round;stroke-linejoin:round;stroke-opacity:1" />
    <path
       d="m 27.76,27.88 h -4.5"
       id="path1006"
       style="fill:none;stroke:#000000;stroke-width:0.55;stroke-linecap:round;stroke-linejoin:round;stroke-opacity:1" />
    <path
       d="m 23.26,27.88 -2.08,2.08"
       id="path1007"
       style="fill:none;stroke:#000000;stroke-width:0.55;stroke-linecap:round;stroke-linejoin:round;stroke-opacity:1" />
    <path
       d="M 21.18,29.96 V 31.6"
       id="path1008"
       style="fill:none;stroke:#000000;stroke-width:0.55;stroke-linecap:round;stroke-linejoin:round;stroke-opacity:1" />
    <path
       d="m 23.96,37.98 h 3.2"
       id="path1009"
       style="fill:none;stroke:#000000;stroke-width:0.55;stroke-linecap:round;stroke-linejoin:round;stroke-opacity:1" />
    <path
       d="M 27.16,37.98 28.8,36.34"
       id="path1010"
       style="fill:none;stroke:#000000;stroke-width:0.55;stroke-linecap:round;stroke-linejoin:round;stroke-opacity:1" />
    <path
       d="M 28.8,36.34 V 33.52"
       id="path1011"
       style="fill:none;stroke:#000000;stroke-width:0.55;stroke-linecap:round;stroke-linejoin:round;stroke-opacity:1" />
    <path
       style="fill:#000000;fill-opacity:1;fill-rule:evenodd;stroke:none;stroke-width:0.55;stroke-linecap:round;stroke-linejoin:round;stroke-opacity:1"
       d="m 26.8327,2.6806 0.391,0.0171 0.0108,9e-4 0.3854,0.0508 0.0106,0.0018 0.3795,0.0842 0.0104,0.0028 0.3707,0.1168 0.0102,0.0037 0.3591,0.1488 0.01,0.0046 0.3448,0.1794 0.009,0.0054 0.2701,0.1721 0.0577,0.0368 0.009,0.0062 0.3084,0.2366 0.008,0.007 0.2866,0.2625 0.008,0.0077 0.2625,0.2866 0.007,0.0082 0.2366,0.3084 0.006,0.0089 0.2089,0.3278 0.005,0.0094 0.1794,0.3447 0.005,0.0098 0.1487,0.3591 0.004,0.0102 0.1169,0.3707 0.003,0.0104 0.0842,0.3795 0.002,0.0107 0.0508,0.3853 9e-4,0.0108 0.0171,0.391 10e-5,0.0054 v 30.4114 0.0632 l -10e-5,0.005 -0.0171,0.391 -9e-4,0.0108 -0.0508,0.3853 -0.002,0.0107 -0.0842,0.3795 -0.003,0.0104 -0.1169,0.3707 -0.004,0.0102 -0.1487,0.3591 -0.005,0.01 -0.1794,0.3447 -0.005,0.009 -0.2089,0.3278 -0.006,0.009 -0.2366,0.3084 -0.007,0.008 -0.2625,0.2866 -0.008,0.008 -0.2866,0.2625 -0.008,0.007 -0.3084,0.2366 -0.009,0.006 -0.3278,0.2089 -0.009,0.005 -0.3447,0.1794 -0.01,0.005 -0.3591,0.1487 -0.0102,0.004 -0.3707,0.1169 -0.0104,0.003 -0.3795,0.0842 -0.0107,0.002 -0.3853,0.0508 -0.0108,9e-4 -0.391,0.0171 -0.005,1e-4 H 8.1732 l -0.005,-1e-4 -0.391,-0.0171 -0.0108,-9e-4 L 7.6777,42.2898 7.3811,42.2507 7.3704,42.2487 6.9909,42.1645 6.9805,42.1615 6.6098,42.0446 6.5996,42.0406 6.2405,41.8919 6.2305,41.8869 5.8858,41.7075 5.8768,41.7025 5.549,41.4936 5.54,41.4876 5.2316,41.251 5.2236,41.244 4.937,40.9815 4.929,40.9735 4.6665,40.6869 4.6595,40.6789 4.4229,40.3705 4.4169,40.3615 4.208,40.0337 4.203,40.0247 4.072,39.773 4.0236,39.68 4.0186,39.67 3.8698,39.3109 3.8658,39.3007 3.7489,38.93 3.7459,38.9196 3.6617,38.5401 3.6597,38.5294 3.6557,38.4967 3.6092,38.1441 l -9e-4,-0.0108 -0.0171,-0.391 -1e-4,-0.005 V 37.6741 33.48 h 1.7142 v 0 l 0.0191,0.218 v 0 l 0.0566,0.2113 v 0 0 l 5e-4,10e-4 0.092,0.1973 v 0 l 0.1255,0.1793 0.1547,0.1547 0.1793,0.1255 0.1983,0.0925 0.2113,0.0566 0.218,0.0191 0.0232,-0.002 0.0685,0.0138 0.03,0.0221 3.4021,3.4021 v 0 l 0.1352,0.0903 v 0 l 0.1502,0.0623 v 0 0 0 l 0.1595,0.0317 v 0 h 0.1626 3.5647 l 0.067,0.0197 0.0206,0.0166 0.1899,0.1899 0.4022,0.3461 0.427,0.3152 v 0 0 l 0.4493,0.2823 0.4692,0.2479 v 0 0 l 0.4864,0.2122 0.5008,0.1753 v 0 0 l 0.3164,0.0848 0.1962,0.0525 0.5214,0.0987 0.5273,0.0594 0.1768,0.007 0.3535,0.0133 v 0 0 l 0.3263,-0.0123 0.204,-0.008 0.5273,-0.0594 0.5214,-0.0987 0.3603,-0.0965 0.1523,-0.0408 v 0 0 l 0.5008,-0.1753 0.4864,-0.2122 0.4692,-0.2479 0.4493,-0.2823 0.427,-0.3152 0.1073,-0.0923 0.0636,-0.0288 0.0172,-0.001 h 3.2689 l 0.1073,-0.0213 0.0522,-0.0104 0.1502,-0.0623 v 0 l 0.0672,-0.0448 0.068,-0.0455 1.755,-1.755 0.0813,-0.1217 0.009,-0.0135 v 0 l 0.0502,-0.1212 0.0121,-0.029 0.0162,-0.0815 0.0155,-0.078 v -1.5327 l 0.0197,-0.067 0.0528,-0.0458 0.0367,-0.0103 0.0469,-0.006 0.1407,-0.0555 0.1206,-0.0915 0.0915,-0.1206 0.0555,-0.1407 0.0106,-0.0885 V 32.7768 L 30.1905,32.6883 30.135,32.5476 v 0 0 L 30.0435,32.427 29.9229,32.3355 29.8268,32.2976 29.7822,32.28 v 0 0 L 29.7365,32.275 29.6937,32.27 h -1.7862 l -0.039,0.005 -0.0495,0.006 -0.1407,0.0555 -0.1206,0.0915 -0.0915,0.1206 -0.0555,0.1407 -0.005,0.0446 -0.005,0.0439 v 1.4862 l 0.003,0.0238 0.008,0.0647 0.0555,0.1407 0.0915,0.1206 0.1206,0.0915 v 0 0 l 0.1407,0.0555 0.0469,0.006 0.0642,0.0275 0.0391,0.0579 0.006,0.0377 v 1.0581 l -0.0197,0.067 -0.0166,0.0207 -1.0838,1.0838 -0.0613,0.0335 -0.0264,0.003 H 25.589 l -0.067,-0.0197 -0.0458,-0.0528 -0.01,-0.0691 0.0177,-0.0484 5e-4,-7e-4 0.0225,-0.0358 0.1041,-0.197 0.1438,-0.2722 v 0 0 l 0.2122,-0.4864 0.1753,-0.5008 0.1373,-0.5126 0.0987,-0.5214 0.0594,-0.5273 0.0131,-0.3495 0.007,-0.1808 v 0 l -0.0192,-0.5119 -7e-4,-0.0184 -0.0594,-0.5273 -0.0987,-0.5214 -0.0806,-0.301 -0.0567,-0.2116 v 0 0 l -0.1472,-0.4206 h 1.4565 l 0.006,0.0596 v 0 l 0.0502,0.1347 v 0 l 0.0862,0.1151 v 0 l 0.1151,0.0861 v 10e-5 l 0.1347,0.0502 v 0 l 0.0596,0.006 v 0 h 0.6478 0.5 0.6478 v 0 l 0.0596,-0.006 v 0 l 0.1347,-0.0502 v -10e-5 l 0.1151,-0.0861 v 0 l 0.0861,-0.1151 h 10e-5 l 0.0502,-0.1347 v 0 l 0.006,-0.0596 v 0 -0.4978 h -1.1 v 0.95 h -0.5 v -0.95 h -1.1 v 0.4978 h -1.4565 l -0.0281,-0.0802 -0.2122,-0.4864 v 0 L 25.5063,29.8335 25.4362,29.722 25.224,29.3842 25.216,29.3737 h 2.2348 v 0.4978 h 1.1 0.5 1.1 v -0.4978 0 l -0.006,-0.0596 v 0 l -0.0502,-0.1347 h -10e-5 l -0.0861,-0.1151 v 0 l -0.1151,-0.0862 v 0 l -0.1347,-0.0502 v 0 L 29.699,28.9219 H 29.05 v 0.95 h -0.5 v -0.95 h -0.6478 l -0.0596,0.006 v 0 l -0.1347,0.0502 v 0 l -0.1151,0.0862 v 0 l -0.0862,0.1151 v 0 l -0.0502,0.1347 v 0 l -0.006,0.0596 h -2.2348 l -0.3074,-0.4165 -0.3461,-0.4022 -0.3752,-0.3752 -0.4022,-0.3461 -0.036,-0.0266 -0.391,-0.2886 v 0 l -0.4493,-0.2823 -0.4692,-0.2479 v 0 0 l -0.4864,-0.2122 v 0 0 L 21.6,26.6526 21.452,26.6008 v 0 0 l -0.4492,-0.1204 -0.0597,-0.0363 -0.0305,-0.0629 -0.002,-0.0205 v -0.8433 l -0.025,-0.1256 v 0 0 l -0.049,-0.1184 v 0 0 l -0.0712,-0.1066 v 0 l -0.0906,-0.0906 v 0 L 20.5682,25.005 v 0 l -0.1184,-0.049 v 0 l -0.1256,-0.025 v 0 h -1.7946 l -0.067,-0.0197 -0.0458,-0.0528 -0.0112,-0.0515 v -1.5512 l 0.0197,-0.067 0.0166,-0.0206 0.0798,-0.0798 0.1255,-0.1793 0.0925,-0.1983 0.0114,-0.0426 0.0364,-0.0596 0.0628,-0.0306 0.0344,-9e-4 0.0281,0.0032 0.0226,0.0025 0.5247,0.0196 v 0 0 l 0.2998,-0.0112 0.2249,-0.0084 0.4105,-0.0462 0.1112,-0.0126 v 0 0 l 0.0114,-0.0021 0.0695,0.0069 0.0548,0.0433 0.0226,0.0661 -0.0115,0.0579 -0.0728,0.1561 v 0 l -0.0566,0.2113 v 0 l -0.0191,0.218 v 0 l 0.0191,0.218 v 0 l 0.0566,0.2113 v 0 0 l 0.0463,0.0992 0.0462,0.0991 8e-4,0.0012 0.1247,0.1781 0.1547,0.1547 0.1793,0.1255 0.1983,0.0925 0.2113,0.0566 0.1829,0.016 0.0351,0.003 v 0 0 l 0.0283,-0.002 0.1897,-0.0166 0.2113,-0.0566 0.1983,-0.0925 0.1793,-0.1255 0.1547,-0.1547 0.1255,-0.1793 0.0925,-0.1983 0.0566,-0.2113 0.0191,-0.218 -0.001,-0.012 -0.009,-0.1013 -0.009,-0.1047 -0.0566,-0.2113 -0.0925,-0.1983 v 0 l -0.0194,-0.0278 -0.0223,-0.0662 0.017,-0.0677 0.0192,-0.0249 1.424,-1.424 0.0613,-0.0335 0.0264,-0.0028 h 2.888 l 0.1106,-0.022 0.0489,-0.0097 0.1502,-0.0623 v 0 l 0.0672,-0.0448 0.068,-0.0455 1.755,-1.755 0.0612,-0.0915 0.0291,-0.0437 v 0 l 0.0334,-0.0805 0.0289,-0.0697 0.0158,-0.0794 0.0159,-0.0801 v -1.5127 l 0.0197,-0.067 0.0528,-0.0458 0.0367,-0.0103 0.0469,-0.0056 0.1407,-0.0555 0.1206,-0.0915 0.0915,-0.1206 0.0555,-0.1407 0.0106,-0.0885 v -1.4862 l -0.0106,-0.0885 -0.0555,-0.1407 v 0 0 L 30.0431,14.649 29.9225,14.5575 29.8264,14.5196 29.7818,14.502 v 0 0 l -0.0457,-0.0055 -0.0428,-0.0051 h -1.7862 l -0.039,0.0047 -0.0495,0.0059 -0.1407,0.0555 -0.1206,0.0915 -0.0915,0.1206 -0.0555,0.1407 -0.005,0.0446 -0.005,0.0439 v 1.4862 l 0.004,0.0325 0.007,0.056 0.0555,0.1407 0.0915,0.1206 0.1206,0.0915 v 0 0 l 0.1407,0.0555 0.0469,0.0056 0.0642,0.0275 0.0391,0.0579 0.006,0.0377 v 1.0381 l -0.0197,0.067 -0.0166,0.0207 -1.0838,1.0838 -0.0613,0.0335 -0.0264,0.0028 h -1.1679 l -0.0671,-0.0197 -0.0457,-0.0528 -0.01,-0.0691 0.0178,-0.0484 0.0144,-0.0229 0.0321,-0.0511 0.0747,-0.1413 0.1706,-0.3229 v 0 h 10e-5 l 0.2099,-0.4813 0.1734,-0.4955 0.1359,-0.5072 0.0976,-0.5159 0.0588,-0.5217 0.008,-0.2249 0.0112,-0.2998 v 0 l -0.0196,-0.5247 v 0 l -0.0588,-0.5217 -0.006,-0.0304 -0.0527,-0.2782 -0.0392,-0.2073 -0.1359,-0.5072 -0.1479,-0.4227 h 1.4289 l 0.006,0.0596 v 0 l 0.0502,0.1347 v 0 l 0.0862,0.1151 v 0 l 0.1151,0.0861 v 10e-5 l 0.1347,0.0502 v 0 l 0.0596,0.0064 v 0 h 0.6478 0.5 0.6478 v 0 l 0.0596,-0.0064 v 0 l 0.1347,-0.0502 v -10e-5 l 0.1151,-0.0861 v 0 l 0.0861,-0.1151 h 10e-5 l 0.0502,-0.1347 v 0 l 0.006,-0.0596 v 0 -0.4978 h -1.1 v 0.95 h -0.5 v -0.95 h -1.1 v 0.4978 h -1.4289 l -0.0255,-0.0728 -0.2099,-0.4813 h -10e-5 l -0.2453,-0.4642 v 0 L 25.261,11.625 25.2368,11.5922 H 27.45 V 12.09 h 1.1 0.5 1.1 v -0.4978 0 l -0.006,-0.0596 v 0 l -0.0502,-0.1347 h -1e-4 l -0.0861,-0.1151 v 0 l -0.1151,-0.0862 v 0 l -0.1347,-0.0502 v 0 L 29.6978,11.14 H 29.05 v 0.95 h -0.5 v -0.95 h -0.6478 l -0.0596,0.0064 v 0 l -0.1347,0.0502 v 0 l -0.1151,0.0862 v 0 l -0.0862,0.1151 v 0 l -0.0502,0.1347 v 0 l -0.006,0.0596 H 25.2372 L 24.9496,11.2025 24.6071,10.8045 24.2359,10.4333 23.8379,10.0908 23.788,10.054 23.4154,9.779 v 0 L 22.9709,9.4997 v 0 L 22.5067,9.2544 v 0 -10e-5 L 22.0254,9.0444 21.5299,8.871 v 0 0 L 21.0227,8.7351 v 0 L 21.0118,8.733 20.9496,8.7012 20.9145,8.6408 20.9105,8.6112 V 7.4159 l -0.025,-0.1256 v 0 0 l -0.049,-0.1184 v 0 0 L 20.7653,7.0653 v 0 L 20.6747,6.9747 v 0 L 20.5681,6.9035 v 0 l -0.1184,-0.049 v 0 l -0.1256,-0.025 v 0 h -1.8 -0.1282 v 0 l -0.1256,0.025 v 0 l -0.1184,0.049 v 0 l -0.1066,0.0712 v 0 l -0.0906,0.0906 v 0 l -0.0712,0.1066 v 0 l -0.049,0.1184 v 0 l -0.025,0.1256 V 8.6636 L 17.7898,8.7306 17.737,8.7764 17.7176,8.7833 17.3905,8.871 16.895,9.0444 16.4137,9.2544 15.9495,9.4997 15.505,9.779 v 0 l -0.4225,0.3118 -0.398,0.3425 -0.3712,0.3712 v 0 0 l -0.1636,0.1902 -0.1789,0.2078 -0.3118,0.4225 v 0 l -0.2793,0.4445 -0.2453,0.4642 -0.21,0.4813 -0.1734,0.4955 -0.1359,0.5072 v 0 l -0.0976,0.5159 v 0 l -0.0588,0.5217 -0.0196,0.5247 v 0 l 0.0196,0.5247 0.0588,0.5217 v 0 l 0.0976,0.5159 v 0 l 0.01,0.0361 -0.002,0.0699 -0.0392,0.0578 -0.0642,0.0275 -0.0147,9e-4 h -1.7664 l -0.067,-0.0197 -0.0458,-0.0528 -0.0103,-0.0367 -0.006,-0.0469 -0.0555,-0.1407 v 0 0 L 10.4625,16.9171 10.3419,16.8256 10.2012,16.7701 10.1555,16.7646 10.1127,16.7595 H 8.3265 l -0.039,0.0047 -0.0495,0.0059 -0.1407,0.0555 -0.1206,0.0915 -0.0915,0.1206 -0.0555,0.1407 -0.006,0.0469 -0.005,0.0416 v 1.7862 l 0.005,0.0416 0.006,0.0469 0.0555,0.1407 0.0915,0.1206 0.1206,0.0915 v 0 0 l 0.1244,0.0491 0.0552,0.0429 0.0232,0.0659 -0.0161,0.0679 -0.0201,0.0263 -0.0824,0.0824 -0.1355,0.1935 v 0 l -0.0998,0.2141 v 0 L 7.889,20.45 v 0 h 0.8976 l -0.0329,0.057 -0.0341,0.1272 v 0.1316 L 8.7537,20.893 8.7866,20.95 H 7.889 l 0.0572,0.2135 v 0 l 0.0998,0.2141 0.1355,0.1935 0.167,0.167 0.1424,0.0997 0.0437,0.0546 0.007,0.0695 -0.0315,0.0624 -0.0314,0.0242 -0.0278,0.015 v 0 l -0.1832,0.1426 v 0 l -0.1572,0.1708 -0.1269,0.1943 -0.0933,0.2125 -0.0569,0.225 v 0 L 7.8142,23.24 v 0 l 0.0192,0.2313 v 0 l 0.0569,0.225 0.0933,0.2125 0.1269,0.1943 v 10e-5 0 l 0.1572,0.1707 v 0 0 l 0.1832,0.1426 v 0 0 l 0.0278,0.015 0.0496,0.0493 0.0151,0.0682 -0.0241,0.0655 -0.0285,0.0277 -0.1424,0.0997 v 0 l -0.167,0.167 v 0 l -0.1355,0.1935 v 0 l -0.0998,0.2141 v 0 L 7.8889,25.53 v 0 h 0.8976 l -0.0329,0.057 -0.0341,0.1272 v 0.1316 L 8.7536,25.973 8.7865,26.03 H 7.8889 l 0.0572,0.2135 v 0 l 0.0998,0.2141 0.1355,0.1935 0.167,0.167 0.1424,0.0997 0.0437,0.0546 0.007,0.0695 -0.0315,0.0624 -0.0314,0.0242 -0.0278,0.015 v 0 l -0.1832,0.1426 v 0 l -0.1572,0.1708 -0.1269,0.1943 -0.0933,0.2125 -0.0569,0.225 v 0 L 7.8141,28.32 v 0 l 0.0192,0.2313 v 0 l 0.0569,0.225 0.0933,0.2125 0.1269,0.1943 v 10e-5 0 l 0.1572,0.1707 v 0 0 l 0.1832,0.1426 v 0 0 l 0.2041,0.1104 0.114,0.0392 0.1055,0.0362 v 0 0 l 0.229,0.0382 v 0 h 0.232 v 0 l 0.229,-0.0382 0.2195,-0.0754 0.2041,-0.1104 0.1832,-0.1426 0.1572,-0.1707 0.003,-0.005 0.0399,-0.0611 0.0836,-0.128 0.0933,-0.2125 0.0569,-0.225 v 0 l 0.0192,-0.2313 v 0 L 10.6051,28.089 v 0 L 10.5482,27.864 10.4549,27.6515 10.328,27.4572 v -10e-5 0 l -0.1572,-0.1707 v 0 0 L 9.9876,27.1438 v 0 l -0.0278,-0.015 -0.0496,-0.0493 -0.0151,-0.0682 0.0241,-0.0655 0.0285,-0.0277 0.1424,-0.0997 0.167,-0.167 0.1355,-0.1935 0.0998,-0.2141 v 0 l 0.0572,-0.2135 H 9.652 L 9.6849,25.9733 9.719,25.8461 V 25.7145 L 9.6849,25.5873 9.652,25.5303 h 0.8976 v 0 l -0.0572,-0.2135 v 0 l -0.0998,-0.2141 v 0 l -0.1355,-0.1935 v 0 L 10.0901,24.7422 9.9477,24.6425 9.904,24.5879 9.897,24.5184 9.9286,24.456 9.96,24.4318 l 0.0278,-0.015 0.1832,-0.1426 0.1572,-0.1707 0.1269,-0.1944 0.0933,-0.2125 0.0569,-0.225 0.0147,-0.177 0.005,-0.0543 v 0 L 10.6058,23.009 v 0 l -0.0569,-0.225 -0.0933,-0.2125 -0.1269,-0.1943 v -10e-5 0 l -0.1572,-0.1707 v 0 0 L 9.9883,22.0638 v 0 l -0.0278,-0.015 -0.0496,-0.0493 -0.0151,-0.0682 0.0241,-0.0655 0.0285,-0.0277 0.1424,-0.0997 0.167,-0.167 0.1355,-0.1935 0.0998,-0.2141 v 0 l 0.0572,-0.2135 H 9.6527 l 0.0329,-0.057 0.0341,-0.1272 V 20.6342 L 9.6859,20.507 9.653,20.45 h 0.8976 v 0 l -0.0572,-0.2135 v 0 l -0.0998,-0.2141 v 0 l -0.1355,-0.1935 v 0 l -0.0824,-0.0824 -0.0335,-0.0613 0.005,-0.0697 0.0418,-0.056 0.0289,-0.016 0.1244,-0.0491 0.1206,-0.0915 0.0915,-0.1206 0.0555,-0.1407 0.006,-0.0469 0.0275,-0.0642 0.0579,-0.0391 0.0377,-0.0059 h 2.1081 l 0.067,0.0197 0.0207,0.0166 3.3492,3.3492 0.0334,0.0613 0.002,0.0156 0.004,0.0501 v 0 l 0.0566,0.2113 v 0 0 l 0.0347,0.0744 0.0578,0.1239 v 0 l 0.1255,0.1793 v 0 l 0.1198,0.1198 0.0335,0.0613 0.003,0.0263 v 3.4048 l -0.0197,0.067 -0.0528,0.0458 -0.002,8e-4 -0.3989,0.1741 -0.4692,0.2479 -0.4493,0.2823 v 0 l -0.427,0.3151 -0.4022,0.3462 -0.3752,0.3752 -0.3462,0.4023 -0.3151,0.4269 v 0 l -0.2823,0.4493 -0.2479,0.4692 -0.2122,0.4864 -0.1753,0.5008 -0.1373,0.5126 h -1e-4 l -0.0986,0.5214 v 0 l -0.0594,0.5273 -0.0199,0.5303 v 0 l 0.0199,0.5303 0.0594,0.5273 v 0 0 l 0.0245,0.1295 0.0741,0.3919 h 1e-4 l 0.1373,0.5126 0.1753,0.5008 v 0 0 l 0.1872,0.4293 0.025,0.0571 0.0336,0.0638 0.014,0.0684 -0.0253,0.0652 -0.0565,0.0411 -0.0418,0.007 H 11.003 L 10.936,36.6846 10.9153,36.668 7.8488,33.6015 7.8153,33.5401 7.8133,33.503 7.8153,33.4798 7.7962,33.2618 7.7396,33.0505 7.6471,32.8522 v 0 0 L 7.5216,32.6729 7.5045,32.6559 7.3669,32.5182 7.1876,32.3927 v 0 0 L 7.0885,32.3465 6.9893,32.3002 v 0 0 L 6.778,32.2436 6.56,32.2245 v 0 l -0.1453,0.0127 -0.0727,0.006 v 0 l -0.2113,0.0566 v 0 l -0.1983,0.0925 v 0 l -0.1793,0.1255 -0.1547,0.1547 -0.1255,0.1793 v 0 l -0.0925,0.1983 v 0 l -0.0566,0.2113 v 0 l -0.0191,0.218 H 3.5905 V 30.2084 7.2621 L 3.5906,7.2567 3.6077,6.8657 3.6086,6.8549 3.6594,6.4695 3.6614,6.4589 3.7456,6.0794 3.7486,6.069 3.8655,5.6983 3.8695,5.6881 4.0183,5.329 4.0233,5.3192 4.2027,4.9744 4.2077,4.9651 4.4166,4.6373 4.4226,4.6284 4.6592,4.32 4.6662,4.3118 4.9288,4.0252 4.9368,4.0176 5.2234,3.755 5.2314,3.748 5.5398,3.5114 5.5488,3.5052 5.8766,3.2963 5.8856,3.2909 6.2303,3.1115 6.2403,3.1069 6.5994,2.9581 6.6096,2.9545 6.9803,2.8376 6.9907,2.8348 7.3702,2.7506 7.3808,2.7488 7.7662,2.698 7.777,2.6971 8.1681,2.68 l 0.005,-1e-4 h 0.0632 18.5282 0.0632 z"
       id="path1014" />
  </g>
  <g
     inkscape:groupmode="layer"
     id="layer3"
     inkscape:label="holes"
     style="display:none">
    <circle
       cx="6.5599999"
       cy="33.480003"
       r="0.405"
       id="circle1014"
       style="fill:#ffffff;fill-opacity:1;stroke:#ffffff;stroke-width:0.1;stroke-dasharray:none;stroke-opacity:1" />
    <circle
       cx="17.559999"
       cy="22.279999"
       r="0.405"
       id="circle1015"
       style="fill:#ffffff;fill-opacity:1;stroke:#ffffff;stroke-width:0.1;stroke-dasharray:none;stroke-opacity:1" />
    <circle
       cx="10.259997"
       cy="13.779999"
       r="0.405"
       id="circle1016"
       style="fill:#ffffff;fill-opacity:1;stroke:#ffffff;stroke-width:0.1;stroke-dasharray:none;stroke-opacity:1" />
    <circle
       cx="21.759996"
       cy="23.279999"
       r="0.405"
       id="circle1017"
       style="fill:#ffffff;fill-opacity:1;stroke:#ffffff;stroke-width:0.1;stroke-dasharray:none;stroke-opacity:1" />
    <circle
       cx="9.2200041"
       cy="18.160004"
       r="0.5"
       id="circle1018"
       style="fill:#ffffff;fill-opacity:1;stroke:none" />
    <circle
       cx="9.2200041"
       cy="20.699997"
       r="0.5"
       id="circle1019"
       style="fill:#ffffff;fill-opacity:1;stroke:none" />
    <circle
       cx="9.2200041"
       cy="23.239998"
       r="0.5"
       id="circle1020"
       style="fill:#ffffff;fill-opacity:1;stroke:none" />
    <circle
       cx="9.2200041"
       cy="25.779999"
       r="0.5"
       id="circle1021"
       style="fill:#ffffff;fill-opacity:1;stroke:none" />
    <circle
       cx="9.2200041"
       cy="28.32"
       r="0.5"
       id="circle1022"
       style="fill:#ffffff;fill-opacity:1;stroke:none" />
    <circle
       cx="21.179995"
       cy="13.82"
       r="0.405"
       id="circle1023"
       style="fill:#ffffff;fill-opacity:1;stroke:#ffffff;stroke-width:0.1;stroke-dasharray:none;stroke-opacity:1" />
    <circle
       cx="17.5"
       cy="1.9925001"
       r="0.405"
       id="circle1023-6"
       style="display:inline;fill:#ffffff;fill-opacity:1;stroke:#ffffff;stroke-width:0.1;stroke-dasharray:none;stroke-opacity:1" />
    <circle
       cx="17.5"
       cy="43.0075"
       r="0.405"
       id="circle1023-6-7"
       style="display:inline;fill:#ffffff;fill-opacity:1;stroke:#ffffff;stroke-width:0.1;stroke-dasharray:none;stroke-opacity:1" />
    <circle
       cx="21.179995"
       cy="17.419998"
       r="0.405"
       id="circle1024"
       style="fill:#ffffff;fill-opacity:1;stroke:#ffffff;stroke-width:0.1;stroke-dasharray:none;stroke-opacity:1" />
    <circle
       cx="17.580004"
       cy="17.419998"
       r="0.405"
       id="circle1025"
       style="fill:#ffffff;fill-opacity:1;stroke:#ffffff;stroke-width:0.1;stroke-dasharray:none;stroke-opacity:1" />
    <circle
       cx="17.580004"
       cy="13.82"
       r="0.405"
       id="circle1026"
       style="fill:#ffffff;fill-opacity:1;stroke:#ffffff;stroke-width:0.1;stroke-dasharray:none;stroke-opacity:1" />
    <circle
       cx="21.179995"
       cy="31.599998"
       r="0.405"
       id="circle1027"
       style="fill:#ffffff;fill-opacity:1;stroke:#ffffff;stroke-width:0.1;stroke-dasharray:none;stroke-opacity:1" />
    <circle
       cx="21.179995"
       cy="35.199997"
       r="0.405"
       id="circle1028"
       style="fill:#ffffff;fill-opacity:1;stroke:#ffffff;stroke-width:0.1;stroke-dasharray:none;stroke-opacity:1" />
    <circle
       cx="17.580004"
       cy="35.199997"
       r="0.405"
       id="circle1029"
       style="fill:#ffffff;fill-opacity:1;stroke:#ffffff;stroke-width:0.1;stroke-dasharray:none;stroke-opacity:1" />
    <circle
       cx="17.580004"
       cy="31.599998"
       r="0.405"
       id="circle1030"
       style="fill:#ffffff;fill-opacity:1;stroke:#ffffff;stroke-width:0.1;stroke-dasharray:none;stroke-opacity:1" />
  </g>
  <g
     inkscape:groupmode="layer"
     id="layer5"
     inkscape:label="holesBC"
     style="display:inline">
    <circle
       cx="9.2198534"
       cy="18.159954"
       r="0.5"
       id="circle931-3"
       style="fill:#000000;fill-opacity:1;stroke:none" />
    <circle
       cx="9.2198534"
       cy="20.699947"
       r="0.5"
       id="circle932-6"
       style="fill:#000000;fill-opacity:1;stroke:none" />
    <circle
       cx="9.2198534"
       cy="23.239948"
       r="0.5"
       id="circle933-7"
       style="fill:#000000;fill-opacity:1;stroke:none" />
    <circle
       cx="9.2198534"
       cy="25.779949"
       r="0.5"
       id="circle934-5"
       style="fill:#000000;fill-opacity:1;stroke:none" />
    <circle
       cx="9.2198534"
       cy="28.31995"
       r="0.5"
       id="circle935-3"
       style="fill:#000000;fill-opacity:1;stroke:none" />
    <circle
       cx="21.179846"
       cy="13.819949"
       r="0.405"
       id="circle936-5"
       style="fill:#000000;fill-opacity:1;stroke:none" />
    <circle
       cx="21.179846"
       cy="17.419949"
       r="0.405"
       id="circle937-6"
       style="fill:#000000;fill-opacity:1;stroke:none" />
    <circle
       cx="17.579855"
       cy="17.419949"
       r="0.405"
       id="circle938-2"
       style="fill:#000000;fill-opacity:1;stroke:none" />
    <circle
       cx="17.579855"
       cy="13.819949"
       r="0.405"
       id="circle939-9"
       style="fill:#000000;fill-opacity:1;stroke:none" />
    <circle
       cx="21.179846"
       cy="31.599949"
       r="0.405"
       id="circle940-1"
       style="fill:#000000;fill-opacity:1;stroke:none" />
    <circle
       cx="21.179846"
       cy="35.199947"
       r="0.405"
       id="circle941-2"
       style="fill:#000000;fill-opacity:1;stroke:none" />
    <circle
       cx="17.579855"
       cy="35.199947"
       r="0.405"
       id="circle942-7"
       style="fill:#000000;fill-opacity:1;stroke:none" />
    <circle
       cx="17.579855"
       cy="31.599949"
       r="0.405"
       id="circle943-0"
       style="fill:#000000;fill-opacity:1;stroke:none" />
    <path
       style="fill:#000000;fill-opacity:1;fill-rule:evenodd;stroke:none"
       d="m 8.36985,19.00995 v -1.7 h 1.7 v 1.7 z"
       id="path943" />
    <circle
       cx="9.2198534"
       cy="20.699947"
       r="0.85000002"
       id="circle944"
       style="fill:#000000;fill-opacity:1;stroke:none" />
    <circle
       cx="9.2198534"
       cy="23.239948"
       r="0.85000002"
       id="circle945"
       style="fill:#000000;fill-opacity:1;stroke:none" />
    <circle
       cx="9.2198534"
       cy="25.779949"
       r="0.85000002"
       id="circle946"
       style="fill:#000000;fill-opacity:1;stroke:none" />
    <circle
       cx="9.2198534"
       cy="28.31995"
       r="0.85000002"
       id="circle947-9"
       style="fill:#000000;fill-opacity:1;stroke:none" />
    <circle
       cx="21.179846"
       cy="13.819949"
       r="0.88"
       id="circle948-3"
       style="fill:#000000;fill-opacity:1;stroke:none" />
    <circle
       cx="21.179846"
       cy="17.419949"
       r="0.88"
       id="circle949-6"
       style="fill:#000000;fill-opacity:1;stroke:none" />
    <circle
       cx="17.579855"
       cy="17.419949"
       r="0.88"
       id="circle950-0"
       style="fill:#000000;fill-opacity:1;stroke:none" />
    <circle
       cx="17.579855"
       cy="13.819949"
       r="0.88"
       id="circle951-6"
       style="fill:#000000;fill-opacity:1;stroke:none" />
    <circle
       cx="21.179846"
       cy="31.599949"
       r="0.88"
       id="circle952-2"
       style="fill:#000000;fill-opacity:1;stroke:none" />
    <circle
       cx="21.179846"
       cy="35.199947"
       r="0.88"
       id="circle953-6"
       style="fill:#000000;fill-opacity:1;stroke:none" />
    <circle
       cx="17.579855"
       cy="35.199947"
       r="0.88"
       id="circle954-1"
       style="fill:#000000;fill-opacity:1;stroke:none" />
    <circle
       cx="17.579855"
       cy="31.599949"
       r="0.88"
       id="circle955-8"
       style="fill:#000000;fill-opacity:1;stroke:none" />
    <circle
       cx="6.5598502"
       cy="33.479954"
       r="0.69999999"
       id="circle956-7"
       style="fill:#000000;fill-opacity:1;stroke:none" />
    <circle
       cx="17.559851"
       cy="22.279949"
       r="0.69999999"
       id="circle957-9"
       style="fill:#000000;fill-opacity:1;stroke:none" />
    <circle
       cx="10.259847"
       cy="13.779948"
       r="0.69999999"
       id="circle958-2"
       style="fill:#000000;fill-opacity:1;stroke:none" />
    <circle
       cx="21.759848"
       cy="23.279949"
       r="0.69999999"
       id="circle959-0"
       style="fill:#000000;fill-opacity:1;stroke:none" />
    <path
       d="m 6.55985,33.47995 v -9.1"
       id="path959"
       style="fill:none;stroke:#000000;stroke-width:0.55;stroke-linecap:round;stroke-linejoin:round;stroke-opacity:1" />
    <path
       d="m 6.55985,24.37995 1.14,-1.14"
       id="path960"
       style="fill:none;stroke:#000000;stroke-width:0.55;stroke-linecap:round;stroke-linejoin:round;stroke-opacity:1" />
    <path
       d="m 7.69985,23.23995 h 1.52"
       id="path961"
       style="fill:none;stroke:#000000;stroke-width:0.55;stroke-linecap:round;stroke-linejoin:round;stroke-opacity:1" />
    <path
       d="m 14.75985,25.77995 -2.54,2.54"
       id="path962-2"
       style="fill:none;stroke:#000000;stroke-width:0.55;stroke-linecap:round;stroke-linejoin:round;stroke-opacity:1" />
    <path
       d="m 12.21985,28.31995 h -3"
       id="path963-3"
       style="fill:none;stroke:#000000;stroke-width:0.55;stroke-linecap:round;stroke-linejoin:round;stroke-opacity:1" />
    <path
       d="m 17.55985,22.27995 -4.12,-4.12"
       id="path964-7"
       style="fill:none;stroke:#000000;stroke-width:0.55;stroke-linecap:round;stroke-linejoin:round;stroke-opacity:1" />
    <path
       d="m 13.43985,18.15995 h -4.22"
       id="path965-5"
       style="fill:none;stroke:#000000;stroke-width:0.55;stroke-linecap:round;stroke-linejoin:round;stroke-opacity:1" />
    <path
       d="m 10.25985,13.77995 -3.9,3.9"
       id="path966-9"
       style="fill:none;stroke:#000000;stroke-width:0.55;stroke-linecap:round;stroke-linejoin:round;stroke-opacity:1" />
    <path
       d="m 6.35985,17.67995 v 2.1"
       id="path967-2"
       style="fill:none;stroke:#000000;stroke-width:0.55;stroke-linecap:round;stroke-linejoin:round;stroke-opacity:1" />
    <path
       d="m 6.35985,19.77995 0.92,0.92"
       id="path968-2"
       style="fill:none;stroke:#000000;stroke-width:0.55;stroke-linecap:round;stroke-linejoin:round;stroke-opacity:1" />
    <path
       d="m 7.27985,20.69995 h 1.94"
       id="path969-8"
       style="fill:none;stroke:#000000;stroke-width:0.55;stroke-linecap:round;stroke-linejoin:round;stroke-opacity:1" />
    <path
       d="m 14.75985,25.77995 h 4.5"
       id="path970-9"
       style="fill:none;stroke:#000000;stroke-width:0.55;stroke-linecap:round;stroke-linejoin:round;stroke-opacity:1" />
    <path
       d="m 19.25985,25.77995 2.5,-2.5"
       id="path971-7"
       style="fill:none;stroke:#000000;stroke-width:0.55;stroke-linecap:round;stroke-linejoin:round;stroke-opacity:1" />
    <path
       style="fill:#000000;fill-opacity:1;fill-rule:evenodd;stroke:none;stroke-width:0.1;stroke-linecap:round;stroke-linejoin:round;stroke-opacity:1;stroke-dasharray:none"
       d="m 26.83255,2.68055 0.391,0.0171 0.0108,9e-4 0.3854,0.0508 0.0106,0.0018 0.3795,0.0842 0.0104,0.0028 0.3707,0.1168 0.0102,0.0037 0.3591,0.1488 0.01,0.0046 0.3448,0.1794 0.009,0.0054 0.2701,0.1721 0.0577,0.0368 0.009,0.0062 0.3084,0.2366 0.008,0.007 0.2866,0.2625 0.008,0.0077 0.2625,0.2866 0.007,0.0082 0.2366,0.3084 0.006,0.0089 0.2089,0.3278 0.005,0.0094 0.1794,0.3447 0.005,0.0098 0.1487,0.3591 0.004,0.0102 0.1169,0.3707 0.003,0.0104 0.0842,0.3795 0.002,0.0107 0.0508,0.3853 9e-4,0.0108 0.0171,0.391 10e-5,0.0054 v 30.4114 0.0632 l -10e-5,0.005 -0.0171,0.391 -9e-4,0.0108 -0.0508,0.3853 -0.002,0.0107 -0.0842,0.3795 -0.003,0.0104 -0.1169,0.3707 -0.004,0.0102 -0.1487,0.3591 -0.005,0.01 -0.1794,0.3447 -0.005,0.009 -0.2089,0.3278 -0.006,0.009 -0.2366,0.3084 -0.007,0.008 -0.2625,0.2866 -0.008,0.008 -0.2866,0.2625 -0.008,0.007 -0.3084,0.2366 -0.009,0.006 -0.3278,0.2089 -0.009,0.005 -0.3447,0.1794 -0.01,0.005 -0.3591,0.1487 -0.0102,0.004 -0.3707,0.1169 -0.0104,0.003 -0.3795,0.0842 -0.0107,0.002 -0.3853,0.0508 -0.0108,9e-4 -0.391,0.0171 -0.005,10e-5 H 8.17305 l -0.005,-10e-5 -0.391,-0.0171 -0.0108,-9e-4 -0.0887,-0.0117 -0.2966,-0.0391 -0.0107,-0.002 -0.3795,-0.0842 -0.0104,-0.003 -0.3707,-0.1169 -0.0102,-0.004 -0.3591,-0.1487 -0.01,-0.005 -0.3447,-0.1794 -0.009,-0.005 -0.3278,-0.2089 -0.009,-0.006 -0.3084,-0.2366 -0.008,-0.007 -0.2866,-0.2625 -0.008,-0.008 -0.2625,-0.2866 -0.007,-0.008 -0.2366,-0.3084 -0.006,-0.009 -0.2089,-0.3278 -0.005,-0.009 -0.1794,-0.3447 -0.005,-0.01 -0.1488,-0.3591 -0.004,-0.0102 -0.1169,-0.3707 -0.003,-0.0104 -0.0842,-0.3795 -0.002,-0.0107 -0.0508,-0.3853 -9e-4,-0.0108 -0.0171,-0.391 -10e-5,-0.005 v -0.0632 -2.4741 h 12.5541 v 0 l 0.0196,0.2363 0.0582,0.2298 0.0952,0.2171 0.1297,0.1984 0.1605,0.1745 v 0 l 0.1871,0.1456 0.2085,0.1128 0.2242,0.077 0.2339,0.039 h 0.237 l 0.2339,-0.039 0.2242,-0.077 0.2085,-0.1128 0.1871,-0.1456 0.1605,-0.1745 0.1297,-0.1984 0.0952,-0.2171 0.0582,-0.2298 0.0196,-0.2363 v 0 h 0.7292 v 0 l 0.0196,0.2363 0.0582,0.2298 0.0952,0.2171 0.1297,0.1984 0.1605,0.1745 v 0 l 0.1871,0.1456 0.2085,0.1128 0.2242,0.077 0.2339,0.039 h 0.237 l 0.2339,-0.039 0.2242,-0.077 0.2085,-0.1128 0.1871,-0.1456 0.1605,-0.1745 0.1297,-0.1984 0.0952,-0.2171 0.0582,-0.2298 0.0196,-0.2363 -0.0196,-0.2363 -0.0436,-0.1723 -0.0146,-0.0575 -0.0952,-0.2171 -0.1297,-0.1984 -0.1605,-0.1745 v 0 l -0.1871,-0.1456 -0.2085,-0.1128 v 0 l -0.2242,-0.077 -0.2339,-0.039 h -0.237 l -0.2339,0.039 -0.2242,0.077 v 0 l -0.2085,0.1128 -0.1871,0.1456 v 0 l -0.1605,0.1745 -0.1297,0.1984 -0.0952,0.2171 -0.0582,0.2298 -0.0196,0.2363 h -0.7292 l -0.0196,-0.2363 -0.0436,-0.1723 -0.0146,-0.0575 -0.0952,-0.2171 -0.1297,-0.1984 -0.1605,-0.1745 v 0 l -0.1871,-0.1456 -0.2085,-0.1128 v 0 l -0.2242,-0.077 -0.2339,-0.039 h -0.237 l -0.2339,0.039 -0.2242,0.077 v 0 l -0.2085,0.1128 -0.1871,0.1456 v 0 l -0.1605,0.1745 -0.1297,0.1984 -0.0952,0.2171 -0.0582,0.2298 -0.0196,0.2363 H 3.59065 v -1.72 h 1.7142 v 0 l 0.0191,0.218 v 0 l 0.0566,0.2113 v 0 0 l 0.0415,0.089 0.051,0.1093 v 0 l 0.1255,0.1793 0.1547,0.1547 0.1793,0.1255 0.1983,0.0925 0.2113,0.0566 0.1829,0.016 0.0351,0.003 v 0 0 l 0.0283,-0.002 0.1897,-0.0166 0.2113,-0.0566 0.1983,-0.0925 0.1793,-0.1255 0.1547,-0.1547 0.1255,-0.1793 0.0925,-0.1983 0.0566,-0.2113 0.0191,-0.218 -0.0191,-0.218 -0.0566,-0.2113 -0.0925,-0.1983 v 0 0 l -0.1255,-0.1793 -0.0998,-0.0998 -0.0335,-0.0613 -0.003,-0.0263 v -0.8861 h 8.7591 v 0 l 0.0196,0.2363 0.0582,0.2298 0.0952,0.2171 0.1297,0.1984 0.0844,0.0917 0.0761,0.0828 0.1871,0.1456 0.2085,0.1128 0.2242,0.077 0.2339,0.039 h 0.237 l 0.2339,-0.039 0.2242,-0.077 0.2085,-0.1128 0.1871,-0.1456 0.1605,-0.1745 0.1297,-0.1984 0.0952,-0.2171 0.0582,-0.2298 0.0196,-0.2363 v 0 h 0.7799 v 0 l 0.0189,0.2279 0.0561,0.2217 0.0919,0.2095 0.0811,0.1241 0.7317,-0.7318 v 0.002 l 0.0276,0.103 0.0533,0.0924 0.0754,0.0754 0.0924,0.0533 0.103,0.0276 h 0.002 l -0.7331,0.7331 0.0271,0.0212 v 0 l 0.2012,0.1088 v 0 l 0.2163,0.0743 0.2256,0.0376 h 0.2287 l 0.2255,-0.0376 0.2163,-0.0743 v 0 l 0.2012,-0.1088 v 0 l 0.0271,-0.0212 v 0 l -0.7331,-0.7331 h 0.002 l 0.103,-0.0276 0.0924,-0.0533 0.0754,-0.0754 0.0533,-0.0924 0.0276,-0.103 v -0.002 l 0.7317,0.7318 0.0811,-0.1241 v 0 l 0.0919,-0.2095 0.0561,-0.2217 0.0189,-0.2279 v 0 l -0.0189,-0.2279 -0.0561,-0.2217 -0.0919,-0.2095 -0.0811,-0.1241 -0.7317,0.7318 v -0.002 l -0.0276,-0.103 -0.0533,-0.0924 -0.0754,-0.0754 -0.0924,-0.0533 -0.103,-0.0276 h -0.002 l 0.7331,-0.7331 v 0 l -0.0271,-0.0211 v -10e-5 l -0.2012,-0.1088 v 0 l -0.2163,-0.0743 -0.2255,-0.0376 h -0.2287 l -0.2256,0.0376 -0.2163,0.0743 v 0 l -0.2012,0.1089 -0.0271,0.0211 v 0 l 0.7331,0.7331 h -0.002 l -0.103,0.0276 -0.0924,0.0533 -0.0754,0.0754 -0.0533,0.0924 -0.0276,0.103 v 0.002 l -0.7317,-0.7318 -0.0811,0.1241 -0.0919,0.2095 -0.0561,0.2217 -0.0189,0.2279 h -0.7799 l -0.0196,-0.2363 -0.0582,-0.2298 -0.0952,-0.2171 -0.1297,-0.1984 v 0 l -0.1605,-0.1745 v 0 l -0.1326,-0.1031 -0.0545,-0.0425 v 0 0 l -0.2085,-0.1128 v 0 l -0.2242,-0.077 -0.2339,-0.039 h -0.237 l -0.2339,0.039 -0.2242,0.077 v 0 l -0.2085,0.1128 -0.1871,0.1456 v 0 l -0.1605,0.1745 -0.1297,0.1984 -0.0952,0.2171 -0.0582,0.2298 -0.0196,0.2363 h -8.7591 v -6.8267 l 0.0197,-0.067 0.0166,-0.0207 0.2692,-0.2691 0.2775,-0.2775 0.0613,-0.0335 0.0697,0.005 0.0479,0.0322 0.1208,0.1312 v 0 0 l 0.1832,0.1426 v 0 0 l 0.0278,0.015 0.0496,0.0493 0.0151,0.0682 -0.0241,0.0655 -0.0285,0.0277 -0.1424,0.0997 v 0 l -0.167,0.167 v 0 l -0.1355,0.1935 v 0 l -0.0998,0.2141 v 0 l -0.0572,0.2135 v 0 h 0.8976 l -0.0329,0.057 -0.0341,0.1272 v 0.1316 l 0.0341,0.1272 0.0329,0.057 h -0.8976 l 0.0572,0.2135 v 0 l 0.0998,0.2141 0.1355,0.1935 0.167,0.167 0.1424,0.0997 0.0437,0.0546 0.007,0.0695 -0.0315,0.0624 -0.0314,0.0242 -0.0278,0.015 v 0 l -0.1832,0.1426 v 0 l -0.1572,0.1708 -0.1269,0.1943 -0.0933,0.2125 -0.0569,0.225 v 0 l -0.0192,0.2313 v 0 l 0.0192,0.2313 v 0 l 0.0569,0.225 0.0933,0.2125 0.1269,0.1943 v 10e-5 0 l 0.1572,0.1707 v 0 0 l 0.1832,0.1426 v 0 0 l 0.2041,0.1104 0.114,0.0392 0.1055,0.0362 v 0 0 l 0.229,0.0382 v 0 h 0.232 v 0 l 0.229,-0.0382 0.2195,-0.0754 0.2041,-0.1104 0.1832,-0.1426 0.155,-0.1684 0.0599,-0.036 0.0313,-0.004 h 1.8833 l 0.1073,-0.0213 0.0522,-0.0104 0.1502,-0.0623 v 0 l 0.0939,-0.0627 0.0413,-0.0276 2.3194,-2.3194 0.0613,-0.0335 0.0264,-0.003 h 4.188 l 0.1073,-0.0213 0.0522,-0.0104 0.1502,-0.0623 v 0 l 0.0808,-0.0539 0.0544,-0.0364 1.8521,-1.8521 0.0614,-0.0335 0.0371,-0.002 0.0232,0.002 v 0 0 0 l 0.0283,-0.002 0.1897,-0.0166 0.2113,-0.0566 0.1983,-0.0925 0.1793,-0.1255 0.1547,-0.1547 0.1255,-0.1793 0.0925,-0.1983 0.0566,-0.2113 0.0191,-0.218 -0.0191,-0.218 -0.0566,-0.2113 -0.0925,-0.1983 v 0 0 l -0.1255,-0.1793 -0.0627,-0.0626 -0.092,-0.0921 -0.1793,-0.1255 v 0 0 l -0.0991,-0.0462 -0.0992,-0.0463 v 0 0 l -0.2113,-0.0572 -0.218,-0.0191 v 0 l -0.1453,0.0127 -0.0727,0.0064 v 0 l -0.2113,0.0566 v 0 l -0.1983,0.0925 v 0 l -0.1793,0.1255 -0.1547,0.1547 -0.1255,0.1793 v 0 l -0.0925,0.1983 v 0 l -0.0566,0.2113 v 0 l -0.0191,0.218 v 0 l 0.002,0.0232 -0.0137,0.0685 -0.0221,0.03 -1.5165,1.5165 -0.0613,0.0335 -0.0264,0.003 h -4.188 l -0.1595,0.0317 v 0 l -0.1502,0.0622 v 10e-5 l -0.1352,0.0903 v 0 l -2.3194,2.3194 -0.0613,0.0335 -0.0264,0.003 h -1.4087 l -0.067,-0.0197 -0.0242,-0.0203 -0.0221,-0.0241 -0.1329,-0.1443 v 0 0 l -0.1832,-0.1426 v 0 l -0.0278,-0.015 -0.0496,-0.0493 -0.0151,-0.0682 0.0241,-0.0655 0.0285,-0.0277 0.1424,-0.0997 0.167,-0.167 0.1355,-0.1935 0.0998,-0.2141 v 0 l 0.0572,-0.2135 h -0.8976 l 0.0329,-0.057 0.0341,-0.1272 v -0.1316 l -0.0341,-0.1272 -0.0329,-0.057 h 0.8976 v 0 l -0.0572,-0.2135 v 0 l -0.0998,-0.2141 v 0 l -0.1355,-0.1935 v 0 l -0.167,-0.167 -0.1424,-0.0997 -0.0437,-0.0546 -0.007,-0.0695 0.0316,-0.0624 0.0314,-0.0242 0.0278,-0.015 0.1832,-0.1426 0.1572,-0.1707 0.1269,-0.1944 0.0933,-0.2125 0.0569,-0.225 0.006,-0.0696 0.0134,-0.1617 v 0 l -0.0192,-0.2313 v 0 l -0.0569,-0.225 -0.0933,-0.2125 -0.1269,-0.1943 v -10e-5 0 l -0.1572,-0.1707 v 0 0 l -0.1832,-0.1426 v 0 l -0.0278,-0.015 -0.0496,-0.0493 -0.0151,-0.0682 0.0241,-0.0655 0.0285,-0.0277 0.1424,-0.0997 0.167,-0.167 0.1355,-0.1935 0.0998,-0.2141 v 0 l 0.0572,-0.2135 h -0.8976 l 0.0329,-0.057 0.0341,-0.1272 v -0.132 l -0.0345,-0.1272 -0.0329,-0.057 h 0.8976 v 0 l -0.0572,-0.2135 v 0 l -0.0998,-0.2141 v 0 l -0.1355,-0.1935 v 0 l -0.0824,-0.0824 -0.0335,-0.0613 0.005,-0.0697 0.0418,-0.056 0.0289,-0.016 0.1244,-0.0491 0.1206,-0.0915 0.0915,-0.1206 0.0555,-0.1407 0.006,-0.0469 0.0275,-0.0642 0.0579,-0.0391 0.0377,-0.0059 h 2.3081 l 0.067,0.0197 0.0207,0.0166 3.1365,3.1365 0.0335,0.0614 0.002,0.0371 -0.002,0.0232 0.0169,0.1931 0.002,0.0249 v 0 l 0.0566,0.2113 v 0 0 l 0.0347,0.0744 0.0578,0.1239 v 0 l 0.1255,0.1793 0.1547,0.1547 0.1793,0.1255 0.1983,0.0925 0.2113,0.0566 0.1829,0.016 0.0351,0.0031 v 0 0 l 0.0283,-0.0025 0.1897,-0.0166 0.2113,-0.0566 0.1983,-0.0925 0.1793,-0.1255 0.1547,-0.1547 0.1255,-0.1793 0.0925,-0.1983 0.0566,-0.2113 0.0191,-0.218 -0.0191,-0.218 -0.0566,-0.2113 -0.0925,-0.1983 v 0 0 l -0.1255,-0.1793 v 0 l -0.1547,-0.1547 -0.1793,-0.1255 v 0 0 l -0.0991,-0.0462 -0.0992,-0.0463 v 0 0 l -0.2112,-0.0566 -0.218,-0.0191 v 0 l -0.0232,0.0021 -0.0685,-0.0138 -0.03,-0.0221 -3.4721,-3.4721 v 0 l -0.1352,-0.0903 v -1e-4 l -0.0204,-0.0084 h 2.334 v 0 l 0.0196,0.2363 0.0582,0.2298 0.0952,0.2171 0.1297,0.1984 0.1605,0.1745 v 0 l 0.1871,0.1456 0.2085,0.1128 0.2242,0.077 0.2339,0.039 h 0.237 l 0.2339,-0.039 0.2242,-0.077 0.2085,-0.1128 0.1871,-0.1456 0.1605,-0.1745 0.1297,-0.1984 0.0952,-0.2171 0.0582,-0.2298 0.0196,-0.2363 v 0 h 0.7292 v 0 l 0.0196,0.2363 0.0582,0.2298 0.0952,0.2171 0.1297,0.1984 0.1605,0.1745 v 0 l 0.1871,0.1456 0.2085,0.1128 0.2242,0.077 0.2339,0.039 h 0.237 l 0.2339,-0.039 0.2242,-0.077 0.2085,-0.1128 0.1871,-0.1456 0.1605,-0.1745 0.1297,-0.1984 0.0952,-0.2171 0.0582,-0.2298 0.0196,-0.2363 -0.007,-0.0855 -0.0125,-0.1508 v 0 l -0.0582,-0.2298 -0.0161,-0.0368 -0.0791,-0.1803 -0.1297,-0.1984 -0.1605,-0.1745 v 0 l -0.1871,-0.1456 -0.2085,-0.1128 v 0 l -0.2242,-0.077 -0.2339,-0.039 h -0.237 l -0.2339,0.039 -0.2242,0.077 v 0 l -0.2085,0.1128 -0.1871,0.1456 v 0 l -0.1605,0.1745 -0.1297,0.1984 -0.0952,0.2171 -0.0582,0.2298 -0.0196,0.2363 h -0.7292 l -0.007,-0.0855 -0.0125,-0.1508 v 0 l -0.0582,-0.2298 -0.0161,-0.0368 -0.0791,-0.1803 -0.1297,-0.1984 -0.1605,-0.1745 v 0 l -0.1871,-0.1456 -0.2085,-0.1128 v 0 l -0.2242,-0.077 -0.2339,-0.039 h -0.237 l -0.2339,0.039 -0.2242,0.077 v 0 l -0.2085,0.1128 -0.1871,0.1456 v 0 l -0.1605,0.1745 -0.1297,0.1984 -0.0952,0.2171 -0.0582,0.2298 -0.0196,0.2363 h -2.334 l -0.1298,-0.0538 v 0 l -0.1595,-0.0317 v 0 h -2.7827 l -0.067,-0.0197 -0.0458,-0.0528 -0.0103,-0.0367 -0.006,-0.0469 -0.0555,-0.1407 v 0 0 l -0.0915,-0.1206 -0.1206,-0.0915 -0.1407,-0.0555 -0.0457,-0.0055 -0.0428,-0.0051 h -1.7862 l -0.039,0.0047 -0.0495,0.0059 -0.1407,0.0555 -0.1206,0.0915 -0.0915,0.1206 -0.0555,0.1407 -0.006,0.0469 -0.005,0.0416 v 1.7862 l 0.005,0.0416 0.006,0.0469 0.0555,0.1407 0.0915,0.1206 0.1206,0.0915 v 0 0 l 0.1244,0.0491 0.0552,0.0429 0.0232,0.0659 -0.0161,0.0679 -0.0201,0.0263 -0.0824,0.0824 -0.1355,0.1935 v 0 l -0.0998,0.2141 v 0 l -0.0572,0.2135 v 0 h 0.8976 l -0.0329,0.057 -0.0341,0.1272 v 0.1316 l 0.0341,0.1272 0.0329,0.057 h -0.8976 l 0.0572,0.2135 v 0 l 0.0998,0.2141 0.1355,0.1935 0.167,0.167 0.1424,0.0997 0.0437,0.0546 0.007,0.0695 -0.0315,0.0624 -0.0314,0.0242 -0.0278,0.015 v 0 l -0.1832,0.1426 v 0 l -0.155,0.1684 -0.0599,0.036 -0.0313,0.004 h -0.4033 l -0.1595,0.0317 v 0 l -0.1502,0.0622 v 10e-5 l -0.1352,0.0903 v 0 l -1.0975,1.0975 -0.0425,0.0425 -0.0575,0.0575 -0.0575,0.0575 v 0 l -0.0903,0.1352 v 0 l -0.0623,0.1502 v 0 l -0.0317,0.1595 v 8.187 l -0.0197,0.067 -0.0166,0.0206 -0.0998,0.0998 -0.1255,0.1793 v 0 l -0.0925,0.1983 v 0 l -0.0566,0.2113 v 0 l -0.0191,0.218 h -1.7142 v -3.3105 -16.3495 h 12.5541 v 0 l 0.0196,0.2363 0.0582,0.2298 0.0952,0.2171 0.1297,0.1984 0.1605,0.1745 v 0 l 0.1871,0.1456 0.2085,0.1128 0.2242,0.077 0.2339,0.039 h 0.237 l 0.2339,-0.039 0.2242,-0.077 0.2085,-0.1128 0.1871,-0.1456 0.1605,-0.1745 0.1297,-0.1984 0.0952,-0.2171 0.0582,-0.2298 0.0196,-0.2363 v 0 h 0.7799 v 0 l 0.0189,0.2279 0.0561,0.2217 0.0919,0.2095 0.0811,0.1241 0.7317,-0.7318 v 0.0019 l 0.0276,0.103 0.0533,0.0924 0.0754,0.0754 0.0924,0.0533 0.103,0.0276 h 0.002 l -0.7331,0.7331 0.0271,0.0212 v 0 l 0.2012,0.1088 v 0 l 0.2163,0.0743 0.2256,0.0376 h 0.2287 l 0.2255,-0.0376 0.2163,-0.0743 v 0 l 0.2012,-0.1088 v 0 l 0.0271,-0.0212 v 0 l -0.7331,-0.7331 h 0.002 l 0.103,-0.0276 0.0924,-0.0533 0.0754,-0.0754 0.0533,-0.0924 0.0276,-0.103 v -0.0019 l 0.7317,0.7318 0.0811,-0.1241 v 0 l 0.0919,-0.2095 0.0561,-0.2217 0.0189,-0.2279 v 0 l -0.0189,-0.2279 -0.0561,-0.2217 -0.0919,-0.2095 -0.0811,-0.1241 -0.7317,0.7318 v -0.0019 l -0.0276,-0.103 -0.0533,-0.0924 -0.0754,-0.0754 -0.0924,-0.0533 -0.103,-0.0276 h -0.002 l 0.7331,-0.7331 v 0 l -0.0271,-0.0211 v -10e-5 l -0.2012,-0.1088 v 0 l -0.2163,-0.0743 -0.2255,-0.0376 h -0.2287 l -0.2256,0.0376 -0.2163,0.0743 v 0 l -0.2012,0.1089 -0.0271,0.0211 v 0 l 0.7331,0.7331 h -0.002 l -0.103,0.0276 -0.0924,0.0533 -0.0754,0.0754 -0.0533,0.0924 -0.0276,0.103 v 0.0019 l -0.7317,-0.7318 -0.0811,0.1241 -0.0919,0.2095 -0.0561,0.2217 -0.0189,0.2279 h -0.7799 l -0.0196,-0.2363 -0.0582,-0.2298 -0.0952,-0.2171 -0.1297,-0.1984 v 0 l -0.1605,-0.1745 v 0 l -0.1326,-0.1031 -0.0545,-0.0425 v 0 0 l -0.2085,-0.1128 v 0 l -0.2242,-0.077 -0.2339,-0.039 h -0.237 l -0.2339,0.039 -0.2242,0.077 v 0 l -0.2085,0.1128 -0.1871,0.1456 v 0 l -0.1605,0.1745 -0.1297,0.1984 -0.0952,0.2171 -0.0582,0.2298 -0.0196,0.2363 H 3.59005 v -6.5573 l 10e-5,-0.0054 0.0171,-0.391 9e-4,-0.0108 0.0508,-0.3854 0.002,-0.0106 0.0842,-0.3795 0.003,-0.0104 0.1169,-0.3707 0.004,-0.0102 0.1488,-0.3591 0.005,-0.0098 0.1794,-0.3448 0.005,-0.0093 0.2089,-0.3278 0.006,-0.0089 0.2366,-0.3084 0.007,-0.0082 0.2626,-0.2866 0.008,-0.0076 0.2866,-0.2626 0.008,-0.007 0.3084,-0.2366 0.009,-0.0062 0.3278,-0.2089 0.009,-0.0054 0.3447,-0.1794 0.01,-0.0046 0.3591,-0.1488 0.0102,-0.0036 0.3707,-0.1169 0.0104,-0.0028 0.3795,-0.0842 0.0106,-0.0018 0.3854,-0.0508 0.0108,-9e-4 0.3911,-0.0171 0.005,-1e-4 h 0.0632 18.5282 0.0632 z"
       id="path972-3" />
  </g>
  <circle
     cx="6.5598502"
     cy="33.479954"
     r="0.405"
     id="circle972"
     style="display:none;fill:#ffffff;fill-opacity:1;stroke:none" />
  <circle
     cx="17.559851"
     cy="22.279949"
     r="0.405"
     id="circle973"
     style="display:none;fill:#ffffff;fill-opacity:1;stroke:none" />
  <circle
     cx="10.259847"
     cy="13.779948"
     r="0.405"
     id="circle974"
     style="display:none;fill:#ffffff;fill-opacity:1;stroke:none" />
  <circle
     cx="21.759848"
     cy="23.279949"
     r="0.405"
     id="circle975"
     style="display:none;fill:#ffffff;fill-opacity:1;stroke:none" />
  <circle
     cx="9.2198534"
     cy="18.159954"
     r="0.5"
     id="circle976"
     style="display:none;fill:#ffffff;fill-opacity:1;stroke:none" />
  <circle
     cx="9.2198534"
     cy="20.699947"
     r="0.5"
     id="circle977"
     style="display:none;fill:#ffffff;fill-opacity:1;stroke:none" />
  <circle
     cx="9.2198534"
     cy="23.239948"
     r="0.5"
     id="circle978"
     style="display:none;fill:#ffffff;fill-opacity:1;stroke:none" />
  <circle
     cx="9.2198534"
     cy="25.779949"
     r="0.5"
     id="circle979"
     style="display:none;fill:#ffffff;fill-opacity:1;stroke:none" />
  <circle
     cx="9.2198534"
     cy="28.31995"
     r="0.5"
     id="circle980"
     style="display:none;fill:#ffffff;fill-opacity:1;stroke:none" />
  <circle
     cx="21.179846"
     cy="13.819949"
     r="0.405"
     id="circle981"
     style="display:none;fill:#ffffff;fill-opacity:1;stroke:none" />
  <circle
     cx="21.179846"
     cy="17.419949"
     r="0.405"
     id="circle982"
     style="display:none;fill:#ffffff;fill-opacity:1;stroke:none" />
  <circle
     cx="17.579855"
     cy="17.419949"
     r="0.405"
     id="circle983"
     style="display:none;fill:#ffffff;fill-opacity:1;stroke:none" />
  <circle
     cx="17.579855"
     cy="13.819949"
     r="0.405"
     id="circle984"
     style="display:none;fill:#ffffff;fill-opacity:1;stroke:none" />
  <circle
     cx="21.179846"
     cy="31.599949"
     r="0.405"
     id="circle985"
     style="display:none;fill:#ffffff;fill-opacity:1;stroke:none" />
  <circle
     cx="21.179846"
     cy="35.199947"
     r="0.405"
     id="circle986"
     style="display:none;fill:#ffffff;fill-opacity:1;stroke:none" />
  <circle
     cx="17.579855"
     cy="35.199947"
     r="0.405"
     id="circle987"
     style="display:none;fill:#ffffff;fill-opacity:1;stroke:none" />
  <circle
     cx="17.579855"
     cy="31.599949"
     r="0.405"
     id="circle988"
     style="display:none;fill:#ffffff;fill-opacity:1;stroke:none" />
  <g
     inkscape:groupmode="layer"
     id="layer6"
     inkscape:label="tracesBC" />
</svg>
