%TF.GenerationSoftware,KiCad,Pcbnew,8.0.4*%
%TF.CreationDate,2024-09-05T17:41:26+02:00*%
%TF.ProjectId,TGS2600,54475332-3630-4302-9e6b-696361645f70,rev?*%
%TF.SameCoordinates,Original*%
%TF.FileFunction,Copper,L1,Top*%
%TF.FilePolarity,Positive*%
%FSLAX46Y46*%
G04 Gerber Fmt 4.6, Leading zero omitted, Abs format (unit mm)*
G04 Created by KiCad (PCBNEW 8.0.4) date 2024-09-05 17:41:26*
%MOMM*%
%LPD*%
G01*
G04 APERTURE LIST*
G04 Aperture macros list*
%AMRoundRect*
0 Rectangle with rounded corners*
0 $1 Rounding radius*
0 $2 $3 $4 $5 $6 $7 $8 $9 X,Y pos of 4 corners*
0 Add a 4 corners polygon primitive as box body*
4,1,4,$2,$3,$4,$5,$6,$7,$8,$9,$2,$3,0*
0 Add four circle primitives for the rounded corners*
1,1,$1+$1,$2,$3*
1,1,$1+$1,$4,$5*
1,1,$1+$1,$6,$7*
1,1,$1+$1,$8,$9*
0 Add four rect primitives between the rounded corners*
20,1,$1+$1,$2,$3,$4,$5,0*
20,1,$1+$1,$4,$5,$6,$7,0*
20,1,$1+$1,$6,$7,$8,$9,0*
20,1,$1+$1,$8,$9,$2,$3,0*%
G04 Aperture macros list end*
%TA.AperFunction,SMDPad,CuDef*%
%ADD10RoundRect,0.250000X-0.625000X0.312500X-0.625000X-0.312500X0.625000X-0.312500X0.625000X0.312500X0*%
%TD*%
%TA.AperFunction,ComponentPad*%
%ADD11C,5.600000*%
%TD*%
%TA.AperFunction,ComponentPad*%
%ADD12R,1.700000X1.700000*%
%TD*%
%TA.AperFunction,ComponentPad*%
%ADD13O,1.700000X1.700000*%
%TD*%
%TA.AperFunction,ComponentPad*%
%ADD14C,1.760000*%
%TD*%
%TA.AperFunction,Conductor*%
%ADD15C,0.550000*%
%TD*%
G04 APERTURE END LIST*
D10*
%TO.P,R1,1*%
%TO.N,GND*%
X156740000Y-88397500D03*
%TO.P,R1,2*%
%TO.N,Vout1*%
X156740000Y-91322500D03*
%TD*%
D11*
%TO.P,H2,1*%
%TO.N,N/C*%
X2102100882Y-2113500000D03*
%TD*%
D12*
%TO.P,J1,1,Pin_1*%
%TO.N,Vin*%
X137160000Y-93968250D03*
D13*
%TO.P,J1,2,Pin_2*%
%TO.N,GND*%
X137160000Y-96508250D03*
%TO.P,J1,3,Pin_3*%
%TO.N,Vout1*%
X137160000Y-99048250D03*
%TO.P,J1,4,Pin_4*%
%TO.N,GND*%
X137160000Y-101588250D03*
%TO.P,J1,5,Pin_5*%
%TO.N,Vout2*%
X137160000Y-104128250D03*
%TD*%
D10*
%TO.P,R2,1*%
%TO.N,GND*%
X156740000Y-106177500D03*
%TO.P,R2,2*%
%TO.N,Vout2*%
X156740000Y-109102500D03*
%TD*%
D11*
%TO.P,H1,1*%
%TO.N,N/C*%
X2102100882Y-2115135397D03*
%TD*%
D14*
%TO.P,U1,1,GND*%
%TO.N,GND*%
X149120000Y-89640000D03*
%TO.P,U1,2,Vout*%
%TO.N,Vout1*%
X149120000Y-93240000D03*
%TO.P,U1,3,Vin*%
%TO.N,Vin*%
X145520000Y-93240000D03*
%TO.P,U1,4,Vin*%
X145520000Y-89640000D03*
%TD*%
%TO.P,U2,1,GND*%
%TO.N,GND*%
X149120000Y-107420000D03*
%TO.P,U2,2,Vout*%
%TO.N,Vout2*%
X149120000Y-111020000D03*
%TO.P,U2,3,Vin*%
%TO.N,Vin*%
X145520000Y-111020000D03*
%TO.P,U2,4,Vin*%
X145520000Y-107420000D03*
%TD*%
D15*
%TO.N,GND*%
X134170000Y-98000000D02*
X134170000Y-100210000D01*
X149120000Y-107410000D02*
X149120000Y-107420000D01*
X155700000Y-103700000D02*
X152830000Y-103700000D01*
X156740000Y-104740000D02*
X155700000Y-103700000D01*
X156760000Y-104740000D02*
X158800000Y-102700000D01*
X158800000Y-102700000D02*
X158800000Y-88800000D01*
X137160000Y-96520000D02*
X139420000Y-96520000D01*
X134170000Y-100210000D02*
X135548250Y-101588250D01*
X135548250Y-101588250D02*
X144878250Y-101588250D01*
X135661750Y-96508250D02*
X134170000Y-98000000D01*
X156740000Y-104740000D02*
X156760000Y-104740000D01*
X158160000Y-88160000D02*
X156740000Y-88160000D01*
X149150000Y-89620000D02*
X149120000Y-89620000D01*
X156740000Y-88140000D02*
X156740000Y-86940000D01*
X147940000Y-104650000D02*
X147940000Y-106240000D01*
X158800000Y-88800000D02*
X158160000Y-88160000D01*
X149800000Y-84500000D02*
X141000000Y-84500000D01*
X141000000Y-84500000D02*
X141000000Y-95000000D01*
X155700000Y-85900000D02*
X151200000Y-85900000D01*
X137160000Y-96508250D02*
X135661750Y-96508250D01*
X150380000Y-86720000D02*
X150380000Y-88390000D01*
X144878250Y-101588250D02*
X147940000Y-104650000D01*
X139480000Y-96520000D02*
X137160000Y-96520000D01*
X156740000Y-105940000D02*
X156740000Y-104740000D01*
X156740000Y-86940000D02*
X155700000Y-85900000D01*
X141000000Y-95000000D02*
X139480000Y-96520000D01*
X150380000Y-88390000D02*
X149150000Y-89620000D01*
X151200000Y-85900000D02*
X150380000Y-86720000D01*
X151200000Y-85900000D02*
X149800000Y-84500000D01*
X147940000Y-106240000D02*
X149120000Y-107420000D01*
X152830000Y-103700000D02*
X149120000Y-107410000D01*
%TO.N,Vout1*%
X149120000Y-95780000D02*
X149120000Y-93240000D01*
X155100000Y-96000000D02*
X156740000Y-94360000D01*
X146071750Y-99048250D02*
X149120000Y-96000000D01*
X149120000Y-93240000D02*
X149120000Y-96000000D01*
X156740000Y-94360000D02*
X156740000Y-91540000D01*
X137160000Y-99048250D02*
X146071750Y-99048250D01*
X151900000Y-96000000D02*
X155100000Y-96000000D01*
X149120000Y-96000000D02*
X151900000Y-96000000D01*
%TO.N,Vout2*%
X137160000Y-104128250D02*
X137160000Y-112580000D01*
X156740000Y-112160000D02*
X156740000Y-109340000D01*
X149120000Y-113340000D02*
X149160000Y-113380000D01*
X155520000Y-113380000D02*
X156740000Y-112160000D01*
X149120000Y-113340000D02*
X149120000Y-112870000D01*
X149120000Y-112870000D02*
X149120000Y-111020000D01*
X147490000Y-114970000D02*
X149120000Y-113340000D01*
X137160000Y-112580000D02*
X139550000Y-114970000D01*
X149160000Y-113380000D02*
X155520000Y-113380000D01*
X139550000Y-114970000D02*
X147490000Y-114970000D01*
%TD*%
%TA.AperFunction,Conductor*%
%TO.N,GND*%
G36*
X154772704Y-78500617D02*
G01*
X155163744Y-78517691D01*
X155174481Y-78518631D01*
X155559856Y-78569366D01*
X155570494Y-78571241D01*
X155949986Y-78655373D01*
X155960426Y-78658171D01*
X156331120Y-78775050D01*
X156341281Y-78778748D01*
X156700385Y-78927494D01*
X156710180Y-78932062D01*
X157054966Y-79111546D01*
X157064306Y-79116939D01*
X157334434Y-79289030D01*
X157392123Y-79325782D01*
X157400984Y-79331986D01*
X157709354Y-79568606D01*
X157717641Y-79575560D01*
X158004204Y-79838147D01*
X158011853Y-79845796D01*
X158274440Y-80132360D01*
X158281394Y-80140647D01*
X158518008Y-80449008D01*
X158524213Y-80457869D01*
X158733058Y-80785690D01*
X158738466Y-80795058D01*
X158917935Y-81139814D01*
X158922507Y-81149618D01*
X159071249Y-81508714D01*
X159074949Y-81518879D01*
X159191828Y-81889572D01*
X159194628Y-81900021D01*
X159278756Y-82279498D01*
X159280634Y-82290151D01*
X159331367Y-82675499D01*
X159332310Y-82686276D01*
X159349383Y-83077333D01*
X159349501Y-83082742D01*
X159349500Y-113494107D01*
X159349500Y-113557293D01*
X159349382Y-113562702D01*
X159332310Y-113953723D01*
X159331367Y-113964500D01*
X159280634Y-114349848D01*
X159278756Y-114360501D01*
X159194628Y-114739978D01*
X159191828Y-114750427D01*
X159074949Y-115121120D01*
X159071249Y-115131285D01*
X158922507Y-115490381D01*
X158917935Y-115500185D01*
X158738465Y-115844942D01*
X158733057Y-115854310D01*
X158524213Y-116182130D01*
X158518008Y-116190991D01*
X158281394Y-116499353D01*
X158274440Y-116507640D01*
X158011853Y-116794204D01*
X158004204Y-116801853D01*
X157717640Y-117064440D01*
X157709353Y-117071394D01*
X157400991Y-117308008D01*
X157392130Y-117314213D01*
X157064310Y-117523057D01*
X157054942Y-117528465D01*
X156710185Y-117707935D01*
X156700381Y-117712507D01*
X156341285Y-117861249D01*
X156331120Y-117864949D01*
X155960427Y-117981828D01*
X155949978Y-117984628D01*
X155570501Y-118068756D01*
X155559848Y-118070634D01*
X155174500Y-118121367D01*
X155163723Y-118122310D01*
X154772703Y-118139382D01*
X154767294Y-118139500D01*
X136112706Y-118139500D01*
X136107297Y-118139382D01*
X135716276Y-118122310D01*
X135705501Y-118121367D01*
X135616792Y-118109688D01*
X135320151Y-118070634D01*
X135309498Y-118068756D01*
X134930021Y-117984628D01*
X134919572Y-117981828D01*
X134548879Y-117864949D01*
X134538714Y-117861249D01*
X134179618Y-117712507D01*
X134169814Y-117707935D01*
X133825057Y-117528465D01*
X133815689Y-117523057D01*
X133487869Y-117314213D01*
X133479008Y-117308008D01*
X133170646Y-117071394D01*
X133162359Y-117064440D01*
X132875795Y-116801853D01*
X132868146Y-116794204D01*
X132605559Y-116507640D01*
X132598605Y-116499353D01*
X132361991Y-116190991D01*
X132355786Y-116182130D01*
X132146942Y-115854310D01*
X132141534Y-115844942D01*
X132099282Y-115763777D01*
X131962061Y-115500178D01*
X131957492Y-115490381D01*
X131808744Y-115131270D01*
X131805055Y-115121135D01*
X131688168Y-114750416D01*
X131685374Y-114739990D01*
X131601241Y-114360493D01*
X131599365Y-114349848D01*
X131548630Y-113964477D01*
X131547690Y-113953742D01*
X131530618Y-113562701D01*
X131530500Y-113557293D01*
X131530500Y-113494108D01*
X131530500Y-105927500D01*
X131530500Y-99048243D01*
X135754700Y-99048243D01*
X135754700Y-99048256D01*
X135773864Y-99279547D01*
X135773866Y-99279558D01*
X135830842Y-99504550D01*
X135924075Y-99717098D01*
X136051016Y-99911397D01*
X136051019Y-99911401D01*
X136051021Y-99911403D01*
X136208216Y-100082163D01*
X136208219Y-100082165D01*
X136208222Y-100082168D01*
X136391365Y-100224714D01*
X136391371Y-100224718D01*
X136391374Y-100224720D01*
X136419227Y-100239793D01*
X136468817Y-100289013D01*
X136483925Y-100357229D01*
X136459755Y-100422785D01*
X136431332Y-100450423D01*
X136288927Y-100550136D01*
X136288920Y-100550141D01*
X136121891Y-100717170D01*
X136121886Y-100717176D01*
X135986400Y-100910670D01*
X135986399Y-100910672D01*
X135886570Y-101124757D01*
X135886567Y-101124763D01*
X135829364Y-101338249D01*
X135829364Y-101338250D01*
X136726988Y-101338250D01*
X136694075Y-101395257D01*
X136660000Y-101522424D01*
X136660000Y-101654076D01*
X136694075Y-101781243D01*
X136726988Y-101838250D01*
X135829364Y-101838250D01*
X135886567Y-102051736D01*
X135886570Y-102051742D01*
X135986399Y-102265828D01*
X136121894Y-102459332D01*
X136288917Y-102626355D01*
X136431332Y-102726076D01*
X136474957Y-102780653D01*
X136482149Y-102850152D01*
X136450627Y-102912506D01*
X136419230Y-102936704D01*
X136391371Y-102951781D01*
X136391365Y-102951785D01*
X136208222Y-103094331D01*
X136208219Y-103094334D01*
X136051016Y-103265102D01*
X135924075Y-103459401D01*
X135830842Y-103671949D01*
X135773866Y-103896941D01*
X135773864Y-103896952D01*
X135754700Y-104128243D01*
X135754700Y-104128256D01*
X135773864Y-104359547D01*
X135773866Y-104359558D01*
X135830842Y-104584550D01*
X135924075Y-104797098D01*
X136051016Y-104991397D01*
X136051019Y-104991401D01*
X136051021Y-104991403D01*
X136208216Y-105162163D01*
X136286662Y-105223220D01*
X136327475Y-105279929D01*
X136334500Y-105321073D01*
X136334500Y-112498695D01*
X136334500Y-112661305D01*
X136334500Y-112661307D01*
X136334499Y-112661307D01*
X136366222Y-112820783D01*
X136366225Y-112820793D01*
X136428450Y-112971019D01*
X136428452Y-112971023D01*
X136518788Y-113106220D01*
X136518794Y-113106228D01*
X139023768Y-115611203D01*
X139023775Y-115611209D01*
X139158976Y-115701547D01*
X139158980Y-115701549D01*
X139309206Y-115763774D01*
X139309211Y-115763776D01*
X139309215Y-115763776D01*
X139309216Y-115763777D01*
X139468692Y-115795500D01*
X139468695Y-115795500D01*
X147571307Y-115795500D01*
X147678598Y-115774157D01*
X147730789Y-115763776D01*
X147881021Y-115701548D01*
X147881023Y-115701547D01*
X147948169Y-115656680D01*
X148016225Y-115611208D01*
X149385614Y-114241819D01*
X149446937Y-114208334D01*
X149473295Y-114205500D01*
X155601307Y-114205500D01*
X155708598Y-114184157D01*
X155760789Y-114173776D01*
X155911021Y-114111548D01*
X155911023Y-114111547D01*
X155978169Y-114066680D01*
X156046225Y-114021208D01*
X157381208Y-112686225D01*
X157426680Y-112618169D01*
X157471547Y-112551023D01*
X157471549Y-112551019D01*
X157521469Y-112430500D01*
X157533776Y-112400789D01*
X157565500Y-112241305D01*
X157565500Y-112078694D01*
X157565500Y-110280917D01*
X157585185Y-110213878D01*
X157637989Y-110168123D01*
X157648546Y-110163875D01*
X157652553Y-110162472D01*
X157714522Y-110140789D01*
X157867262Y-110044816D01*
X157994816Y-109917262D01*
X158090789Y-109764522D01*
X158150368Y-109594255D01*
X158165500Y-109459954D01*
X158165500Y-108745046D01*
X158159083Y-108688095D01*
X158150369Y-108610750D01*
X158150368Y-108610745D01*
X158131946Y-108558099D01*
X158090789Y-108440478D01*
X157994816Y-108287738D01*
X157867262Y-108160184D01*
X157714523Y-108064211D01*
X157544254Y-108004631D01*
X157544249Y-108004630D01*
X157409960Y-107989500D01*
X157409954Y-107989500D01*
X156070046Y-107989500D01*
X156070039Y-107989500D01*
X155935750Y-108004630D01*
X155935745Y-108004631D01*
X155765476Y-108064211D01*
X155612737Y-108160184D01*
X155485184Y-108287737D01*
X155389211Y-108440476D01*
X155329631Y-108610745D01*
X155329630Y-108610750D01*
X155314500Y-108745039D01*
X155314500Y-109459960D01*
X155329630Y-109594249D01*
X155329631Y-109594254D01*
X155389211Y-109764523D01*
X155423019Y-109818327D01*
X155485184Y-109917262D01*
X155612738Y-110044816D01*
X155765478Y-110140789D01*
X155831454Y-110163875D01*
X155888230Y-110204597D01*
X155913978Y-110269549D01*
X155914500Y-110280917D01*
X155914500Y-111766705D01*
X155894815Y-111833744D01*
X155878181Y-111854386D01*
X155214386Y-112518181D01*
X155153063Y-112551666D01*
X155126705Y-112554500D01*
X150069500Y-112554500D01*
X150002461Y-112534815D01*
X149956706Y-112482011D01*
X149945500Y-112430500D01*
X149945500Y-112250838D01*
X149965185Y-112183799D01*
X149993333Y-112152988D01*
X150092172Y-112076060D01*
X150252735Y-111901643D01*
X150382399Y-111703176D01*
X150477629Y-111486075D01*
X150535826Y-111256260D01*
X150555403Y-111020000D01*
X150535826Y-110783740D01*
X150477629Y-110553925D01*
X150382399Y-110336824D01*
X150302075Y-110213878D01*
X150252734Y-110138355D01*
X150092175Y-109963943D01*
X150092172Y-109963940D01*
X149905088Y-109818327D01*
X149696595Y-109705496D01*
X149696587Y-109705493D01*
X149472373Y-109628520D01*
X149238535Y-109589500D01*
X149001465Y-109589500D01*
X148767626Y-109628520D01*
X148543412Y-109705493D01*
X148543404Y-109705496D01*
X148334911Y-109818327D01*
X148147827Y-109963940D01*
X148147824Y-109963943D01*
X147987265Y-110138355D01*
X147857600Y-110336824D01*
X147762370Y-110553924D01*
X147704173Y-110783743D01*
X147684597Y-111019994D01*
X147684597Y-111020005D01*
X147704173Y-111256256D01*
X147762370Y-111486075D01*
X147857600Y-111703175D01*
X147987265Y-111901644D01*
X148147818Y-112076050D01*
X148147822Y-112076054D01*
X148147828Y-112076060D01*
X148246664Y-112152987D01*
X148287475Y-112209695D01*
X148294500Y-112250838D01*
X148294500Y-112946705D01*
X148274815Y-113013744D01*
X148258181Y-113034386D01*
X147184386Y-114108181D01*
X147123063Y-114141666D01*
X147096705Y-114144500D01*
X139943296Y-114144500D01*
X139876257Y-114124815D01*
X139855615Y-114108181D01*
X138021819Y-112274385D01*
X137988334Y-112213062D01*
X137985500Y-112186704D01*
X137985500Y-111019994D01*
X144084597Y-111019994D01*
X144084597Y-111020005D01*
X144104173Y-111256256D01*
X144162370Y-111486075D01*
X144257600Y-111703175D01*
X144387265Y-111901644D01*
X144547824Y-112076056D01*
X144547828Y-112076060D01*
X144734909Y-112221671D01*
X144943405Y-112334504D01*
X145167629Y-112411480D01*
X145401465Y-112450500D01*
X145638535Y-112450500D01*
X145872371Y-112411480D01*
X146096595Y-112334504D01*
X146305091Y-112221671D01*
X146492172Y-112076060D01*
X146652735Y-111901643D01*
X146782399Y-111703176D01*
X146877629Y-111486075D01*
X146935826Y-111256260D01*
X146955403Y-111020000D01*
X146935826Y-110783740D01*
X146877629Y-110553925D01*
X146782399Y-110336824D01*
X146702075Y-110213878D01*
X146652734Y-110138355D01*
X146492175Y-109963943D01*
X146492172Y-109963940D01*
X146305088Y-109818327D01*
X146096595Y-109705496D01*
X146096587Y-109705493D01*
X145872373Y-109628520D01*
X145638535Y-109589500D01*
X145401465Y-109589500D01*
X145167626Y-109628520D01*
X144943412Y-109705493D01*
X144943404Y-109705496D01*
X144734911Y-109818327D01*
X144547827Y-109963940D01*
X144547824Y-109963943D01*
X144387265Y-110138355D01*
X144257600Y-110336824D01*
X144162370Y-110553924D01*
X144104173Y-110783743D01*
X144084597Y-111019994D01*
X137985500Y-111019994D01*
X137985500Y-107419994D01*
X144084597Y-107419994D01*
X144084597Y-107420005D01*
X144104173Y-107656256D01*
X144162370Y-107886075D01*
X144257600Y-108103175D01*
X144387265Y-108301644D01*
X144515070Y-108440476D01*
X144547828Y-108476060D01*
X144734909Y-108621671D01*
X144943405Y-108734504D01*
X145167629Y-108811480D01*
X145401465Y-108850500D01*
X145638535Y-108850500D01*
X145872371Y-108811480D01*
X146096595Y-108734504D01*
X146305091Y-108621671D01*
X146492172Y-108476060D01*
X146652735Y-108301643D01*
X146782399Y-108103176D01*
X146877629Y-107886075D01*
X146935826Y-107656260D01*
X146955403Y-107420000D01*
X146955403Y-107419994D01*
X147735270Y-107419994D01*
X147735270Y-107420005D01*
X147754155Y-107647915D01*
X147810297Y-107869619D01*
X147902164Y-108079055D01*
X147983261Y-108203184D01*
X148715000Y-107471445D01*
X148715000Y-107473319D01*
X148742600Y-107576324D01*
X148795919Y-107668676D01*
X148871324Y-107744081D01*
X148963676Y-107797400D01*
X149066681Y-107825000D01*
X149068553Y-107825000D01*
X148335452Y-108558100D01*
X148362626Y-108579251D01*
X148362629Y-108579253D01*
X148563753Y-108688095D01*
X148563764Y-108688100D01*
X148780066Y-108762357D01*
X149005650Y-108800000D01*
X149234350Y-108800000D01*
X149459933Y-108762357D01*
X149676235Y-108688100D01*
X149676246Y-108688095D01*
X149877370Y-108579253D01*
X149877374Y-108579250D01*
X149904546Y-108558101D01*
X149904547Y-108558099D01*
X149171448Y-107825000D01*
X149173319Y-107825000D01*
X149276324Y-107797400D01*
X149368676Y-107744081D01*
X149444081Y-107668676D01*
X149497400Y-107576324D01*
X149525000Y-107473319D01*
X149525000Y-107471447D01*
X150256737Y-108203184D01*
X150337831Y-108079062D01*
X150337836Y-108079054D01*
X150429702Y-107869619D01*
X150485844Y-107647915D01*
X150504730Y-107420005D01*
X150504730Y-107419994D01*
X150485844Y-107192084D01*
X150429702Y-106970380D01*
X150337835Y-106760944D01*
X150256737Y-106636814D01*
X149525000Y-107368551D01*
X149525000Y-107366681D01*
X149497400Y-107263676D01*
X149444081Y-107171324D01*
X149368676Y-107095919D01*
X149276324Y-107042600D01*
X149173319Y-107015000D01*
X149171447Y-107015000D01*
X149646459Y-106539986D01*
X155365001Y-106539986D01*
X155375494Y-106642697D01*
X155430641Y-106809119D01*
X155430643Y-106809124D01*
X155522684Y-106958345D01*
X155646654Y-107082315D01*
X155795875Y-107174356D01*
X155795880Y-107174358D01*
X155962302Y-107229505D01*
X155962309Y-107229506D01*
X156065019Y-107239999D01*
X156489999Y-107239999D01*
X156990000Y-107239999D01*
X157414972Y-107239999D01*
X157414986Y-107239998D01*
X157517697Y-107229505D01*
X157684119Y-107174358D01*
X157684124Y-107174356D01*
X157833345Y-107082315D01*
X157957315Y-106958345D01*
X158049356Y-106809124D01*
X158049358Y-106809119D01*
X158104505Y-106642697D01*
X158104506Y-106642690D01*
X158114999Y-106539986D01*
X158115000Y-106539973D01*
X158115000Y-106427500D01*
X156990000Y-106427500D01*
X156990000Y-107239999D01*
X156489999Y-107239999D01*
X156490000Y-107239998D01*
X156490000Y-106427500D01*
X155365001Y-106427500D01*
X155365001Y-106539986D01*
X149646459Y-106539986D01*
X149904546Y-106281898D01*
X149904546Y-106281897D01*
X149877378Y-106260751D01*
X149877373Y-106260748D01*
X149676246Y-106151904D01*
X149676235Y-106151899D01*
X149459933Y-106077642D01*
X149234350Y-106040000D01*
X149005650Y-106040000D01*
X148780066Y-106077642D01*
X148563764Y-106151899D01*
X148563758Y-106151901D01*
X148362616Y-106260755D01*
X148335452Y-106281896D01*
X148335451Y-106281898D01*
X149068554Y-107015000D01*
X149066681Y-107015000D01*
X148963676Y-107042600D01*
X148871324Y-107095919D01*
X148795919Y-107171324D01*
X148742600Y-107263676D01*
X148715000Y-107366681D01*
X148715000Y-107368554D01*
X147983260Y-106636814D01*
X147902165Y-106760941D01*
X147810297Y-106970380D01*
X147754155Y-107192084D01*
X147735270Y-107419994D01*
X146955403Y-107419994D01*
X146935826Y-107183740D01*
X146881796Y-106970380D01*
X146877629Y-106953924D01*
X146782399Y-106736824D01*
X146652734Y-106538355D01*
X146492175Y-106363943D01*
X146492172Y-106363940D01*
X146359600Y-106260755D01*
X146305091Y-106218329D01*
X146305089Y-106218328D01*
X146305088Y-106218327D01*
X146096595Y-106105496D01*
X146096587Y-106105493D01*
X145872373Y-106028520D01*
X145638535Y-105989500D01*
X145401465Y-105989500D01*
X145167626Y-106028520D01*
X144943412Y-106105493D01*
X144943404Y-106105496D01*
X144734911Y-106218327D01*
X144547827Y-106363940D01*
X144547824Y-106363943D01*
X144387265Y-106538355D01*
X144257600Y-106736824D01*
X144162370Y-106953924D01*
X144104173Y-107183743D01*
X144084597Y-107419994D01*
X137985500Y-107419994D01*
X137985500Y-105815013D01*
X155365000Y-105815013D01*
X155365000Y-105927500D01*
X156490000Y-105927500D01*
X156990000Y-105927500D01*
X158114999Y-105927500D01*
X158114999Y-105815028D01*
X158114998Y-105815013D01*
X158104505Y-105712302D01*
X158049358Y-105545880D01*
X158049356Y-105545875D01*
X157957315Y-105396654D01*
X157833345Y-105272684D01*
X157684124Y-105180643D01*
X157684119Y-105180641D01*
X157517697Y-105125494D01*
X157517690Y-105125493D01*
X157414986Y-105115000D01*
X156990000Y-105115000D01*
X156990000Y-105927500D01*
X156490000Y-105927500D01*
X156490000Y-105115000D01*
X156065028Y-105115000D01*
X156065012Y-105115001D01*
X155962302Y-105125494D01*
X155795880Y-105180641D01*
X155795875Y-105180643D01*
X155646654Y-105272684D01*
X155522684Y-105396654D01*
X155430643Y-105545875D01*
X155430641Y-105545880D01*
X155375494Y-105712302D01*
X155375493Y-105712309D01*
X155365000Y-105815013D01*
X137985500Y-105815013D01*
X137985500Y-105321073D01*
X138005185Y-105254034D01*
X138033336Y-105223220D01*
X138111784Y-105162163D01*
X138268979Y-104991403D01*
X138395924Y-104797099D01*
X138489157Y-104584550D01*
X138546134Y-104359555D01*
X138565300Y-104128250D01*
X138565300Y-104128243D01*
X138546135Y-103896952D01*
X138546133Y-103896941D01*
X138489157Y-103671949D01*
X138395924Y-103459401D01*
X138268983Y-103265102D01*
X138268980Y-103265099D01*
X138268979Y-103265097D01*
X138111784Y-103094337D01*
X138111779Y-103094333D01*
X138111777Y-103094331D01*
X137928634Y-102951785D01*
X137928619Y-102951775D01*
X137900771Y-102936704D01*
X137851181Y-102887484D01*
X137836075Y-102819267D01*
X137860247Y-102753712D01*
X137888668Y-102726076D01*
X138031079Y-102626358D01*
X138198105Y-102459332D01*
X138333600Y-102265828D01*
X138433429Y-102051742D01*
X138433432Y-102051736D01*
X138490636Y-101838250D01*
X137593012Y-101838250D01*
X137625925Y-101781243D01*
X137660000Y-101654076D01*
X137660000Y-101522424D01*
X137625925Y-101395257D01*
X137593012Y-101338250D01*
X138490636Y-101338250D01*
X138490635Y-101338249D01*
X138433432Y-101124763D01*
X138433429Y-101124757D01*
X138333600Y-100910672D01*
X138333599Y-100910670D01*
X138198113Y-100717176D01*
X138198108Y-100717170D01*
X138031078Y-100550140D01*
X137888666Y-100450421D01*
X137845041Y-100395844D01*
X137837849Y-100326346D01*
X137869371Y-100263991D01*
X137900768Y-100239795D01*
X137928626Y-100224720D01*
X138111784Y-100082163D01*
X138266803Y-99913767D01*
X138326690Y-99877777D01*
X138358033Y-99873750D01*
X146153057Y-99873750D01*
X146260348Y-99852407D01*
X146312539Y-99842026D01*
X146462771Y-99779798D01*
X146462773Y-99779797D01*
X146556607Y-99717099D01*
X146597975Y-99689458D01*
X149425615Y-96861819D01*
X149486938Y-96828334D01*
X149513296Y-96825500D01*
X155181307Y-96825500D01*
X155288598Y-96804157D01*
X155340789Y-96793776D01*
X155491021Y-96731548D01*
X155491023Y-96731547D01*
X155558169Y-96686680D01*
X155626225Y-96641208D01*
X157381208Y-94886226D01*
X157471548Y-94751021D01*
X157533776Y-94600789D01*
X157544157Y-94548598D01*
X157565500Y-94441307D01*
X157565500Y-92500917D01*
X157585185Y-92433878D01*
X157637989Y-92388123D01*
X157648546Y-92383875D01*
X157652553Y-92382472D01*
X157714522Y-92360789D01*
X157867262Y-92264816D01*
X157994816Y-92137262D01*
X158090789Y-91984522D01*
X158150368Y-91814255D01*
X158165500Y-91679954D01*
X158165500Y-90965046D01*
X158159083Y-90908095D01*
X158150369Y-90830750D01*
X158150368Y-90830745D01*
X158131946Y-90778099D01*
X158090789Y-90660478D01*
X157994816Y-90507738D01*
X157867262Y-90380184D01*
X157714523Y-90284211D01*
X157544254Y-90224631D01*
X157544249Y-90224630D01*
X157409960Y-90209500D01*
X157409954Y-90209500D01*
X156070046Y-90209500D01*
X156070039Y-90209500D01*
X155935750Y-90224630D01*
X155935745Y-90224631D01*
X155765476Y-90284211D01*
X155612737Y-90380184D01*
X155485184Y-90507737D01*
X155389211Y-90660476D01*
X155329631Y-90830745D01*
X155329630Y-90830750D01*
X155314500Y-90965039D01*
X155314500Y-91679960D01*
X155329630Y-91814249D01*
X155329631Y-91814254D01*
X155389211Y-91984523D01*
X155423019Y-92038327D01*
X155485184Y-92137262D01*
X155612738Y-92264816D01*
X155765478Y-92360789D01*
X155831454Y-92383875D01*
X155888230Y-92424597D01*
X155913978Y-92489549D01*
X155914500Y-92500917D01*
X155914500Y-93966704D01*
X155894815Y-94033743D01*
X155878181Y-94054385D01*
X154794386Y-95138181D01*
X154733063Y-95171666D01*
X154706705Y-95174500D01*
X150069500Y-95174500D01*
X150002461Y-95154815D01*
X149956706Y-95102011D01*
X149945500Y-95050500D01*
X149945500Y-94470838D01*
X149965185Y-94403799D01*
X149993333Y-94372988D01*
X150092172Y-94296060D01*
X150252735Y-94121643D01*
X150382399Y-93923176D01*
X150477629Y-93706075D01*
X150535826Y-93476260D01*
X150555403Y-93240000D01*
X150535826Y-93003740D01*
X150477629Y-92773925D01*
X150456312Y-92725328D01*
X150382399Y-92556824D01*
X150252734Y-92358355D01*
X150092175Y-92183943D01*
X150092172Y-92183940D01*
X149905088Y-92038327D01*
X149696595Y-91925496D01*
X149696587Y-91925493D01*
X149472373Y-91848520D01*
X149238535Y-91809500D01*
X149001465Y-91809500D01*
X148767626Y-91848520D01*
X148543412Y-91925493D01*
X148543404Y-91925496D01*
X148334911Y-92038327D01*
X148147827Y-92183940D01*
X148147824Y-92183943D01*
X147987265Y-92358355D01*
X147857600Y-92556824D01*
X147762370Y-92773924D01*
X147704173Y-93003743D01*
X147684597Y-93239994D01*
X147684597Y-93240005D01*
X147704173Y-93476256D01*
X147762370Y-93706075D01*
X147857600Y-93923175D01*
X147987265Y-94121644D01*
X148147818Y-94296050D01*
X148147822Y-94296054D01*
X148147828Y-94296060D01*
X148246664Y-94372987D01*
X148287475Y-94429695D01*
X148294500Y-94470838D01*
X148294500Y-95606704D01*
X148274815Y-95673743D01*
X148258181Y-95694385D01*
X145766136Y-98186431D01*
X145704813Y-98219916D01*
X145678455Y-98222750D01*
X138358033Y-98222750D01*
X138290994Y-98203065D01*
X138266803Y-98182733D01*
X138244668Y-98158689D01*
X138111784Y-98014337D01*
X138111779Y-98014333D01*
X138111777Y-98014331D01*
X137928634Y-97871785D01*
X137928619Y-97871775D01*
X137900771Y-97856704D01*
X137851181Y-97807484D01*
X137836075Y-97739267D01*
X137860247Y-97673712D01*
X137888668Y-97646076D01*
X138031079Y-97546358D01*
X138198105Y-97379332D01*
X138333600Y-97185828D01*
X138433429Y-96971742D01*
X138433432Y-96971736D01*
X138490636Y-96758250D01*
X137593012Y-96758250D01*
X137625925Y-96701243D01*
X137660000Y-96574076D01*
X137660000Y-96442424D01*
X137625925Y-96315257D01*
X137593012Y-96258250D01*
X138490636Y-96258250D01*
X138490635Y-96258249D01*
X138433432Y-96044763D01*
X138433429Y-96044757D01*
X138333600Y-95830672D01*
X138333599Y-95830670D01*
X138198113Y-95637176D01*
X138198108Y-95637170D01*
X138115672Y-95554734D01*
X138082187Y-95493411D01*
X138087171Y-95423719D01*
X138129043Y-95367786D01*
X138157857Y-95351701D01*
X138282342Y-95302611D01*
X138402922Y-95211172D01*
X138494361Y-95090592D01*
X138549877Y-94949814D01*
X138560500Y-94861352D01*
X138560500Y-93239994D01*
X144084597Y-93239994D01*
X144084597Y-93240005D01*
X144104173Y-93476256D01*
X144162370Y-93706075D01*
X144257600Y-93923175D01*
X144387265Y-94121644D01*
X144547824Y-94296056D01*
X144547828Y-94296060D01*
X144734909Y-94441671D01*
X144943405Y-94554504D01*
X145167629Y-94631480D01*
X145401465Y-94670500D01*
X145638535Y-94670500D01*
X145872371Y-94631480D01*
X146096595Y-94554504D01*
X146305091Y-94441671D01*
X146492172Y-94296060D01*
X146652735Y-94121643D01*
X146782399Y-93923176D01*
X146877629Y-93706075D01*
X146935826Y-93476260D01*
X146955403Y-93240000D01*
X146935826Y-93003740D01*
X146877629Y-92773925D01*
X146856312Y-92725328D01*
X146782399Y-92556824D01*
X146652734Y-92358355D01*
X146492175Y-92183943D01*
X146492172Y-92183940D01*
X146305088Y-92038327D01*
X146096595Y-91925496D01*
X146096587Y-91925493D01*
X145872373Y-91848520D01*
X145638535Y-91809500D01*
X145401465Y-91809500D01*
X145167626Y-91848520D01*
X144943412Y-91925493D01*
X144943404Y-91925496D01*
X144734911Y-92038327D01*
X144547827Y-92183940D01*
X144547824Y-92183943D01*
X144387265Y-92358355D01*
X144257600Y-92556824D01*
X144162370Y-92773924D01*
X144104173Y-93003743D01*
X144084597Y-93239994D01*
X138560500Y-93239994D01*
X138560500Y-93075148D01*
X138549877Y-92986686D01*
X138494361Y-92845908D01*
X138494360Y-92845907D01*
X138494360Y-92845906D01*
X138402922Y-92725327D01*
X138282343Y-92633889D01*
X138141561Y-92578372D01*
X138095926Y-92572892D01*
X138053102Y-92567750D01*
X136266898Y-92567750D01*
X136227853Y-92572438D01*
X136178438Y-92578372D01*
X136037656Y-92633889D01*
X135917077Y-92725327D01*
X135825639Y-92845906D01*
X135770122Y-92986688D01*
X135764188Y-93036103D01*
X135759500Y-93075148D01*
X135759500Y-94861352D01*
X135762487Y-94886224D01*
X135770122Y-94949811D01*
X135825639Y-95090593D01*
X135917077Y-95211172D01*
X136037656Y-95302610D01*
X136037657Y-95302610D01*
X136037658Y-95302611D01*
X136162138Y-95351700D01*
X136217280Y-95394604D01*
X136240473Y-95460512D01*
X136224353Y-95528496D01*
X136204328Y-95554734D01*
X136121886Y-95637176D01*
X135986400Y-95830670D01*
X135986399Y-95830672D01*
X135886570Y-96044757D01*
X135886567Y-96044763D01*
X135829364Y-96258249D01*
X135829364Y-96258250D01*
X136726988Y-96258250D01*
X136694075Y-96315257D01*
X136660000Y-96442424D01*
X136660000Y-96574076D01*
X136694075Y-96701243D01*
X136726988Y-96758250D01*
X135829364Y-96758250D01*
X135886567Y-96971736D01*
X135886570Y-96971742D01*
X135986399Y-97185828D01*
X136121894Y-97379332D01*
X136288917Y-97546355D01*
X136431332Y-97646076D01*
X136474957Y-97700653D01*
X136482149Y-97770152D01*
X136450627Y-97832506D01*
X136419230Y-97856704D01*
X136391371Y-97871781D01*
X136391365Y-97871785D01*
X136208222Y-98014331D01*
X136208219Y-98014334D01*
X136051016Y-98185102D01*
X135924075Y-98379401D01*
X135830842Y-98591949D01*
X135773866Y-98816941D01*
X135773864Y-98816952D01*
X135754700Y-99048243D01*
X131530500Y-99048243D01*
X131530501Y-89639994D01*
X144084597Y-89639994D01*
X144084597Y-89640005D01*
X144104173Y-89876256D01*
X144162370Y-90106075D01*
X144257600Y-90323175D01*
X144387265Y-90521644D01*
X144515070Y-90660476D01*
X144547828Y-90696060D01*
X144734909Y-90841671D01*
X144943405Y-90954504D01*
X145167629Y-91031480D01*
X145401465Y-91070500D01*
X145638535Y-91070500D01*
X145872371Y-91031480D01*
X146096595Y-90954504D01*
X146305091Y-90841671D01*
X146492172Y-90696060D01*
X146652735Y-90521643D01*
X146782399Y-90323176D01*
X146877629Y-90106075D01*
X146935826Y-89876260D01*
X146955403Y-89640000D01*
X146955403Y-89639994D01*
X147735270Y-89639994D01*
X147735270Y-89640005D01*
X147754155Y-89867915D01*
X147810297Y-90089619D01*
X147902164Y-90299055D01*
X147983261Y-90423184D01*
X148715000Y-89691445D01*
X148715000Y-89693319D01*
X148742600Y-89796324D01*
X148795919Y-89888676D01*
X148871324Y-89964081D01*
X148963676Y-90017400D01*
X149066681Y-90045000D01*
X149068553Y-90045000D01*
X148335452Y-90778100D01*
X148362626Y-90799251D01*
X148362629Y-90799253D01*
X148563753Y-90908095D01*
X148563764Y-90908100D01*
X148780066Y-90982357D01*
X149005650Y-91020000D01*
X149234350Y-91020000D01*
X149459933Y-90982357D01*
X149676235Y-90908100D01*
X149676246Y-90908095D01*
X149877370Y-90799253D01*
X149877374Y-90799250D01*
X149904546Y-90778101D01*
X149904547Y-90778099D01*
X149171448Y-90045000D01*
X149173319Y-90045000D01*
X149276324Y-90017400D01*
X149368676Y-89964081D01*
X149444081Y-89888676D01*
X149497400Y-89796324D01*
X149525000Y-89693319D01*
X149525000Y-89691447D01*
X150256737Y-90423184D01*
X150337831Y-90299062D01*
X150337836Y-90299054D01*
X150429702Y-90089619D01*
X150485844Y-89867915D01*
X150504730Y-89640005D01*
X150504730Y-89639994D01*
X150485844Y-89412084D01*
X150429702Y-89190380D01*
X150337835Y-88980944D01*
X150256737Y-88856814D01*
X149525000Y-89588551D01*
X149525000Y-89586681D01*
X149497400Y-89483676D01*
X149444081Y-89391324D01*
X149368676Y-89315919D01*
X149276324Y-89262600D01*
X149173319Y-89235000D01*
X149171447Y-89235000D01*
X149646459Y-88759986D01*
X155365001Y-88759986D01*
X155375494Y-88862697D01*
X155430641Y-89029119D01*
X155430643Y-89029124D01*
X155522684Y-89178345D01*
X155646654Y-89302315D01*
X155795875Y-89394356D01*
X155795880Y-89394358D01*
X155962302Y-89449505D01*
X155962309Y-89449506D01*
X156065019Y-89459999D01*
X156489999Y-89459999D01*
X156990000Y-89459999D01*
X157414972Y-89459999D01*
X157414986Y-89459998D01*
X157517697Y-89449505D01*
X157684119Y-89394358D01*
X157684124Y-89394356D01*
X157833345Y-89302315D01*
X157957315Y-89178345D01*
X158049356Y-89029124D01*
X158049358Y-89029119D01*
X158104505Y-88862697D01*
X158104506Y-88862690D01*
X158114999Y-88759986D01*
X158115000Y-88759973D01*
X158115000Y-88647500D01*
X156990000Y-88647500D01*
X156990000Y-89459999D01*
X156489999Y-89459999D01*
X156490000Y-89459998D01*
X156490000Y-88647500D01*
X155365001Y-88647500D01*
X155365001Y-88759986D01*
X149646459Y-88759986D01*
X149904546Y-88501898D01*
X149904546Y-88501897D01*
X149877378Y-88480751D01*
X149877373Y-88480748D01*
X149676246Y-88371904D01*
X149676235Y-88371899D01*
X149459933Y-88297642D01*
X149234350Y-88260000D01*
X149005650Y-88260000D01*
X148780066Y-88297642D01*
X148563764Y-88371899D01*
X148563758Y-88371901D01*
X148362616Y-88480755D01*
X148335452Y-88501896D01*
X148335451Y-88501898D01*
X149068554Y-89235000D01*
X149066681Y-89235000D01*
X148963676Y-89262600D01*
X148871324Y-89315919D01*
X148795919Y-89391324D01*
X148742600Y-89483676D01*
X148715000Y-89586681D01*
X148715000Y-89588554D01*
X147983260Y-88856814D01*
X147902165Y-88980941D01*
X147810297Y-89190380D01*
X147754155Y-89412084D01*
X147735270Y-89639994D01*
X146955403Y-89639994D01*
X146935826Y-89403740D01*
X146881796Y-89190380D01*
X146877629Y-89173924D01*
X146782399Y-88956824D01*
X146652734Y-88758355D01*
X146492175Y-88583943D01*
X146492172Y-88583940D01*
X146359600Y-88480755D01*
X146305091Y-88438329D01*
X146305089Y-88438328D01*
X146305088Y-88438327D01*
X146096595Y-88325496D01*
X146096587Y-88325493D01*
X145872373Y-88248520D01*
X145638535Y-88209500D01*
X145401465Y-88209500D01*
X145167626Y-88248520D01*
X144943412Y-88325493D01*
X144943404Y-88325496D01*
X144734911Y-88438327D01*
X144547827Y-88583940D01*
X144547824Y-88583943D01*
X144387265Y-88758355D01*
X144257600Y-88956824D01*
X144162370Y-89173924D01*
X144104173Y-89403743D01*
X144084597Y-89639994D01*
X131530501Y-89639994D01*
X131530501Y-88035013D01*
X155365000Y-88035013D01*
X155365000Y-88147500D01*
X156490000Y-88147500D01*
X156990000Y-88147500D01*
X158114999Y-88147500D01*
X158114999Y-88035028D01*
X158114998Y-88035013D01*
X158104505Y-87932302D01*
X158049358Y-87765880D01*
X158049356Y-87765875D01*
X157957315Y-87616654D01*
X157833345Y-87492684D01*
X157684124Y-87400643D01*
X157684119Y-87400641D01*
X157517697Y-87345494D01*
X157517690Y-87345493D01*
X157414986Y-87335000D01*
X156990000Y-87335000D01*
X156990000Y-88147500D01*
X156490000Y-88147500D01*
X156490000Y-87335000D01*
X156065028Y-87335000D01*
X156065012Y-87335001D01*
X155962302Y-87345494D01*
X155795880Y-87400641D01*
X155795875Y-87400643D01*
X155646654Y-87492684D01*
X155522684Y-87616654D01*
X155430643Y-87765875D01*
X155430641Y-87765880D01*
X155375494Y-87932302D01*
X155375493Y-87932309D01*
X155365000Y-88035013D01*
X131530501Y-88035013D01*
X131530501Y-83082660D01*
X131530618Y-83077333D01*
X131547692Y-82686253D01*
X131548631Y-82675524D01*
X131599369Y-82290137D01*
X131601242Y-82279510D01*
X131685377Y-81900004D01*
X131688168Y-81889589D01*
X131805059Y-81518857D01*
X131808743Y-81508736D01*
X131957501Y-81149603D01*
X131962059Y-81139829D01*
X132141542Y-80795045D01*
X132146937Y-80785700D01*
X132355793Y-80457861D01*
X132361979Y-80449026D01*
X132598626Y-80140624D01*
X132605551Y-80132372D01*
X132868160Y-79845784D01*
X132875787Y-79838157D01*
X133162370Y-79575551D01*
X133170639Y-79568613D01*
X133479020Y-79331984D01*
X133487860Y-79325794D01*
X133815702Y-79116936D01*
X133825054Y-79111538D01*
X134169831Y-78932058D01*
X134179605Y-78927500D01*
X134538738Y-78778742D01*
X134548859Y-78775058D01*
X134919601Y-78658164D01*
X134930001Y-78655377D01*
X135309515Y-78571242D01*
X135320135Y-78569369D01*
X135705524Y-78518632D01*
X135716255Y-78517692D01*
X136107355Y-78500617D01*
X136112744Y-78500500D01*
X136175894Y-78500500D01*
X154704110Y-78500500D01*
X154767296Y-78500500D01*
X154772704Y-78500617D01*
G37*
%TD.AperFunction*%
%TD*%
M02*
