%TF.GenerationSoftware,KiCad,Pcbnew,8.0.4*%
%TF.CreationDate,2024-09-05T17:41:26+02:00*%
%TF.ProjectId,TGS2600,54475332-3630-4302-9e6b-696361645f70,rev?*%
%TF.SameCoordinates,Original*%
%TF.FileFunction,Legend,Top*%
%TF.FilePolarity,Positive*%
%FSLAX46Y46*%
G04 Gerber Fmt 4.6, Leading zero omitted, Abs format (unit mm)*
G04 Created by KiCad (PCBNEW 8.0.4) date 2024-09-05 17:41:26*
%MOMM*%
%LPD*%
G01*
G04 APERTURE LIST*
%ADD10C,0.150000*%
%ADD11C,0.100000*%
%ADD12C,0.120000*%
%ADD13C,0.010000*%
G04 APERTURE END LIST*
D10*
X136403922Y-116419819D02*
X136737255Y-117419819D01*
X136737255Y-117419819D02*
X137070588Y-116419819D01*
X137594398Y-116419819D02*
X137784874Y-116419819D01*
X137784874Y-116419819D02*
X137880112Y-116467438D01*
X137880112Y-116467438D02*
X137975350Y-116562676D01*
X137975350Y-116562676D02*
X138022969Y-116753152D01*
X138022969Y-116753152D02*
X138022969Y-117086485D01*
X138022969Y-117086485D02*
X137975350Y-117276961D01*
X137975350Y-117276961D02*
X137880112Y-117372200D01*
X137880112Y-117372200D02*
X137784874Y-117419819D01*
X137784874Y-117419819D02*
X137594398Y-117419819D01*
X137594398Y-117419819D02*
X137499160Y-117372200D01*
X137499160Y-117372200D02*
X137403922Y-117276961D01*
X137403922Y-117276961D02*
X137356303Y-117086485D01*
X137356303Y-117086485D02*
X137356303Y-116753152D01*
X137356303Y-116753152D02*
X137403922Y-116562676D01*
X137403922Y-116562676D02*
X137499160Y-116467438D01*
X137499160Y-116467438D02*
X137594398Y-116419819D01*
X139022969Y-117324580D02*
X138975350Y-117372200D01*
X138975350Y-117372200D02*
X138832493Y-117419819D01*
X138832493Y-117419819D02*
X138737255Y-117419819D01*
X138737255Y-117419819D02*
X138594398Y-117372200D01*
X138594398Y-117372200D02*
X138499160Y-117276961D01*
X138499160Y-117276961D02*
X138451541Y-117181723D01*
X138451541Y-117181723D02*
X138403922Y-116991247D01*
X138403922Y-116991247D02*
X138403922Y-116848390D01*
X138403922Y-116848390D02*
X138451541Y-116657914D01*
X138451541Y-116657914D02*
X138499160Y-116562676D01*
X138499160Y-116562676D02*
X138594398Y-116467438D01*
X138594398Y-116467438D02*
X138737255Y-116419819D01*
X138737255Y-116419819D02*
X138832493Y-116419819D01*
X138832493Y-116419819D02*
X138975350Y-116467438D01*
X138975350Y-116467438D02*
X139022969Y-116515057D01*
X140165827Y-117372200D02*
X140308684Y-117419819D01*
X140308684Y-117419819D02*
X140546779Y-117419819D01*
X140546779Y-117419819D02*
X140642017Y-117372200D01*
X140642017Y-117372200D02*
X140689636Y-117324580D01*
X140689636Y-117324580D02*
X140737255Y-117229342D01*
X140737255Y-117229342D02*
X140737255Y-117134104D01*
X140737255Y-117134104D02*
X140689636Y-117038866D01*
X140689636Y-117038866D02*
X140642017Y-116991247D01*
X140642017Y-116991247D02*
X140546779Y-116943628D01*
X140546779Y-116943628D02*
X140356303Y-116896009D01*
X140356303Y-116896009D02*
X140261065Y-116848390D01*
X140261065Y-116848390D02*
X140213446Y-116800771D01*
X140213446Y-116800771D02*
X140165827Y-116705533D01*
X140165827Y-116705533D02*
X140165827Y-116610295D01*
X140165827Y-116610295D02*
X140213446Y-116515057D01*
X140213446Y-116515057D02*
X140261065Y-116467438D01*
X140261065Y-116467438D02*
X140356303Y-116419819D01*
X140356303Y-116419819D02*
X140594398Y-116419819D01*
X140594398Y-116419819D02*
X140737255Y-116467438D01*
X141546779Y-117372200D02*
X141451541Y-117419819D01*
X141451541Y-117419819D02*
X141261065Y-117419819D01*
X141261065Y-117419819D02*
X141165827Y-117372200D01*
X141165827Y-117372200D02*
X141118208Y-117276961D01*
X141118208Y-117276961D02*
X141118208Y-116896009D01*
X141118208Y-116896009D02*
X141165827Y-116800771D01*
X141165827Y-116800771D02*
X141261065Y-116753152D01*
X141261065Y-116753152D02*
X141451541Y-116753152D01*
X141451541Y-116753152D02*
X141546779Y-116800771D01*
X141546779Y-116800771D02*
X141594398Y-116896009D01*
X141594398Y-116896009D02*
X141594398Y-116991247D01*
X141594398Y-116991247D02*
X141118208Y-117086485D01*
X142022970Y-116753152D02*
X142022970Y-117419819D01*
X142022970Y-116848390D02*
X142070589Y-116800771D01*
X142070589Y-116800771D02*
X142165827Y-116753152D01*
X142165827Y-116753152D02*
X142308684Y-116753152D01*
X142308684Y-116753152D02*
X142403922Y-116800771D01*
X142403922Y-116800771D02*
X142451541Y-116896009D01*
X142451541Y-116896009D02*
X142451541Y-117419819D01*
X142880113Y-117372200D02*
X142975351Y-117419819D01*
X142975351Y-117419819D02*
X143165827Y-117419819D01*
X143165827Y-117419819D02*
X143261065Y-117372200D01*
X143261065Y-117372200D02*
X143308684Y-117276961D01*
X143308684Y-117276961D02*
X143308684Y-117229342D01*
X143308684Y-117229342D02*
X143261065Y-117134104D01*
X143261065Y-117134104D02*
X143165827Y-117086485D01*
X143165827Y-117086485D02*
X143022970Y-117086485D01*
X143022970Y-117086485D02*
X142927732Y-117038866D01*
X142927732Y-117038866D02*
X142880113Y-116943628D01*
X142880113Y-116943628D02*
X142880113Y-116896009D01*
X142880113Y-116896009D02*
X142927732Y-116800771D01*
X142927732Y-116800771D02*
X143022970Y-116753152D01*
X143022970Y-116753152D02*
X143165827Y-116753152D01*
X143165827Y-116753152D02*
X143261065Y-116800771D01*
X143880113Y-117419819D02*
X143784875Y-117372200D01*
X143784875Y-117372200D02*
X143737256Y-117324580D01*
X143737256Y-117324580D02*
X143689637Y-117229342D01*
X143689637Y-117229342D02*
X143689637Y-116943628D01*
X143689637Y-116943628D02*
X143737256Y-116848390D01*
X143737256Y-116848390D02*
X143784875Y-116800771D01*
X143784875Y-116800771D02*
X143880113Y-116753152D01*
X143880113Y-116753152D02*
X144022970Y-116753152D01*
X144022970Y-116753152D02*
X144118208Y-116800771D01*
X144118208Y-116800771D02*
X144165827Y-116848390D01*
X144165827Y-116848390D02*
X144213446Y-116943628D01*
X144213446Y-116943628D02*
X144213446Y-117229342D01*
X144213446Y-117229342D02*
X144165827Y-117324580D01*
X144165827Y-117324580D02*
X144118208Y-117372200D01*
X144118208Y-117372200D02*
X144022970Y-117419819D01*
X144022970Y-117419819D02*
X143880113Y-117419819D01*
X144642018Y-117419819D02*
X144642018Y-116753152D01*
X144642018Y-116943628D02*
X144689637Y-116848390D01*
X144689637Y-116848390D02*
X144737256Y-116800771D01*
X144737256Y-116800771D02*
X144832494Y-116753152D01*
X144832494Y-116753152D02*
X144927732Y-116753152D01*
X146356304Y-116896009D02*
X146499161Y-116943628D01*
X146499161Y-116943628D02*
X146546780Y-116991247D01*
X146546780Y-116991247D02*
X146594399Y-117086485D01*
X146594399Y-117086485D02*
X146594399Y-117229342D01*
X146594399Y-117229342D02*
X146546780Y-117324580D01*
X146546780Y-117324580D02*
X146499161Y-117372200D01*
X146499161Y-117372200D02*
X146403923Y-117419819D01*
X146403923Y-117419819D02*
X146022971Y-117419819D01*
X146022971Y-117419819D02*
X146022971Y-116419819D01*
X146022971Y-116419819D02*
X146356304Y-116419819D01*
X146356304Y-116419819D02*
X146451542Y-116467438D01*
X146451542Y-116467438D02*
X146499161Y-116515057D01*
X146499161Y-116515057D02*
X146546780Y-116610295D01*
X146546780Y-116610295D02*
X146546780Y-116705533D01*
X146546780Y-116705533D02*
X146499161Y-116800771D01*
X146499161Y-116800771D02*
X146451542Y-116848390D01*
X146451542Y-116848390D02*
X146356304Y-116896009D01*
X146356304Y-116896009D02*
X146022971Y-116896009D01*
X147165828Y-117419819D02*
X147070590Y-117372200D01*
X147070590Y-117372200D02*
X147022971Y-117324580D01*
X147022971Y-117324580D02*
X146975352Y-117229342D01*
X146975352Y-117229342D02*
X146975352Y-116943628D01*
X146975352Y-116943628D02*
X147022971Y-116848390D01*
X147022971Y-116848390D02*
X147070590Y-116800771D01*
X147070590Y-116800771D02*
X147165828Y-116753152D01*
X147165828Y-116753152D02*
X147308685Y-116753152D01*
X147308685Y-116753152D02*
X147403923Y-116800771D01*
X147403923Y-116800771D02*
X147451542Y-116848390D01*
X147451542Y-116848390D02*
X147499161Y-116943628D01*
X147499161Y-116943628D02*
X147499161Y-117229342D01*
X147499161Y-117229342D02*
X147451542Y-117324580D01*
X147451542Y-117324580D02*
X147403923Y-117372200D01*
X147403923Y-117372200D02*
X147308685Y-117419819D01*
X147308685Y-117419819D02*
X147165828Y-117419819D01*
X148356304Y-117419819D02*
X148356304Y-116896009D01*
X148356304Y-116896009D02*
X148308685Y-116800771D01*
X148308685Y-116800771D02*
X148213447Y-116753152D01*
X148213447Y-116753152D02*
X148022971Y-116753152D01*
X148022971Y-116753152D02*
X147927733Y-116800771D01*
X148356304Y-117372200D02*
X148261066Y-117419819D01*
X148261066Y-117419819D02*
X148022971Y-117419819D01*
X148022971Y-117419819D02*
X147927733Y-117372200D01*
X147927733Y-117372200D02*
X147880114Y-117276961D01*
X147880114Y-117276961D02*
X147880114Y-117181723D01*
X147880114Y-117181723D02*
X147927733Y-117086485D01*
X147927733Y-117086485D02*
X148022971Y-117038866D01*
X148022971Y-117038866D02*
X148261066Y-117038866D01*
X148261066Y-117038866D02*
X148356304Y-116991247D01*
X148832495Y-117419819D02*
X148832495Y-116753152D01*
X148832495Y-116943628D02*
X148880114Y-116848390D01*
X148880114Y-116848390D02*
X148927733Y-116800771D01*
X148927733Y-116800771D02*
X149022971Y-116753152D01*
X149022971Y-116753152D02*
X149118209Y-116753152D01*
X149880114Y-117419819D02*
X149880114Y-116419819D01*
X149880114Y-117372200D02*
X149784876Y-117419819D01*
X149784876Y-117419819D02*
X149594400Y-117419819D01*
X149594400Y-117419819D02*
X149499162Y-117372200D01*
X149499162Y-117372200D02*
X149451543Y-117324580D01*
X149451543Y-117324580D02*
X149403924Y-117229342D01*
X149403924Y-117229342D02*
X149403924Y-116943628D01*
X149403924Y-116943628D02*
X149451543Y-116848390D01*
X149451543Y-116848390D02*
X149499162Y-116800771D01*
X149499162Y-116800771D02*
X149594400Y-116753152D01*
X149594400Y-116753152D02*
X149784876Y-116753152D01*
X149784876Y-116753152D02*
X149880114Y-116800771D01*
X150975353Y-116419819D02*
X151308686Y-117419819D01*
X151308686Y-117419819D02*
X151642019Y-116419819D01*
X152165829Y-116419819D02*
X152261067Y-116419819D01*
X152261067Y-116419819D02*
X152356305Y-116467438D01*
X152356305Y-116467438D02*
X152403924Y-116515057D01*
X152403924Y-116515057D02*
X152451543Y-116610295D01*
X152451543Y-116610295D02*
X152499162Y-116800771D01*
X152499162Y-116800771D02*
X152499162Y-117038866D01*
X152499162Y-117038866D02*
X152451543Y-117229342D01*
X152451543Y-117229342D02*
X152403924Y-117324580D01*
X152403924Y-117324580D02*
X152356305Y-117372200D01*
X152356305Y-117372200D02*
X152261067Y-117419819D01*
X152261067Y-117419819D02*
X152165829Y-117419819D01*
X152165829Y-117419819D02*
X152070591Y-117372200D01*
X152070591Y-117372200D02*
X152022972Y-117324580D01*
X152022972Y-117324580D02*
X151975353Y-117229342D01*
X151975353Y-117229342D02*
X151927734Y-117038866D01*
X151927734Y-117038866D02*
X151927734Y-116800771D01*
X151927734Y-116800771D02*
X151975353Y-116610295D01*
X151975353Y-116610295D02*
X152022972Y-116515057D01*
X152022972Y-116515057D02*
X152070591Y-116467438D01*
X152070591Y-116467438D02*
X152165829Y-116419819D01*
X152927734Y-117324580D02*
X152975353Y-117372200D01*
X152975353Y-117372200D02*
X152927734Y-117419819D01*
X152927734Y-117419819D02*
X152880115Y-117372200D01*
X152880115Y-117372200D02*
X152927734Y-117324580D01*
X152927734Y-117324580D02*
X152927734Y-117419819D01*
X153927733Y-117419819D02*
X153356305Y-117419819D01*
X153642019Y-117419819D02*
X153642019Y-116419819D01*
X153642019Y-116419819D02*
X153546781Y-116562676D01*
X153546781Y-116562676D02*
X153451543Y-116657914D01*
X153451543Y-116657914D02*
X153356305Y-116705533D01*
X133119160Y-104552200D02*
X133262017Y-104599819D01*
X133262017Y-104599819D02*
X133500112Y-104599819D01*
X133500112Y-104599819D02*
X133595350Y-104552200D01*
X133595350Y-104552200D02*
X133642969Y-104504580D01*
X133642969Y-104504580D02*
X133690588Y-104409342D01*
X133690588Y-104409342D02*
X133690588Y-104314104D01*
X133690588Y-104314104D02*
X133642969Y-104218866D01*
X133642969Y-104218866D02*
X133595350Y-104171247D01*
X133595350Y-104171247D02*
X133500112Y-104123628D01*
X133500112Y-104123628D02*
X133309636Y-104076009D01*
X133309636Y-104076009D02*
X133214398Y-104028390D01*
X133214398Y-104028390D02*
X133166779Y-103980771D01*
X133166779Y-103980771D02*
X133119160Y-103885533D01*
X133119160Y-103885533D02*
X133119160Y-103790295D01*
X133119160Y-103790295D02*
X133166779Y-103695057D01*
X133166779Y-103695057D02*
X133214398Y-103647438D01*
X133214398Y-103647438D02*
X133309636Y-103599819D01*
X133309636Y-103599819D02*
X133547731Y-103599819D01*
X133547731Y-103599819D02*
X133690588Y-103647438D01*
X134071541Y-103695057D02*
X134119160Y-103647438D01*
X134119160Y-103647438D02*
X134214398Y-103599819D01*
X134214398Y-103599819D02*
X134452493Y-103599819D01*
X134452493Y-103599819D02*
X134547731Y-103647438D01*
X134547731Y-103647438D02*
X134595350Y-103695057D01*
X134595350Y-103695057D02*
X134642969Y-103790295D01*
X134642969Y-103790295D02*
X134642969Y-103885533D01*
X134642969Y-103885533D02*
X134595350Y-104028390D01*
X134595350Y-104028390D02*
X134023922Y-104599819D01*
X134023922Y-104599819D02*
X134642969Y-104599819D01*
X133023922Y-95979819D02*
X133357255Y-96979819D01*
X133357255Y-96979819D02*
X133690588Y-95979819D01*
X134023922Y-96598866D02*
X134785827Y-96598866D01*
X133023922Y-101059819D02*
X133357255Y-102059819D01*
X133357255Y-102059819D02*
X133690588Y-101059819D01*
X134023922Y-101678866D02*
X134785827Y-101678866D01*
X141041428Y-79962256D02*
X141184285Y-80009875D01*
X141184285Y-80009875D02*
X141422380Y-80009875D01*
X141422380Y-80009875D02*
X141517618Y-79962256D01*
X141517618Y-79962256D02*
X141565237Y-79914636D01*
X141565237Y-79914636D02*
X141612856Y-79819398D01*
X141612856Y-79819398D02*
X141612856Y-79724160D01*
X141612856Y-79724160D02*
X141565237Y-79628922D01*
X141565237Y-79628922D02*
X141517618Y-79581303D01*
X141517618Y-79581303D02*
X141422380Y-79533684D01*
X141422380Y-79533684D02*
X141231904Y-79486065D01*
X141231904Y-79486065D02*
X141136666Y-79438446D01*
X141136666Y-79438446D02*
X141089047Y-79390827D01*
X141089047Y-79390827D02*
X141041428Y-79295589D01*
X141041428Y-79295589D02*
X141041428Y-79200351D01*
X141041428Y-79200351D02*
X141089047Y-79105113D01*
X141089047Y-79105113D02*
X141136666Y-79057494D01*
X141136666Y-79057494D02*
X141231904Y-79009875D01*
X141231904Y-79009875D02*
X141469999Y-79009875D01*
X141469999Y-79009875D02*
X141612856Y-79057494D01*
X142041428Y-80009875D02*
X142041428Y-79343208D01*
X142041428Y-79438446D02*
X142089047Y-79390827D01*
X142089047Y-79390827D02*
X142184285Y-79343208D01*
X142184285Y-79343208D02*
X142327142Y-79343208D01*
X142327142Y-79343208D02*
X142422380Y-79390827D01*
X142422380Y-79390827D02*
X142469999Y-79486065D01*
X142469999Y-79486065D02*
X142469999Y-80009875D01*
X142469999Y-79486065D02*
X142517618Y-79390827D01*
X142517618Y-79390827D02*
X142612856Y-79343208D01*
X142612856Y-79343208D02*
X142755713Y-79343208D01*
X142755713Y-79343208D02*
X142850952Y-79390827D01*
X142850952Y-79390827D02*
X142898571Y-79486065D01*
X142898571Y-79486065D02*
X142898571Y-80009875D01*
X143803332Y-80009875D02*
X143803332Y-79486065D01*
X143803332Y-79486065D02*
X143755713Y-79390827D01*
X143755713Y-79390827D02*
X143660475Y-79343208D01*
X143660475Y-79343208D02*
X143469999Y-79343208D01*
X143469999Y-79343208D02*
X143374761Y-79390827D01*
X143803332Y-79962256D02*
X143708094Y-80009875D01*
X143708094Y-80009875D02*
X143469999Y-80009875D01*
X143469999Y-80009875D02*
X143374761Y-79962256D01*
X143374761Y-79962256D02*
X143327142Y-79867017D01*
X143327142Y-79867017D02*
X143327142Y-79771779D01*
X143327142Y-79771779D02*
X143374761Y-79676541D01*
X143374761Y-79676541D02*
X143469999Y-79628922D01*
X143469999Y-79628922D02*
X143708094Y-79628922D01*
X143708094Y-79628922D02*
X143803332Y-79581303D01*
X144279523Y-80009875D02*
X144279523Y-79343208D01*
X144279523Y-79533684D02*
X144327142Y-79438446D01*
X144327142Y-79438446D02*
X144374761Y-79390827D01*
X144374761Y-79390827D02*
X144469999Y-79343208D01*
X144469999Y-79343208D02*
X144565237Y-79343208D01*
X144755714Y-79343208D02*
X145136666Y-79343208D01*
X144898571Y-79009875D02*
X144898571Y-79867017D01*
X144898571Y-79867017D02*
X144946190Y-79962256D01*
X144946190Y-79962256D02*
X145041428Y-80009875D01*
X145041428Y-80009875D02*
X145136666Y-80009875D01*
X146803333Y-79914636D02*
X146755714Y-79962256D01*
X146755714Y-79962256D02*
X146612857Y-80009875D01*
X146612857Y-80009875D02*
X146517619Y-80009875D01*
X146517619Y-80009875D02*
X146374762Y-79962256D01*
X146374762Y-79962256D02*
X146279524Y-79867017D01*
X146279524Y-79867017D02*
X146231905Y-79771779D01*
X146231905Y-79771779D02*
X146184286Y-79581303D01*
X146184286Y-79581303D02*
X146184286Y-79438446D01*
X146184286Y-79438446D02*
X146231905Y-79247970D01*
X146231905Y-79247970D02*
X146279524Y-79152732D01*
X146279524Y-79152732D02*
X146374762Y-79057494D01*
X146374762Y-79057494D02*
X146517619Y-79009875D01*
X146517619Y-79009875D02*
X146612857Y-79009875D01*
X146612857Y-79009875D02*
X146755714Y-79057494D01*
X146755714Y-79057494D02*
X146803333Y-79105113D01*
X147231905Y-80009875D02*
X147231905Y-79343208D01*
X147231905Y-79009875D02*
X147184286Y-79057494D01*
X147184286Y-79057494D02*
X147231905Y-79105113D01*
X147231905Y-79105113D02*
X147279524Y-79057494D01*
X147279524Y-79057494D02*
X147231905Y-79009875D01*
X147231905Y-79009875D02*
X147231905Y-79105113D01*
X147565238Y-79343208D02*
X147946190Y-79343208D01*
X147708095Y-79009875D02*
X147708095Y-79867017D01*
X147708095Y-79867017D02*
X147755714Y-79962256D01*
X147755714Y-79962256D02*
X147850952Y-80009875D01*
X147850952Y-80009875D02*
X147946190Y-80009875D01*
X148279524Y-80009875D02*
X148279524Y-79343208D01*
X148279524Y-79009875D02*
X148231905Y-79057494D01*
X148231905Y-79057494D02*
X148279524Y-79105113D01*
X148279524Y-79105113D02*
X148327143Y-79057494D01*
X148327143Y-79057494D02*
X148279524Y-79009875D01*
X148279524Y-79009875D02*
X148279524Y-79105113D01*
X148660476Y-79343208D02*
X149184285Y-79343208D01*
X149184285Y-79343208D02*
X148660476Y-80009875D01*
X148660476Y-80009875D02*
X149184285Y-80009875D01*
X149946190Y-79962256D02*
X149850952Y-80009875D01*
X149850952Y-80009875D02*
X149660476Y-80009875D01*
X149660476Y-80009875D02*
X149565238Y-79962256D01*
X149565238Y-79962256D02*
X149517619Y-79867017D01*
X149517619Y-79867017D02*
X149517619Y-79486065D01*
X149517619Y-79486065D02*
X149565238Y-79390827D01*
X149565238Y-79390827D02*
X149660476Y-79343208D01*
X149660476Y-79343208D02*
X149850952Y-79343208D01*
X149850952Y-79343208D02*
X149946190Y-79390827D01*
X149946190Y-79390827D02*
X149993809Y-79486065D01*
X149993809Y-79486065D02*
X149993809Y-79581303D01*
X149993809Y-79581303D02*
X149517619Y-79676541D01*
X150422381Y-79343208D02*
X150422381Y-80009875D01*
X150422381Y-79438446D02*
X150470000Y-79390827D01*
X150470000Y-79390827D02*
X150565238Y-79343208D01*
X150565238Y-79343208D02*
X150708095Y-79343208D01*
X150708095Y-79343208D02*
X150803333Y-79390827D01*
X150803333Y-79390827D02*
X150850952Y-79486065D01*
X150850952Y-79486065D02*
X150850952Y-80009875D01*
X139398570Y-81096009D02*
X139065237Y-81096009D01*
X139065237Y-81619819D02*
X139065237Y-80619819D01*
X139065237Y-80619819D02*
X139541427Y-80619819D01*
X140350951Y-81619819D02*
X140350951Y-81096009D01*
X140350951Y-81096009D02*
X140303332Y-81000771D01*
X140303332Y-81000771D02*
X140208094Y-80953152D01*
X140208094Y-80953152D02*
X140017618Y-80953152D01*
X140017618Y-80953152D02*
X139922380Y-81000771D01*
X140350951Y-81572200D02*
X140255713Y-81619819D01*
X140255713Y-81619819D02*
X140017618Y-81619819D01*
X140017618Y-81619819D02*
X139922380Y-81572200D01*
X139922380Y-81572200D02*
X139874761Y-81476961D01*
X139874761Y-81476961D02*
X139874761Y-81381723D01*
X139874761Y-81381723D02*
X139922380Y-81286485D01*
X139922380Y-81286485D02*
X140017618Y-81238866D01*
X140017618Y-81238866D02*
X140255713Y-81238866D01*
X140255713Y-81238866D02*
X140350951Y-81191247D01*
X140827142Y-81619819D02*
X140827142Y-80619819D01*
X140827142Y-81000771D02*
X140922380Y-80953152D01*
X140922380Y-80953152D02*
X141112856Y-80953152D01*
X141112856Y-80953152D02*
X141208094Y-81000771D01*
X141208094Y-81000771D02*
X141255713Y-81048390D01*
X141255713Y-81048390D02*
X141303332Y-81143628D01*
X141303332Y-81143628D02*
X141303332Y-81429342D01*
X141303332Y-81429342D02*
X141255713Y-81524580D01*
X141255713Y-81524580D02*
X141208094Y-81572200D01*
X141208094Y-81572200D02*
X141112856Y-81619819D01*
X141112856Y-81619819D02*
X140922380Y-81619819D01*
X140922380Y-81619819D02*
X140827142Y-81572200D01*
X142969999Y-81619819D02*
X142493809Y-81619819D01*
X142493809Y-81619819D02*
X142493809Y-80619819D01*
X143731904Y-81619819D02*
X143731904Y-81096009D01*
X143731904Y-81096009D02*
X143684285Y-81000771D01*
X143684285Y-81000771D02*
X143589047Y-80953152D01*
X143589047Y-80953152D02*
X143398571Y-80953152D01*
X143398571Y-80953152D02*
X143303333Y-81000771D01*
X143731904Y-81572200D02*
X143636666Y-81619819D01*
X143636666Y-81619819D02*
X143398571Y-81619819D01*
X143398571Y-81619819D02*
X143303333Y-81572200D01*
X143303333Y-81572200D02*
X143255714Y-81476961D01*
X143255714Y-81476961D02*
X143255714Y-81381723D01*
X143255714Y-81381723D02*
X143303333Y-81286485D01*
X143303333Y-81286485D02*
X143398571Y-81238866D01*
X143398571Y-81238866D02*
X143636666Y-81238866D01*
X143636666Y-81238866D02*
X143731904Y-81191247D01*
X144208095Y-81619819D02*
X144208095Y-80619819D01*
X144208095Y-81000771D02*
X144303333Y-80953152D01*
X144303333Y-80953152D02*
X144493809Y-80953152D01*
X144493809Y-80953152D02*
X144589047Y-81000771D01*
X144589047Y-81000771D02*
X144636666Y-81048390D01*
X144636666Y-81048390D02*
X144684285Y-81143628D01*
X144684285Y-81143628D02*
X144684285Y-81429342D01*
X144684285Y-81429342D02*
X144636666Y-81524580D01*
X144636666Y-81524580D02*
X144589047Y-81572200D01*
X144589047Y-81572200D02*
X144493809Y-81619819D01*
X144493809Y-81619819D02*
X144303333Y-81619819D01*
X144303333Y-81619819D02*
X144208095Y-81572200D01*
X146208095Y-81096009D02*
X146350952Y-81143628D01*
X146350952Y-81143628D02*
X146398571Y-81191247D01*
X146398571Y-81191247D02*
X146446190Y-81286485D01*
X146446190Y-81286485D02*
X146446190Y-81429342D01*
X146446190Y-81429342D02*
X146398571Y-81524580D01*
X146398571Y-81524580D02*
X146350952Y-81572200D01*
X146350952Y-81572200D02*
X146255714Y-81619819D01*
X146255714Y-81619819D02*
X145874762Y-81619819D01*
X145874762Y-81619819D02*
X145874762Y-80619819D01*
X145874762Y-80619819D02*
X146208095Y-80619819D01*
X146208095Y-80619819D02*
X146303333Y-80667438D01*
X146303333Y-80667438D02*
X146350952Y-80715057D01*
X146350952Y-80715057D02*
X146398571Y-80810295D01*
X146398571Y-80810295D02*
X146398571Y-80905533D01*
X146398571Y-80905533D02*
X146350952Y-81000771D01*
X146350952Y-81000771D02*
X146303333Y-81048390D01*
X146303333Y-81048390D02*
X146208095Y-81096009D01*
X146208095Y-81096009D02*
X145874762Y-81096009D01*
X147303333Y-81619819D02*
X147303333Y-81096009D01*
X147303333Y-81096009D02*
X147255714Y-81000771D01*
X147255714Y-81000771D02*
X147160476Y-80953152D01*
X147160476Y-80953152D02*
X146970000Y-80953152D01*
X146970000Y-80953152D02*
X146874762Y-81000771D01*
X147303333Y-81572200D02*
X147208095Y-81619819D01*
X147208095Y-81619819D02*
X146970000Y-81619819D01*
X146970000Y-81619819D02*
X146874762Y-81572200D01*
X146874762Y-81572200D02*
X146827143Y-81476961D01*
X146827143Y-81476961D02*
X146827143Y-81381723D01*
X146827143Y-81381723D02*
X146874762Y-81286485D01*
X146874762Y-81286485D02*
X146970000Y-81238866D01*
X146970000Y-81238866D02*
X147208095Y-81238866D01*
X147208095Y-81238866D02*
X147303333Y-81191247D01*
X147779524Y-81619819D02*
X147779524Y-80953152D01*
X147779524Y-81143628D02*
X147827143Y-81048390D01*
X147827143Y-81048390D02*
X147874762Y-81000771D01*
X147874762Y-81000771D02*
X147970000Y-80953152D01*
X147970000Y-80953152D02*
X148065238Y-80953152D01*
X148827143Y-81572200D02*
X148731905Y-81619819D01*
X148731905Y-81619819D02*
X148541429Y-81619819D01*
X148541429Y-81619819D02*
X148446191Y-81572200D01*
X148446191Y-81572200D02*
X148398572Y-81524580D01*
X148398572Y-81524580D02*
X148350953Y-81429342D01*
X148350953Y-81429342D02*
X148350953Y-81143628D01*
X148350953Y-81143628D02*
X148398572Y-81048390D01*
X148398572Y-81048390D02*
X148446191Y-81000771D01*
X148446191Y-81000771D02*
X148541429Y-80953152D01*
X148541429Y-80953152D02*
X148731905Y-80953152D01*
X148731905Y-80953152D02*
X148827143Y-81000771D01*
X149636667Y-81572200D02*
X149541429Y-81619819D01*
X149541429Y-81619819D02*
X149350953Y-81619819D01*
X149350953Y-81619819D02*
X149255715Y-81572200D01*
X149255715Y-81572200D02*
X149208096Y-81476961D01*
X149208096Y-81476961D02*
X149208096Y-81096009D01*
X149208096Y-81096009D02*
X149255715Y-81000771D01*
X149255715Y-81000771D02*
X149350953Y-80953152D01*
X149350953Y-80953152D02*
X149541429Y-80953152D01*
X149541429Y-80953152D02*
X149636667Y-81000771D01*
X149636667Y-81000771D02*
X149684286Y-81096009D01*
X149684286Y-81096009D02*
X149684286Y-81191247D01*
X149684286Y-81191247D02*
X149208096Y-81286485D01*
X150255715Y-81619819D02*
X150160477Y-81572200D01*
X150160477Y-81572200D02*
X150112858Y-81476961D01*
X150112858Y-81476961D02*
X150112858Y-80619819D01*
X150779525Y-81619819D02*
X150684287Y-81572200D01*
X150684287Y-81572200D02*
X150636668Y-81524580D01*
X150636668Y-81524580D02*
X150589049Y-81429342D01*
X150589049Y-81429342D02*
X150589049Y-81143628D01*
X150589049Y-81143628D02*
X150636668Y-81048390D01*
X150636668Y-81048390D02*
X150684287Y-81000771D01*
X150684287Y-81000771D02*
X150779525Y-80953152D01*
X150779525Y-80953152D02*
X150922382Y-80953152D01*
X150922382Y-80953152D02*
X151017620Y-81000771D01*
X151017620Y-81000771D02*
X151065239Y-81048390D01*
X151065239Y-81048390D02*
X151112858Y-81143628D01*
X151112858Y-81143628D02*
X151112858Y-81429342D01*
X151112858Y-81429342D02*
X151065239Y-81524580D01*
X151065239Y-81524580D02*
X151017620Y-81572200D01*
X151017620Y-81572200D02*
X150922382Y-81619819D01*
X150922382Y-81619819D02*
X150779525Y-81619819D01*
X151541430Y-80953152D02*
X151541430Y-81619819D01*
X151541430Y-81048390D02*
X151589049Y-81000771D01*
X151589049Y-81000771D02*
X151684287Y-80953152D01*
X151684287Y-80953152D02*
X151827144Y-80953152D01*
X151827144Y-80953152D02*
X151922382Y-81000771D01*
X151922382Y-81000771D02*
X151970001Y-81096009D01*
X151970001Y-81096009D02*
X151970001Y-81619819D01*
X152874763Y-81619819D02*
X152874763Y-81096009D01*
X152874763Y-81096009D02*
X152827144Y-81000771D01*
X152827144Y-81000771D02*
X152731906Y-80953152D01*
X152731906Y-80953152D02*
X152541430Y-80953152D01*
X152541430Y-80953152D02*
X152446192Y-81000771D01*
X152874763Y-81572200D02*
X152779525Y-81619819D01*
X152779525Y-81619819D02*
X152541430Y-81619819D01*
X152541430Y-81619819D02*
X152446192Y-81572200D01*
X152446192Y-81572200D02*
X152398573Y-81476961D01*
X152398573Y-81476961D02*
X152398573Y-81381723D01*
X152398573Y-81381723D02*
X152446192Y-81286485D01*
X152446192Y-81286485D02*
X152541430Y-81238866D01*
X152541430Y-81238866D02*
X152779525Y-81238866D01*
X152779525Y-81238866D02*
X152874763Y-81191247D01*
X133169160Y-99472200D02*
X133312017Y-99519819D01*
X133312017Y-99519819D02*
X133550112Y-99519819D01*
X133550112Y-99519819D02*
X133645350Y-99472200D01*
X133645350Y-99472200D02*
X133692969Y-99424580D01*
X133692969Y-99424580D02*
X133740588Y-99329342D01*
X133740588Y-99329342D02*
X133740588Y-99234104D01*
X133740588Y-99234104D02*
X133692969Y-99138866D01*
X133692969Y-99138866D02*
X133645350Y-99091247D01*
X133645350Y-99091247D02*
X133550112Y-99043628D01*
X133550112Y-99043628D02*
X133359636Y-98996009D01*
X133359636Y-98996009D02*
X133264398Y-98948390D01*
X133264398Y-98948390D02*
X133216779Y-98900771D01*
X133216779Y-98900771D02*
X133169160Y-98805533D01*
X133169160Y-98805533D02*
X133169160Y-98710295D01*
X133169160Y-98710295D02*
X133216779Y-98615057D01*
X133216779Y-98615057D02*
X133264398Y-98567438D01*
X133264398Y-98567438D02*
X133359636Y-98519819D01*
X133359636Y-98519819D02*
X133597731Y-98519819D01*
X133597731Y-98519819D02*
X133740588Y-98567438D01*
X134692969Y-99519819D02*
X134121541Y-99519819D01*
X134407255Y-99519819D02*
X134407255Y-98519819D01*
X134407255Y-98519819D02*
X134312017Y-98662676D01*
X134312017Y-98662676D02*
X134216779Y-98757914D01*
X134216779Y-98757914D02*
X134121541Y-98805533D01*
X133023922Y-93439819D02*
X133357255Y-94439819D01*
X133357255Y-94439819D02*
X133690588Y-93439819D01*
X134023922Y-94058866D02*
X134785827Y-94058866D01*
X134404874Y-94439819D02*
X134404874Y-93677914D01*
X159014819Y-90026666D02*
X158538628Y-90359999D01*
X159014819Y-90598094D02*
X158014819Y-90598094D01*
X158014819Y-90598094D02*
X158014819Y-90217142D01*
X158014819Y-90217142D02*
X158062438Y-90121904D01*
X158062438Y-90121904D02*
X158110057Y-90074285D01*
X158110057Y-90074285D02*
X158205295Y-90026666D01*
X158205295Y-90026666D02*
X158348152Y-90026666D01*
X158348152Y-90026666D02*
X158443390Y-90074285D01*
X158443390Y-90074285D02*
X158491009Y-90121904D01*
X158491009Y-90121904D02*
X158538628Y-90217142D01*
X158538628Y-90217142D02*
X158538628Y-90598094D01*
X159014819Y-89074285D02*
X159014819Y-89645713D01*
X159014819Y-89359999D02*
X158014819Y-89359999D01*
X158014819Y-89359999D02*
X158157676Y-89455237D01*
X158157676Y-89455237D02*
X158252914Y-89550475D01*
X158252914Y-89550475D02*
X158300533Y-89645713D01*
X2101338977Y-2110154819D02*
X2101338977Y-2109154819D01*
X2101338977Y-2109631009D02*
X2101910405Y-2109631009D01*
X2101910405Y-2110154819D02*
X2101910405Y-2109154819D01*
X2102338977Y-2109250057D02*
X2102386596Y-2109202438D01*
X2102386596Y-2109202438D02*
X2102481834Y-2109154819D01*
X2102481834Y-2109154819D02*
X2102719929Y-2109154819D01*
X2102719929Y-2109154819D02*
X2102815167Y-2109202438D01*
X2102815167Y-2109202438D02*
X2102862786Y-2109250057D01*
X2102862786Y-2109250057D02*
X2102910405Y-2109345295D01*
X2102910405Y-2109345295D02*
X2102910405Y-2109440533D01*
X2102910405Y-2109440533D02*
X2102862786Y-2109583390D01*
X2102862786Y-2109583390D02*
X2102291358Y-2110154819D01*
X2102291358Y-2110154819D02*
X2102910405Y-2110154819D01*
X136826666Y-91093069D02*
X136826666Y-91807354D01*
X136826666Y-91807354D02*
X136779047Y-91950211D01*
X136779047Y-91950211D02*
X136683809Y-92045450D01*
X136683809Y-92045450D02*
X136540952Y-92093069D01*
X136540952Y-92093069D02*
X136445714Y-92093069D01*
X137826666Y-92093069D02*
X137255238Y-92093069D01*
X137540952Y-92093069D02*
X137540952Y-91093069D01*
X137540952Y-91093069D02*
X137445714Y-91235926D01*
X137445714Y-91235926D02*
X137350476Y-91331164D01*
X137350476Y-91331164D02*
X137255238Y-91378783D01*
X159014819Y-107806666D02*
X158538628Y-108139999D01*
X159014819Y-108378094D02*
X158014819Y-108378094D01*
X158014819Y-108378094D02*
X158014819Y-107997142D01*
X158014819Y-107997142D02*
X158062438Y-107901904D01*
X158062438Y-107901904D02*
X158110057Y-107854285D01*
X158110057Y-107854285D02*
X158205295Y-107806666D01*
X158205295Y-107806666D02*
X158348152Y-107806666D01*
X158348152Y-107806666D02*
X158443390Y-107854285D01*
X158443390Y-107854285D02*
X158491009Y-107901904D01*
X158491009Y-107901904D02*
X158538628Y-107997142D01*
X158538628Y-107997142D02*
X158538628Y-108378094D01*
X158110057Y-107425713D02*
X158062438Y-107378094D01*
X158062438Y-107378094D02*
X158014819Y-107282856D01*
X158014819Y-107282856D02*
X158014819Y-107044761D01*
X158014819Y-107044761D02*
X158062438Y-106949523D01*
X158062438Y-106949523D02*
X158110057Y-106901904D01*
X158110057Y-106901904D02*
X158205295Y-106854285D01*
X158205295Y-106854285D02*
X158300533Y-106854285D01*
X158300533Y-106854285D02*
X158443390Y-106901904D01*
X158443390Y-106901904D02*
X159014819Y-107473332D01*
X159014819Y-107473332D02*
X159014819Y-106854285D01*
X2101338977Y-2111790216D02*
X2101338977Y-2110790216D01*
X2101338977Y-2111266406D02*
X2101910405Y-2111266406D01*
X2101910405Y-2111790216D02*
X2101910405Y-2110790216D01*
X2102910405Y-2111790216D02*
X2102338977Y-2111790216D01*
X2102624691Y-2111790216D02*
X2102624691Y-2110790216D01*
X2102624691Y-2110790216D02*
X2102529453Y-2110933073D01*
X2102529453Y-2110933073D02*
X2102434215Y-2111028311D01*
X2102434215Y-2111028311D02*
X2102338977Y-2111075930D01*
D11*
X146578095Y-90967419D02*
X146578095Y-91776942D01*
X146578095Y-91776942D02*
X146625714Y-91872180D01*
X146625714Y-91872180D02*
X146673333Y-91919800D01*
X146673333Y-91919800D02*
X146768571Y-91967419D01*
X146768571Y-91967419D02*
X146959047Y-91967419D01*
X146959047Y-91967419D02*
X147054285Y-91919800D01*
X147054285Y-91919800D02*
X147101904Y-91872180D01*
X147101904Y-91872180D02*
X147149523Y-91776942D01*
X147149523Y-91776942D02*
X147149523Y-90967419D01*
X148149523Y-91967419D02*
X147578095Y-91967419D01*
X147863809Y-91967419D02*
X147863809Y-90967419D01*
X147863809Y-90967419D02*
X147768571Y-91110276D01*
X147768571Y-91110276D02*
X147673333Y-91205514D01*
X147673333Y-91205514D02*
X147578095Y-91253133D01*
D10*
X146558095Y-83094819D02*
X146558095Y-83904342D01*
X146558095Y-83904342D02*
X146605714Y-83999580D01*
X146605714Y-83999580D02*
X146653333Y-84047200D01*
X146653333Y-84047200D02*
X146748571Y-84094819D01*
X146748571Y-84094819D02*
X146939047Y-84094819D01*
X146939047Y-84094819D02*
X147034285Y-84047200D01*
X147034285Y-84047200D02*
X147081904Y-83999580D01*
X147081904Y-83999580D02*
X147129523Y-83904342D01*
X147129523Y-83904342D02*
X147129523Y-83094819D01*
X148129523Y-84094819D02*
X147558095Y-84094819D01*
X147843809Y-84094819D02*
X147843809Y-83094819D01*
X147843809Y-83094819D02*
X147748571Y-83237676D01*
X147748571Y-83237676D02*
X147653333Y-83332914D01*
X147653333Y-83332914D02*
X147558095Y-83380533D01*
D11*
X146568095Y-108837419D02*
X146568095Y-109646942D01*
X146568095Y-109646942D02*
X146615714Y-109742180D01*
X146615714Y-109742180D02*
X146663333Y-109789800D01*
X146663333Y-109789800D02*
X146758571Y-109837419D01*
X146758571Y-109837419D02*
X146949047Y-109837419D01*
X146949047Y-109837419D02*
X147044285Y-109789800D01*
X147044285Y-109789800D02*
X147091904Y-109742180D01*
X147091904Y-109742180D02*
X147139523Y-109646942D01*
X147139523Y-109646942D02*
X147139523Y-108837419D01*
X147568095Y-108932657D02*
X147615714Y-108885038D01*
X147615714Y-108885038D02*
X147710952Y-108837419D01*
X147710952Y-108837419D02*
X147949047Y-108837419D01*
X147949047Y-108837419D02*
X148044285Y-108885038D01*
X148044285Y-108885038D02*
X148091904Y-108932657D01*
X148091904Y-108932657D02*
X148139523Y-109027895D01*
X148139523Y-109027895D02*
X148139523Y-109123133D01*
X148139523Y-109123133D02*
X148091904Y-109265990D01*
X148091904Y-109265990D02*
X147520476Y-109837419D01*
X147520476Y-109837419D02*
X148139523Y-109837419D01*
D10*
X146548095Y-101314819D02*
X146548095Y-102124342D01*
X146548095Y-102124342D02*
X146595714Y-102219580D01*
X146595714Y-102219580D02*
X146643333Y-102267200D01*
X146643333Y-102267200D02*
X146738571Y-102314819D01*
X146738571Y-102314819D02*
X146929047Y-102314819D01*
X146929047Y-102314819D02*
X147024285Y-102267200D01*
X147024285Y-102267200D02*
X147071904Y-102219580D01*
X147071904Y-102219580D02*
X147119523Y-102124342D01*
X147119523Y-102124342D02*
X147119523Y-101314819D01*
X147548095Y-101410057D02*
X147595714Y-101362438D01*
X147595714Y-101362438D02*
X147690952Y-101314819D01*
X147690952Y-101314819D02*
X147929047Y-101314819D01*
X147929047Y-101314819D02*
X148024285Y-101362438D01*
X148024285Y-101362438D02*
X148071904Y-101410057D01*
X148071904Y-101410057D02*
X148119523Y-101505295D01*
X148119523Y-101505295D02*
X148119523Y-101600533D01*
X148119523Y-101600533D02*
X148071904Y-101743390D01*
X148071904Y-101743390D02*
X147500476Y-102314819D01*
X147500476Y-102314819D02*
X148119523Y-102314819D01*
D12*
%TO.C,R1*%
X155830000Y-89132936D02*
X155830000Y-90587064D01*
X157650000Y-89132936D02*
X157650000Y-90587064D01*
%TO.C,J1*%
X135830000Y-92638250D02*
X137160000Y-92638250D01*
X135830000Y-93968250D02*
X135830000Y-92638250D01*
X135830000Y-95238250D02*
X135830000Y-105458250D01*
X135830000Y-95238250D02*
X138490000Y-95238250D01*
X135830000Y-105458250D02*
X138490000Y-105458250D01*
X138490000Y-95238250D02*
X138490000Y-105458250D01*
D13*
%TO.C,REF\u002A\u002A*%
X138322600Y-87068752D02*
X138339948Y-87076334D01*
X138381356Y-87109128D01*
X138416765Y-87156547D01*
X138438664Y-87207151D01*
X138442229Y-87232098D01*
X138430279Y-87266927D01*
X138404067Y-87285357D01*
X138375964Y-87296516D01*
X138363095Y-87298572D01*
X138356829Y-87283649D01*
X138344456Y-87251175D01*
X138339028Y-87236502D01*
X138308590Y-87185744D01*
X138264520Y-87160427D01*
X138208010Y-87161206D01*
X138203825Y-87162203D01*
X138173655Y-87176507D01*
X138151476Y-87204393D01*
X138136327Y-87249287D01*
X138127250Y-87314615D01*
X138123286Y-87403804D01*
X138122914Y-87451261D01*
X138122730Y-87526071D01*
X138121522Y-87577069D01*
X138118309Y-87609471D01*
X138112109Y-87628495D01*
X138101940Y-87639356D01*
X138086819Y-87647272D01*
X138085946Y-87647670D01*
X138056828Y-87659981D01*
X138042403Y-87664514D01*
X138040186Y-87650809D01*
X138038289Y-87612925D01*
X138036847Y-87555715D01*
X138035998Y-87484027D01*
X138035829Y-87431565D01*
X138036692Y-87330047D01*
X138040070Y-87253032D01*
X138047142Y-87196023D01*
X138059088Y-87154526D01*
X138077090Y-87124043D01*
X138102327Y-87100080D01*
X138127247Y-87083355D01*
X138187171Y-87061097D01*
X138256911Y-87056076D01*
X138322600Y-87068752D01*
G36*
X138322600Y-87068752D02*
G01*
X138339948Y-87076334D01*
X138381356Y-87109128D01*
X138416765Y-87156547D01*
X138438664Y-87207151D01*
X138442229Y-87232098D01*
X138430279Y-87266927D01*
X138404067Y-87285357D01*
X138375964Y-87296516D01*
X138363095Y-87298572D01*
X138356829Y-87283649D01*
X138344456Y-87251175D01*
X138339028Y-87236502D01*
X138308590Y-87185744D01*
X138264520Y-87160427D01*
X138208010Y-87161206D01*
X138203825Y-87162203D01*
X138173655Y-87176507D01*
X138151476Y-87204393D01*
X138136327Y-87249287D01*
X138127250Y-87314615D01*
X138123286Y-87403804D01*
X138122914Y-87451261D01*
X138122730Y-87526071D01*
X138121522Y-87577069D01*
X138118309Y-87609471D01*
X138112109Y-87628495D01*
X138101940Y-87639356D01*
X138086819Y-87647272D01*
X138085946Y-87647670D01*
X138056828Y-87659981D01*
X138042403Y-87664514D01*
X138040186Y-87650809D01*
X138038289Y-87612925D01*
X138036847Y-87555715D01*
X138035998Y-87484027D01*
X138035829Y-87431565D01*
X138036692Y-87330047D01*
X138040070Y-87253032D01*
X138047142Y-87196023D01*
X138059088Y-87154526D01*
X138077090Y-87124043D01*
X138102327Y-87100080D01*
X138127247Y-87083355D01*
X138187171Y-87061097D01*
X138256911Y-87056076D01*
X138322600Y-87068752D01*
G37*
X134386093Y-87037780D02*
X134432672Y-87064723D01*
X134465057Y-87091466D01*
X134488742Y-87119484D01*
X134505059Y-87153748D01*
X134515339Y-87199227D01*
X134520914Y-87260892D01*
X134523116Y-87343711D01*
X134523371Y-87403246D01*
X134523371Y-87622391D01*
X134461686Y-87650044D01*
X134400000Y-87677697D01*
X134392743Y-87437670D01*
X134389744Y-87348028D01*
X134386598Y-87282962D01*
X134382701Y-87238026D01*
X134377447Y-87208770D01*
X134370231Y-87190748D01*
X134360450Y-87179511D01*
X134357312Y-87177079D01*
X134309761Y-87158083D01*
X134261697Y-87165600D01*
X134233086Y-87185543D01*
X134221447Y-87199675D01*
X134213391Y-87218220D01*
X134208271Y-87246334D01*
X134205441Y-87289173D01*
X134204256Y-87351895D01*
X134204057Y-87417261D01*
X134204018Y-87499268D01*
X134202614Y-87557316D01*
X134197914Y-87596465D01*
X134187987Y-87621780D01*
X134170903Y-87638323D01*
X134144732Y-87651156D01*
X134109775Y-87664491D01*
X134071596Y-87679007D01*
X134076141Y-87421389D01*
X134077971Y-87328519D01*
X134080112Y-87259889D01*
X134083181Y-87210711D01*
X134087794Y-87176198D01*
X134094568Y-87151562D01*
X134104119Y-87132016D01*
X134115634Y-87114770D01*
X134171190Y-87059680D01*
X134238980Y-87027822D01*
X134312713Y-87020191D01*
X134386093Y-87037780D01*
G36*
X134386093Y-87037780D02*
G01*
X134432672Y-87064723D01*
X134465057Y-87091466D01*
X134488742Y-87119484D01*
X134505059Y-87153748D01*
X134515339Y-87199227D01*
X134520914Y-87260892D01*
X134523116Y-87343711D01*
X134523371Y-87403246D01*
X134523371Y-87622391D01*
X134461686Y-87650044D01*
X134400000Y-87677697D01*
X134392743Y-87437670D01*
X134389744Y-87348028D01*
X134386598Y-87282962D01*
X134382701Y-87238026D01*
X134377447Y-87208770D01*
X134370231Y-87190748D01*
X134360450Y-87179511D01*
X134357312Y-87177079D01*
X134309761Y-87158083D01*
X134261697Y-87165600D01*
X134233086Y-87185543D01*
X134221447Y-87199675D01*
X134213391Y-87218220D01*
X134208271Y-87246334D01*
X134205441Y-87289173D01*
X134204256Y-87351895D01*
X134204057Y-87417261D01*
X134204018Y-87499268D01*
X134202614Y-87557316D01*
X134197914Y-87596465D01*
X134187987Y-87621780D01*
X134170903Y-87638323D01*
X134144732Y-87651156D01*
X134109775Y-87664491D01*
X134071596Y-87679007D01*
X134076141Y-87421389D01*
X134077971Y-87328519D01*
X134080112Y-87259889D01*
X134083181Y-87210711D01*
X134087794Y-87176198D01*
X134094568Y-87151562D01*
X134104119Y-87132016D01*
X134115634Y-87114770D01*
X134171190Y-87059680D01*
X134238980Y-87027822D01*
X134312713Y-87020191D01*
X134386093Y-87037780D01*
G37*
X136199926Y-87059755D02*
X136265858Y-87084084D01*
X136319273Y-87127117D01*
X136340164Y-87157409D01*
X136362939Y-87212994D01*
X136362466Y-87253186D01*
X136338562Y-87280217D01*
X136329717Y-87284813D01*
X136291530Y-87299144D01*
X136272028Y-87295472D01*
X136265422Y-87271407D01*
X136265086Y-87258114D01*
X136252992Y-87209210D01*
X136221471Y-87174999D01*
X136177659Y-87158476D01*
X136128695Y-87162634D01*
X136088894Y-87184227D01*
X136075450Y-87196544D01*
X136065921Y-87211487D01*
X136059485Y-87234075D01*
X136055317Y-87269328D01*
X136052597Y-87322266D01*
X136050502Y-87397907D01*
X136049960Y-87421857D01*
X136047981Y-87503790D01*
X136045731Y-87561455D01*
X136042357Y-87599608D01*
X136037006Y-87623004D01*
X136028824Y-87636398D01*
X136016959Y-87644545D01*
X136009362Y-87648144D01*
X135977102Y-87660452D01*
X135958111Y-87664514D01*
X135951836Y-87650948D01*
X135948006Y-87609934D01*
X135946600Y-87540999D01*
X135947598Y-87443669D01*
X135947908Y-87428657D01*
X135950101Y-87339859D01*
X135952693Y-87275019D01*
X135956382Y-87229067D01*
X135961864Y-87196935D01*
X135969835Y-87173553D01*
X135980993Y-87153852D01*
X135986830Y-87145410D01*
X136020296Y-87108057D01*
X136057727Y-87079003D01*
X136062309Y-87076467D01*
X136129426Y-87056443D01*
X136199926Y-87059755D01*
G36*
X136199926Y-87059755D02*
G01*
X136265858Y-87084084D01*
X136319273Y-87127117D01*
X136340164Y-87157409D01*
X136362939Y-87212994D01*
X136362466Y-87253186D01*
X136338562Y-87280217D01*
X136329717Y-87284813D01*
X136291530Y-87299144D01*
X136272028Y-87295472D01*
X136265422Y-87271407D01*
X136265086Y-87258114D01*
X136252992Y-87209210D01*
X136221471Y-87174999D01*
X136177659Y-87158476D01*
X136128695Y-87162634D01*
X136088894Y-87184227D01*
X136075450Y-87196544D01*
X136065921Y-87211487D01*
X136059485Y-87234075D01*
X136055317Y-87269328D01*
X136052597Y-87322266D01*
X136050502Y-87397907D01*
X136049960Y-87421857D01*
X136047981Y-87503790D01*
X136045731Y-87561455D01*
X136042357Y-87599608D01*
X136037006Y-87623004D01*
X136028824Y-87636398D01*
X136016959Y-87644545D01*
X136009362Y-87648144D01*
X135977102Y-87660452D01*
X135958111Y-87664514D01*
X135951836Y-87650948D01*
X135948006Y-87609934D01*
X135946600Y-87540999D01*
X135947598Y-87443669D01*
X135947908Y-87428657D01*
X135950101Y-87339859D01*
X135952693Y-87275019D01*
X135956382Y-87229067D01*
X135961864Y-87196935D01*
X135969835Y-87173553D01*
X135980993Y-87153852D01*
X135986830Y-87145410D01*
X136020296Y-87108057D01*
X136057727Y-87079003D01*
X136062309Y-87076467D01*
X136129426Y-87056443D01*
X136199926Y-87059755D01*
G37*
X135045886Y-86961289D02*
X135050139Y-87020613D01*
X135055025Y-87055572D01*
X135061795Y-87070820D01*
X135071702Y-87071015D01*
X135074914Y-87069195D01*
X135117644Y-87056015D01*
X135173227Y-87056785D01*
X135229737Y-87070333D01*
X135265082Y-87087861D01*
X135301321Y-87115861D01*
X135327813Y-87147549D01*
X135345999Y-87187813D01*
X135357322Y-87241543D01*
X135363222Y-87313626D01*
X135365143Y-87408951D01*
X135365177Y-87427237D01*
X135365200Y-87632646D01*
X135319491Y-87648580D01*
X135287027Y-87659420D01*
X135269215Y-87664468D01*
X135268691Y-87664514D01*
X135266937Y-87650828D01*
X135265444Y-87613076D01*
X135264326Y-87556224D01*
X135263697Y-87485234D01*
X135263600Y-87442073D01*
X135263398Y-87356973D01*
X135262358Y-87295981D01*
X135259831Y-87254177D01*
X135255164Y-87226642D01*
X135247707Y-87208456D01*
X135236811Y-87194698D01*
X135230007Y-87188073D01*
X135183272Y-87161375D01*
X135132272Y-87159375D01*
X135086001Y-87181955D01*
X135077444Y-87190107D01*
X135064893Y-87205436D01*
X135056188Y-87223618D01*
X135050631Y-87249909D01*
X135047526Y-87289562D01*
X135046176Y-87347832D01*
X135045886Y-87428173D01*
X135045886Y-87632646D01*
X135000177Y-87648580D01*
X134967713Y-87659420D01*
X134949901Y-87664468D01*
X134949377Y-87664514D01*
X134948037Y-87650623D01*
X134946828Y-87611439D01*
X134945801Y-87550700D01*
X134945002Y-87472141D01*
X134944481Y-87379498D01*
X134944286Y-87276509D01*
X134944286Y-86879342D01*
X134991457Y-86859444D01*
X135038629Y-86839547D01*
X135045886Y-86961289D01*
G36*
X135045886Y-86961289D02*
G01*
X135050139Y-87020613D01*
X135055025Y-87055572D01*
X135061795Y-87070820D01*
X135071702Y-87071015D01*
X135074914Y-87069195D01*
X135117644Y-87056015D01*
X135173227Y-87056785D01*
X135229737Y-87070333D01*
X135265082Y-87087861D01*
X135301321Y-87115861D01*
X135327813Y-87147549D01*
X135345999Y-87187813D01*
X135357322Y-87241543D01*
X135363222Y-87313626D01*
X135365143Y-87408951D01*
X135365177Y-87427237D01*
X135365200Y-87632646D01*
X135319491Y-87648580D01*
X135287027Y-87659420D01*
X135269215Y-87664468D01*
X135268691Y-87664514D01*
X135266937Y-87650828D01*
X135265444Y-87613076D01*
X135264326Y-87556224D01*
X135263697Y-87485234D01*
X135263600Y-87442073D01*
X135263398Y-87356973D01*
X135262358Y-87295981D01*
X135259831Y-87254177D01*
X135255164Y-87226642D01*
X135247707Y-87208456D01*
X135236811Y-87194698D01*
X135230007Y-87188073D01*
X135183272Y-87161375D01*
X135132272Y-87159375D01*
X135086001Y-87181955D01*
X135077444Y-87190107D01*
X135064893Y-87205436D01*
X135056188Y-87223618D01*
X135050631Y-87249909D01*
X135047526Y-87289562D01*
X135046176Y-87347832D01*
X135045886Y-87428173D01*
X135045886Y-87632646D01*
X135000177Y-87648580D01*
X134967713Y-87659420D01*
X134949901Y-87664468D01*
X134949377Y-87664514D01*
X134948037Y-87650623D01*
X134946828Y-87611439D01*
X134945801Y-87550700D01*
X134945002Y-87472141D01*
X134944481Y-87379498D01*
X134944286Y-87276509D01*
X134944286Y-86879342D01*
X134991457Y-86859444D01*
X135038629Y-86839547D01*
X135045886Y-86961289D01*
G37*
X137449833Y-87068663D02*
X137452048Y-87106850D01*
X137453784Y-87164886D01*
X137454899Y-87238180D01*
X137455257Y-87315055D01*
X137455257Y-87575196D01*
X137409326Y-87621127D01*
X137377675Y-87649429D01*
X137349890Y-87660893D01*
X137311915Y-87660168D01*
X137296840Y-87658321D01*
X137249726Y-87652948D01*
X137210756Y-87649869D01*
X137201257Y-87649585D01*
X137169233Y-87651445D01*
X137123432Y-87656114D01*
X137105674Y-87658321D01*
X137062057Y-87661735D01*
X137032745Y-87654320D01*
X137003680Y-87631427D01*
X136993188Y-87621127D01*
X136947257Y-87575196D01*
X136947257Y-87088602D01*
X136984226Y-87071758D01*
X137016059Y-87059282D01*
X137034683Y-87054914D01*
X137039458Y-87068718D01*
X137043921Y-87107286D01*
X137047775Y-87166356D01*
X137050722Y-87241663D01*
X137052143Y-87305286D01*
X137056114Y-87555657D01*
X137090759Y-87560556D01*
X137122268Y-87557131D01*
X137137708Y-87546041D01*
X137142023Y-87525308D01*
X137145708Y-87481145D01*
X137148469Y-87419146D01*
X137150012Y-87344909D01*
X137150235Y-87306706D01*
X137150457Y-87086783D01*
X137196166Y-87070849D01*
X137228518Y-87060015D01*
X137246115Y-87054962D01*
X137246623Y-87054914D01*
X137248388Y-87068648D01*
X137250329Y-87106730D01*
X137252282Y-87164482D01*
X137254084Y-87237227D01*
X137255343Y-87305286D01*
X137259314Y-87555657D01*
X137346400Y-87555657D01*
X137350396Y-87327240D01*
X137354392Y-87098822D01*
X137396847Y-87076868D01*
X137428192Y-87061793D01*
X137446744Y-87054951D01*
X137447279Y-87054914D01*
X137449833Y-87068663D01*
G36*
X137449833Y-87068663D02*
G01*
X137452048Y-87106850D01*
X137453784Y-87164886D01*
X137454899Y-87238180D01*
X137455257Y-87315055D01*
X137455257Y-87575196D01*
X137409326Y-87621127D01*
X137377675Y-87649429D01*
X137349890Y-87660893D01*
X137311915Y-87660168D01*
X137296840Y-87658321D01*
X137249726Y-87652948D01*
X137210756Y-87649869D01*
X137201257Y-87649585D01*
X137169233Y-87651445D01*
X137123432Y-87656114D01*
X137105674Y-87658321D01*
X137062057Y-87661735D01*
X137032745Y-87654320D01*
X137003680Y-87631427D01*
X136993188Y-87621127D01*
X136947257Y-87575196D01*
X136947257Y-87088602D01*
X136984226Y-87071758D01*
X137016059Y-87059282D01*
X137034683Y-87054914D01*
X137039458Y-87068718D01*
X137043921Y-87107286D01*
X137047775Y-87166356D01*
X137050722Y-87241663D01*
X137052143Y-87305286D01*
X137056114Y-87555657D01*
X137090759Y-87560556D01*
X137122268Y-87557131D01*
X137137708Y-87546041D01*
X137142023Y-87525308D01*
X137145708Y-87481145D01*
X137148469Y-87419146D01*
X137150012Y-87344909D01*
X137150235Y-87306706D01*
X137150457Y-87086783D01*
X137196166Y-87070849D01*
X137228518Y-87060015D01*
X137246115Y-87054962D01*
X137246623Y-87054914D01*
X137248388Y-87068648D01*
X137250329Y-87106730D01*
X137252282Y-87164482D01*
X137254084Y-87237227D01*
X137255343Y-87305286D01*
X137259314Y-87555657D01*
X137346400Y-87555657D01*
X137350396Y-87327240D01*
X137354392Y-87098822D01*
X137396847Y-87076868D01*
X137428192Y-87061793D01*
X137446744Y-87054951D01*
X137447279Y-87054914D01*
X137449833Y-87068663D01*
G37*
X132711115Y-87031962D02*
X132779145Y-87067733D01*
X132829351Y-87125301D01*
X132847185Y-87162312D01*
X132861063Y-87217882D01*
X132868167Y-87288096D01*
X132868840Y-87364727D01*
X132863427Y-87439552D01*
X132852270Y-87504342D01*
X132835714Y-87550873D01*
X132830626Y-87558887D01*
X132770355Y-87618707D01*
X132698769Y-87654535D01*
X132621092Y-87665020D01*
X132542548Y-87648810D01*
X132520689Y-87639092D01*
X132478122Y-87609143D01*
X132440763Y-87569433D01*
X132437232Y-87564397D01*
X132422881Y-87540124D01*
X132413394Y-87514178D01*
X132407790Y-87480022D01*
X132405086Y-87431119D01*
X132404299Y-87360935D01*
X132404286Y-87345200D01*
X132404322Y-87340192D01*
X132549429Y-87340192D01*
X132550273Y-87406430D01*
X132553596Y-87450386D01*
X132560583Y-87478779D01*
X132572416Y-87498325D01*
X132578457Y-87504857D01*
X132613186Y-87529680D01*
X132646903Y-87528548D01*
X132680995Y-87507016D01*
X132701329Y-87484029D01*
X132713371Y-87450478D01*
X132720134Y-87397569D01*
X132720598Y-87391399D01*
X132721752Y-87295513D01*
X132709688Y-87224299D01*
X132684570Y-87178194D01*
X132646560Y-87157635D01*
X132632992Y-87156514D01*
X132597364Y-87162152D01*
X132572994Y-87181686D01*
X132558093Y-87219042D01*
X132550875Y-87278150D01*
X132549429Y-87340192D01*
X132404322Y-87340192D01*
X132404826Y-87270413D01*
X132407096Y-87218159D01*
X132412068Y-87181949D01*
X132420713Y-87155299D01*
X132434005Y-87131722D01*
X132436943Y-87127338D01*
X132486313Y-87068249D01*
X132540109Y-87033947D01*
X132605602Y-87020331D01*
X132627842Y-87019665D01*
X132711115Y-87031962D01*
G36*
X132711115Y-87031962D02*
G01*
X132779145Y-87067733D01*
X132829351Y-87125301D01*
X132847185Y-87162312D01*
X132861063Y-87217882D01*
X132868167Y-87288096D01*
X132868840Y-87364727D01*
X132863427Y-87439552D01*
X132852270Y-87504342D01*
X132835714Y-87550873D01*
X132830626Y-87558887D01*
X132770355Y-87618707D01*
X132698769Y-87654535D01*
X132621092Y-87665020D01*
X132542548Y-87648810D01*
X132520689Y-87639092D01*
X132478122Y-87609143D01*
X132440763Y-87569433D01*
X132437232Y-87564397D01*
X132422881Y-87540124D01*
X132413394Y-87514178D01*
X132407790Y-87480022D01*
X132405086Y-87431119D01*
X132404299Y-87360935D01*
X132404286Y-87345200D01*
X132404322Y-87340192D01*
X132549429Y-87340192D01*
X132550273Y-87406430D01*
X132553596Y-87450386D01*
X132560583Y-87478779D01*
X132572416Y-87498325D01*
X132578457Y-87504857D01*
X132613186Y-87529680D01*
X132646903Y-87528548D01*
X132680995Y-87507016D01*
X132701329Y-87484029D01*
X132713371Y-87450478D01*
X132720134Y-87397569D01*
X132720598Y-87391399D01*
X132721752Y-87295513D01*
X132709688Y-87224299D01*
X132684570Y-87178194D01*
X132646560Y-87157635D01*
X132632992Y-87156514D01*
X132597364Y-87162152D01*
X132572994Y-87181686D01*
X132558093Y-87219042D01*
X132550875Y-87278150D01*
X132549429Y-87340192D01*
X132404322Y-87340192D01*
X132404826Y-87270413D01*
X132407096Y-87218159D01*
X132412068Y-87181949D01*
X132420713Y-87155299D01*
X132434005Y-87131722D01*
X132436943Y-87127338D01*
X132486313Y-87068249D01*
X132540109Y-87033947D01*
X132605602Y-87020331D01*
X132627842Y-87019665D01*
X132711115Y-87031962D01*
G37*
X138823595Y-87076966D02*
X138881021Y-87114497D01*
X138908719Y-87148096D01*
X138930662Y-87209064D01*
X138932405Y-87257308D01*
X138928457Y-87321816D01*
X138779686Y-87386934D01*
X138707349Y-87420202D01*
X138660084Y-87446964D01*
X138635507Y-87470144D01*
X138631237Y-87492667D01*
X138644889Y-87517455D01*
X138659943Y-87533886D01*
X138703746Y-87560235D01*
X138751389Y-87562081D01*
X138795145Y-87541546D01*
X138827289Y-87500752D01*
X138833038Y-87486347D01*
X138860576Y-87441356D01*
X138892258Y-87422182D01*
X138935714Y-87405779D01*
X138935714Y-87467966D01*
X138931872Y-87510283D01*
X138916823Y-87545969D01*
X138885280Y-87586943D01*
X138880592Y-87592267D01*
X138845506Y-87628720D01*
X138815347Y-87648283D01*
X138777615Y-87657283D01*
X138746335Y-87660230D01*
X138690385Y-87660965D01*
X138650555Y-87651660D01*
X138625708Y-87637846D01*
X138586656Y-87607467D01*
X138559625Y-87574613D01*
X138542517Y-87533294D01*
X138533238Y-87477521D01*
X138529693Y-87401305D01*
X138529410Y-87362622D01*
X138530372Y-87316247D01*
X138618007Y-87316247D01*
X138619023Y-87341126D01*
X138621556Y-87345200D01*
X138638274Y-87339665D01*
X138674249Y-87325017D01*
X138722331Y-87304190D01*
X138732386Y-87299714D01*
X138793152Y-87268814D01*
X138826632Y-87241657D01*
X138833990Y-87216220D01*
X138816391Y-87190481D01*
X138801856Y-87179109D01*
X138749410Y-87156364D01*
X138700322Y-87160122D01*
X138659227Y-87187884D01*
X138630758Y-87237152D01*
X138621631Y-87276257D01*
X138618007Y-87316247D01*
X138530372Y-87316247D01*
X138531285Y-87272249D01*
X138538196Y-87205384D01*
X138551884Y-87156695D01*
X138574096Y-87120849D01*
X138606574Y-87092513D01*
X138620733Y-87083355D01*
X138685053Y-87059507D01*
X138755473Y-87058006D01*
X138823595Y-87076966D01*
G36*
X138823595Y-87076966D02*
G01*
X138881021Y-87114497D01*
X138908719Y-87148096D01*
X138930662Y-87209064D01*
X138932405Y-87257308D01*
X138928457Y-87321816D01*
X138779686Y-87386934D01*
X138707349Y-87420202D01*
X138660084Y-87446964D01*
X138635507Y-87470144D01*
X138631237Y-87492667D01*
X138644889Y-87517455D01*
X138659943Y-87533886D01*
X138703746Y-87560235D01*
X138751389Y-87562081D01*
X138795145Y-87541546D01*
X138827289Y-87500752D01*
X138833038Y-87486347D01*
X138860576Y-87441356D01*
X138892258Y-87422182D01*
X138935714Y-87405779D01*
X138935714Y-87467966D01*
X138931872Y-87510283D01*
X138916823Y-87545969D01*
X138885280Y-87586943D01*
X138880592Y-87592267D01*
X138845506Y-87628720D01*
X138815347Y-87648283D01*
X138777615Y-87657283D01*
X138746335Y-87660230D01*
X138690385Y-87660965D01*
X138650555Y-87651660D01*
X138625708Y-87637846D01*
X138586656Y-87607467D01*
X138559625Y-87574613D01*
X138542517Y-87533294D01*
X138533238Y-87477521D01*
X138529693Y-87401305D01*
X138529410Y-87362622D01*
X138530372Y-87316247D01*
X138618007Y-87316247D01*
X138619023Y-87341126D01*
X138621556Y-87345200D01*
X138638274Y-87339665D01*
X138674249Y-87325017D01*
X138722331Y-87304190D01*
X138732386Y-87299714D01*
X138793152Y-87268814D01*
X138826632Y-87241657D01*
X138833990Y-87216220D01*
X138816391Y-87190481D01*
X138801856Y-87179109D01*
X138749410Y-87156364D01*
X138700322Y-87160122D01*
X138659227Y-87187884D01*
X138630758Y-87237152D01*
X138621631Y-87276257D01*
X138618007Y-87316247D01*
X138530372Y-87316247D01*
X138531285Y-87272249D01*
X138538196Y-87205384D01*
X138551884Y-87156695D01*
X138574096Y-87120849D01*
X138606574Y-87092513D01*
X138620733Y-87083355D01*
X138685053Y-87059507D01*
X138755473Y-87058006D01*
X138823595Y-87076966D01*
G37*
X136860117Y-87175358D02*
X136859933Y-87283837D01*
X136859219Y-87367287D01*
X136857675Y-87429704D01*
X136855001Y-87475085D01*
X136850894Y-87507429D01*
X136845055Y-87530733D01*
X136837182Y-87548995D01*
X136831221Y-87559418D01*
X136781855Y-87615945D01*
X136719264Y-87651377D01*
X136650013Y-87664090D01*
X136580668Y-87652463D01*
X136539375Y-87631568D01*
X136496025Y-87595422D01*
X136466481Y-87551276D01*
X136448655Y-87493462D01*
X136440463Y-87416313D01*
X136439302Y-87359714D01*
X136439458Y-87355647D01*
X136540857Y-87355647D01*
X136541476Y-87420550D01*
X136544314Y-87463514D01*
X136550840Y-87491622D01*
X136562523Y-87511953D01*
X136576483Y-87527288D01*
X136623365Y-87556890D01*
X136673701Y-87559419D01*
X136721276Y-87534705D01*
X136724979Y-87531356D01*
X136740783Y-87513935D01*
X136750693Y-87493209D01*
X136756058Y-87462362D01*
X136758228Y-87414577D01*
X136758571Y-87361748D01*
X136757827Y-87295381D01*
X136754748Y-87251106D01*
X136748061Y-87222009D01*
X136736496Y-87201173D01*
X136727013Y-87190107D01*
X136682960Y-87162198D01*
X136632224Y-87158843D01*
X136583796Y-87180159D01*
X136574450Y-87188073D01*
X136558540Y-87205647D01*
X136548610Y-87226587D01*
X136543278Y-87257782D01*
X136541163Y-87306122D01*
X136540857Y-87355647D01*
X136439458Y-87355647D01*
X136442810Y-87268568D01*
X136454726Y-87200086D01*
X136477135Y-87148600D01*
X136512124Y-87108443D01*
X136539375Y-87087861D01*
X136588907Y-87065625D01*
X136646316Y-87055304D01*
X136699682Y-87058067D01*
X136729543Y-87069212D01*
X136741261Y-87072383D01*
X136749037Y-87060557D01*
X136754465Y-87028866D01*
X136758571Y-86980593D01*
X136763067Y-86926829D01*
X136769313Y-86894482D01*
X136780676Y-86875985D01*
X136800528Y-86863770D01*
X136813000Y-86858362D01*
X136860171Y-86838601D01*
X136860117Y-87175358D01*
G36*
X136860117Y-87175358D02*
G01*
X136859933Y-87283837D01*
X136859219Y-87367287D01*
X136857675Y-87429704D01*
X136855001Y-87475085D01*
X136850894Y-87507429D01*
X136845055Y-87530733D01*
X136837182Y-87548995D01*
X136831221Y-87559418D01*
X136781855Y-87615945D01*
X136719264Y-87651377D01*
X136650013Y-87664090D01*
X136580668Y-87652463D01*
X136539375Y-87631568D01*
X136496025Y-87595422D01*
X136466481Y-87551276D01*
X136448655Y-87493462D01*
X136440463Y-87416313D01*
X136439302Y-87359714D01*
X136439458Y-87355647D01*
X136540857Y-87355647D01*
X136541476Y-87420550D01*
X136544314Y-87463514D01*
X136550840Y-87491622D01*
X136562523Y-87511953D01*
X136576483Y-87527288D01*
X136623365Y-87556890D01*
X136673701Y-87559419D01*
X136721276Y-87534705D01*
X136724979Y-87531356D01*
X136740783Y-87513935D01*
X136750693Y-87493209D01*
X136756058Y-87462362D01*
X136758228Y-87414577D01*
X136758571Y-87361748D01*
X136757827Y-87295381D01*
X136754748Y-87251106D01*
X136748061Y-87222009D01*
X136736496Y-87201173D01*
X136727013Y-87190107D01*
X136682960Y-87162198D01*
X136632224Y-87158843D01*
X136583796Y-87180159D01*
X136574450Y-87188073D01*
X136558540Y-87205647D01*
X136548610Y-87226587D01*
X136543278Y-87257782D01*
X136541163Y-87306122D01*
X136540857Y-87355647D01*
X136439458Y-87355647D01*
X136442810Y-87268568D01*
X136454726Y-87200086D01*
X136477135Y-87148600D01*
X136512124Y-87108443D01*
X136539375Y-87087861D01*
X136588907Y-87065625D01*
X136646316Y-87055304D01*
X136699682Y-87058067D01*
X136729543Y-87069212D01*
X136741261Y-87072383D01*
X136749037Y-87060557D01*
X136754465Y-87028866D01*
X136758571Y-86980593D01*
X136763067Y-86926829D01*
X136769313Y-86894482D01*
X136780676Y-86875985D01*
X136800528Y-86863770D01*
X136813000Y-86858362D01*
X136860171Y-86838601D01*
X136860117Y-87175358D01*
G37*
X133838303Y-87041239D02*
X133895527Y-87079735D01*
X133939749Y-87135335D01*
X133966167Y-87206086D01*
X133971510Y-87258162D01*
X133970903Y-87279893D01*
X133965822Y-87296531D01*
X133951855Y-87311437D01*
X133924589Y-87327973D01*
X133879612Y-87349498D01*
X133812511Y-87379374D01*
X133812171Y-87379524D01*
X133750407Y-87407813D01*
X133699759Y-87432933D01*
X133665404Y-87452179D01*
X133652518Y-87462848D01*
X133652514Y-87462934D01*
X133663872Y-87486166D01*
X133690431Y-87511774D01*
X133720923Y-87530221D01*
X133736370Y-87533886D01*
X133778515Y-87521212D01*
X133814808Y-87489471D01*
X133832517Y-87454572D01*
X133849552Y-87428845D01*
X133882922Y-87399546D01*
X133922149Y-87374235D01*
X133956756Y-87360471D01*
X133963993Y-87359714D01*
X133972139Y-87372160D01*
X133972630Y-87403972D01*
X133966643Y-87446866D01*
X133955357Y-87492558D01*
X133939950Y-87532761D01*
X133939171Y-87534322D01*
X133892804Y-87599062D01*
X133832711Y-87643097D01*
X133764465Y-87664711D01*
X133693638Y-87662185D01*
X133625804Y-87633804D01*
X133622788Y-87631808D01*
X133569427Y-87583448D01*
X133534340Y-87520352D01*
X133514922Y-87437387D01*
X133512316Y-87414078D01*
X133507701Y-87304055D01*
X133513233Y-87252748D01*
X133652514Y-87252748D01*
X133654324Y-87284753D01*
X133664222Y-87294093D01*
X133688898Y-87287105D01*
X133727795Y-87270587D01*
X133771275Y-87249881D01*
X133772356Y-87249333D01*
X133809209Y-87229949D01*
X133824000Y-87217013D01*
X133820353Y-87203451D01*
X133804995Y-87185632D01*
X133765923Y-87159845D01*
X133723846Y-87157950D01*
X133686103Y-87176717D01*
X133660034Y-87212915D01*
X133652514Y-87252748D01*
X133513233Y-87252748D01*
X133517194Y-87216027D01*
X133541550Y-87146212D01*
X133575456Y-87097302D01*
X133636653Y-87047878D01*
X133704063Y-87023359D01*
X133772880Y-87021797D01*
X133838303Y-87041239D01*
G36*
X133838303Y-87041239D02*
G01*
X133895527Y-87079735D01*
X133939749Y-87135335D01*
X133966167Y-87206086D01*
X133971510Y-87258162D01*
X133970903Y-87279893D01*
X133965822Y-87296531D01*
X133951855Y-87311437D01*
X133924589Y-87327973D01*
X133879612Y-87349498D01*
X133812511Y-87379374D01*
X133812171Y-87379524D01*
X133750407Y-87407813D01*
X133699759Y-87432933D01*
X133665404Y-87452179D01*
X133652518Y-87462848D01*
X133652514Y-87462934D01*
X133663872Y-87486166D01*
X133690431Y-87511774D01*
X133720923Y-87530221D01*
X133736370Y-87533886D01*
X133778515Y-87521212D01*
X133814808Y-87489471D01*
X133832517Y-87454572D01*
X133849552Y-87428845D01*
X133882922Y-87399546D01*
X133922149Y-87374235D01*
X133956756Y-87360471D01*
X133963993Y-87359714D01*
X133972139Y-87372160D01*
X133972630Y-87403972D01*
X133966643Y-87446866D01*
X133955357Y-87492558D01*
X133939950Y-87532761D01*
X133939171Y-87534322D01*
X133892804Y-87599062D01*
X133832711Y-87643097D01*
X133764465Y-87664711D01*
X133693638Y-87662185D01*
X133625804Y-87633804D01*
X133622788Y-87631808D01*
X133569427Y-87583448D01*
X133534340Y-87520352D01*
X133514922Y-87437387D01*
X133512316Y-87414078D01*
X133507701Y-87304055D01*
X133513233Y-87252748D01*
X133652514Y-87252748D01*
X133654324Y-87284753D01*
X133664222Y-87294093D01*
X133688898Y-87287105D01*
X133727795Y-87270587D01*
X133771275Y-87249881D01*
X133772356Y-87249333D01*
X133809209Y-87229949D01*
X133824000Y-87217013D01*
X133820353Y-87203451D01*
X133804995Y-87185632D01*
X133765923Y-87159845D01*
X133723846Y-87157950D01*
X133686103Y-87176717D01*
X133660034Y-87212915D01*
X133652514Y-87252748D01*
X133513233Y-87252748D01*
X133517194Y-87216027D01*
X133541550Y-87146212D01*
X133575456Y-87097302D01*
X133636653Y-87047878D01*
X133704063Y-87023359D01*
X133772880Y-87021797D01*
X133838303Y-87041239D01*
G37*
X135709744Y-87060968D02*
X135766616Y-87082087D01*
X135767267Y-87082493D01*
X135802440Y-87108380D01*
X135828407Y-87138633D01*
X135846670Y-87178058D01*
X135858732Y-87231462D01*
X135866096Y-87303651D01*
X135870264Y-87399432D01*
X135870629Y-87413078D01*
X135875876Y-87618842D01*
X135831716Y-87641678D01*
X135799763Y-87657110D01*
X135780470Y-87664423D01*
X135779578Y-87664514D01*
X135776239Y-87651022D01*
X135773587Y-87614626D01*
X135771956Y-87561452D01*
X135771600Y-87518393D01*
X135771592Y-87448641D01*
X135768403Y-87404837D01*
X135757288Y-87383944D01*
X135733501Y-87382925D01*
X135692296Y-87398741D01*
X135630086Y-87427815D01*
X135584341Y-87451963D01*
X135560813Y-87472913D01*
X135553896Y-87495747D01*
X135553886Y-87496877D01*
X135565299Y-87536212D01*
X135599092Y-87557462D01*
X135650809Y-87560539D01*
X135688061Y-87560006D01*
X135707703Y-87570735D01*
X135719952Y-87596505D01*
X135727002Y-87629337D01*
X135716842Y-87647966D01*
X135713017Y-87650632D01*
X135677001Y-87661340D01*
X135626566Y-87662856D01*
X135574626Y-87655759D01*
X135537822Y-87642788D01*
X135486938Y-87599585D01*
X135458014Y-87539446D01*
X135452286Y-87492462D01*
X135456657Y-87450082D01*
X135472475Y-87415488D01*
X135503797Y-87384763D01*
X135554678Y-87353990D01*
X135629176Y-87319252D01*
X135633714Y-87317288D01*
X135700821Y-87286287D01*
X135742232Y-87260862D01*
X135759981Y-87238014D01*
X135756107Y-87214745D01*
X135732643Y-87188056D01*
X135725627Y-87181914D01*
X135678630Y-87158100D01*
X135629933Y-87159103D01*
X135587522Y-87182451D01*
X135559384Y-87225675D01*
X135556769Y-87234160D01*
X135531308Y-87275308D01*
X135499001Y-87295128D01*
X135452286Y-87314770D01*
X135452286Y-87263950D01*
X135466496Y-87190082D01*
X135508675Y-87122327D01*
X135530624Y-87099661D01*
X135580517Y-87070569D01*
X135643967Y-87057400D01*
X135709744Y-87060968D01*
G36*
X135709744Y-87060968D02*
G01*
X135766616Y-87082087D01*
X135767267Y-87082493D01*
X135802440Y-87108380D01*
X135828407Y-87138633D01*
X135846670Y-87178058D01*
X135858732Y-87231462D01*
X135866096Y-87303651D01*
X135870264Y-87399432D01*
X135870629Y-87413078D01*
X135875876Y-87618842D01*
X135831716Y-87641678D01*
X135799763Y-87657110D01*
X135780470Y-87664423D01*
X135779578Y-87664514D01*
X135776239Y-87651022D01*
X135773587Y-87614626D01*
X135771956Y-87561452D01*
X135771600Y-87518393D01*
X135771592Y-87448641D01*
X135768403Y-87404837D01*
X135757288Y-87383944D01*
X135733501Y-87382925D01*
X135692296Y-87398741D01*
X135630086Y-87427815D01*
X135584341Y-87451963D01*
X135560813Y-87472913D01*
X135553896Y-87495747D01*
X135553886Y-87496877D01*
X135565299Y-87536212D01*
X135599092Y-87557462D01*
X135650809Y-87560539D01*
X135688061Y-87560006D01*
X135707703Y-87570735D01*
X135719952Y-87596505D01*
X135727002Y-87629337D01*
X135716842Y-87647966D01*
X135713017Y-87650632D01*
X135677001Y-87661340D01*
X135626566Y-87662856D01*
X135574626Y-87655759D01*
X135537822Y-87642788D01*
X135486938Y-87599585D01*
X135458014Y-87539446D01*
X135452286Y-87492462D01*
X135456657Y-87450082D01*
X135472475Y-87415488D01*
X135503797Y-87384763D01*
X135554678Y-87353990D01*
X135629176Y-87319252D01*
X135633714Y-87317288D01*
X135700821Y-87286287D01*
X135742232Y-87260862D01*
X135759981Y-87238014D01*
X135756107Y-87214745D01*
X135732643Y-87188056D01*
X135725627Y-87181914D01*
X135678630Y-87158100D01*
X135629933Y-87159103D01*
X135587522Y-87182451D01*
X135559384Y-87225675D01*
X135556769Y-87234160D01*
X135531308Y-87275308D01*
X135499001Y-87295128D01*
X135452286Y-87314770D01*
X135452286Y-87263950D01*
X135466496Y-87190082D01*
X135508675Y-87122327D01*
X135530624Y-87099661D01*
X135580517Y-87070569D01*
X135643967Y-87057400D01*
X135709744Y-87060968D01*
G37*
X133269744Y-87029918D02*
X133325201Y-87057568D01*
X133374148Y-87108480D01*
X133387629Y-87127338D01*
X133402314Y-87152015D01*
X133411842Y-87178816D01*
X133417293Y-87214587D01*
X133419747Y-87266169D01*
X133420286Y-87334267D01*
X133417852Y-87427588D01*
X133409394Y-87497657D01*
X133393174Y-87549931D01*
X133367454Y-87589869D01*
X133330497Y-87622929D01*
X133327782Y-87624886D01*
X133291360Y-87644908D01*
X133247502Y-87654815D01*
X133191724Y-87657257D01*
X133101048Y-87657257D01*
X133101010Y-87745283D01*
X133100166Y-87794308D01*
X133095024Y-87823065D01*
X133081587Y-87840311D01*
X133055858Y-87854808D01*
X133049679Y-87857769D01*
X133020764Y-87871648D01*
X132998376Y-87880414D01*
X132981729Y-87881171D01*
X132970036Y-87871023D01*
X132962510Y-87847073D01*
X132958366Y-87806426D01*
X132956815Y-87746186D01*
X132957071Y-87663455D01*
X132958349Y-87555339D01*
X132958748Y-87523000D01*
X132960185Y-87411524D01*
X132961472Y-87338603D01*
X133100971Y-87338603D01*
X133101755Y-87400499D01*
X133105240Y-87440997D01*
X133113124Y-87467708D01*
X133127105Y-87488244D01*
X133136597Y-87498260D01*
X133175404Y-87527567D01*
X133209763Y-87529952D01*
X133245216Y-87505750D01*
X133246114Y-87504857D01*
X133260539Y-87486153D01*
X133269313Y-87460732D01*
X133273739Y-87421584D01*
X133275118Y-87361697D01*
X133275143Y-87348430D01*
X133271812Y-87265901D01*
X133260969Y-87208691D01*
X133241340Y-87173766D01*
X133211650Y-87158094D01*
X133194491Y-87156514D01*
X133153766Y-87163926D01*
X133125832Y-87188330D01*
X133109017Y-87232980D01*
X133101650Y-87301130D01*
X133100971Y-87338603D01*
X132961472Y-87338603D01*
X132961708Y-87325245D01*
X132963677Y-87260333D01*
X132966450Y-87212958D01*
X132970388Y-87179290D01*
X132975849Y-87155498D01*
X132983192Y-87137753D01*
X132992777Y-87122224D01*
X132996887Y-87116381D01*
X133051405Y-87061185D01*
X133120336Y-87029890D01*
X133200072Y-87021165D01*
X133269744Y-87029918D01*
G36*
X133269744Y-87029918D02*
G01*
X133325201Y-87057568D01*
X133374148Y-87108480D01*
X133387629Y-87127338D01*
X133402314Y-87152015D01*
X133411842Y-87178816D01*
X133417293Y-87214587D01*
X133419747Y-87266169D01*
X133420286Y-87334267D01*
X133417852Y-87427588D01*
X133409394Y-87497657D01*
X133393174Y-87549931D01*
X133367454Y-87589869D01*
X133330497Y-87622929D01*
X133327782Y-87624886D01*
X133291360Y-87644908D01*
X133247502Y-87654815D01*
X133191724Y-87657257D01*
X133101048Y-87657257D01*
X133101010Y-87745283D01*
X133100166Y-87794308D01*
X133095024Y-87823065D01*
X133081587Y-87840311D01*
X133055858Y-87854808D01*
X133049679Y-87857769D01*
X133020764Y-87871648D01*
X132998376Y-87880414D01*
X132981729Y-87881171D01*
X132970036Y-87871023D01*
X132962510Y-87847073D01*
X132958366Y-87806426D01*
X132956815Y-87746186D01*
X132957071Y-87663455D01*
X132958349Y-87555339D01*
X132958748Y-87523000D01*
X132960185Y-87411524D01*
X132961472Y-87338603D01*
X133100971Y-87338603D01*
X133101755Y-87400499D01*
X133105240Y-87440997D01*
X133113124Y-87467708D01*
X133127105Y-87488244D01*
X133136597Y-87498260D01*
X133175404Y-87527567D01*
X133209763Y-87529952D01*
X133245216Y-87505750D01*
X133246114Y-87504857D01*
X133260539Y-87486153D01*
X133269313Y-87460732D01*
X133273739Y-87421584D01*
X133275118Y-87361697D01*
X133275143Y-87348430D01*
X133271812Y-87265901D01*
X133260969Y-87208691D01*
X133241340Y-87173766D01*
X133211650Y-87158094D01*
X133194491Y-87156514D01*
X133153766Y-87163926D01*
X133125832Y-87188330D01*
X133109017Y-87232980D01*
X133101650Y-87301130D01*
X133100971Y-87338603D01*
X132961472Y-87338603D01*
X132961708Y-87325245D01*
X132963677Y-87260333D01*
X132966450Y-87212958D01*
X132970388Y-87179290D01*
X132975849Y-87155498D01*
X132983192Y-87137753D01*
X132992777Y-87122224D01*
X132996887Y-87116381D01*
X133051405Y-87061185D01*
X133120336Y-87029890D01*
X133200072Y-87021165D01*
X133269744Y-87029918D01*
G37*
X137814876Y-87066335D02*
X137856667Y-87085344D01*
X137889469Y-87108378D01*
X137913503Y-87134133D01*
X137930097Y-87167358D01*
X137940577Y-87212800D01*
X137946271Y-87275207D01*
X137948507Y-87359327D01*
X137948743Y-87414721D01*
X137948743Y-87630826D01*
X137911774Y-87647670D01*
X137882656Y-87659981D01*
X137868231Y-87664514D01*
X137865472Y-87651025D01*
X137863282Y-87614653D01*
X137861942Y-87561542D01*
X137861657Y-87519372D01*
X137860434Y-87458447D01*
X137857136Y-87410115D01*
X137852321Y-87380518D01*
X137848496Y-87374229D01*
X137822783Y-87380652D01*
X137782418Y-87397125D01*
X137735679Y-87419458D01*
X137690845Y-87443457D01*
X137656193Y-87464930D01*
X137640002Y-87479685D01*
X137639938Y-87479845D01*
X137641330Y-87507152D01*
X137653818Y-87533219D01*
X137675743Y-87554392D01*
X137707743Y-87561474D01*
X137735092Y-87560649D01*
X137773826Y-87560042D01*
X137794158Y-87569116D01*
X137806369Y-87593092D01*
X137807909Y-87597613D01*
X137813203Y-87631806D01*
X137799047Y-87652568D01*
X137762148Y-87662462D01*
X137722289Y-87664292D01*
X137650562Y-87650727D01*
X137613432Y-87631355D01*
X137567576Y-87585845D01*
X137543256Y-87529983D01*
X137541073Y-87470957D01*
X137561629Y-87415953D01*
X137592549Y-87381486D01*
X137623420Y-87362189D01*
X137671942Y-87337759D01*
X137728485Y-87312985D01*
X137737910Y-87309199D01*
X137800019Y-87281791D01*
X137835822Y-87257634D01*
X137847337Y-87233619D01*
X137836580Y-87206635D01*
X137818114Y-87185543D01*
X137774469Y-87159572D01*
X137726446Y-87157624D01*
X137682406Y-87177637D01*
X137650709Y-87217551D01*
X137646549Y-87227848D01*
X137622327Y-87265724D01*
X137586965Y-87293842D01*
X137542343Y-87316917D01*
X137542343Y-87251485D01*
X137544969Y-87211506D01*
X137556230Y-87179997D01*
X137581199Y-87146378D01*
X137605169Y-87120484D01*
X137642441Y-87083817D01*
X137671401Y-87064121D01*
X137702505Y-87056220D01*
X137737713Y-87054914D01*
X137814876Y-87066335D01*
G36*
X137814876Y-87066335D02*
G01*
X137856667Y-87085344D01*
X137889469Y-87108378D01*
X137913503Y-87134133D01*
X137930097Y-87167358D01*
X137940577Y-87212800D01*
X137946271Y-87275207D01*
X137948507Y-87359327D01*
X137948743Y-87414721D01*
X137948743Y-87630826D01*
X137911774Y-87647670D01*
X137882656Y-87659981D01*
X137868231Y-87664514D01*
X137865472Y-87651025D01*
X137863282Y-87614653D01*
X137861942Y-87561542D01*
X137861657Y-87519372D01*
X137860434Y-87458447D01*
X137857136Y-87410115D01*
X137852321Y-87380518D01*
X137848496Y-87374229D01*
X137822783Y-87380652D01*
X137782418Y-87397125D01*
X137735679Y-87419458D01*
X137690845Y-87443457D01*
X137656193Y-87464930D01*
X137640002Y-87479685D01*
X137639938Y-87479845D01*
X137641330Y-87507152D01*
X137653818Y-87533219D01*
X137675743Y-87554392D01*
X137707743Y-87561474D01*
X137735092Y-87560649D01*
X137773826Y-87560042D01*
X137794158Y-87569116D01*
X137806369Y-87593092D01*
X137807909Y-87597613D01*
X137813203Y-87631806D01*
X137799047Y-87652568D01*
X137762148Y-87662462D01*
X137722289Y-87664292D01*
X137650562Y-87650727D01*
X137613432Y-87631355D01*
X137567576Y-87585845D01*
X137543256Y-87529983D01*
X137541073Y-87470957D01*
X137561629Y-87415953D01*
X137592549Y-87381486D01*
X137623420Y-87362189D01*
X137671942Y-87337759D01*
X137728485Y-87312985D01*
X137737910Y-87309199D01*
X137800019Y-87281791D01*
X137835822Y-87257634D01*
X137847337Y-87233619D01*
X137836580Y-87206635D01*
X137818114Y-87185543D01*
X137774469Y-87159572D01*
X137726446Y-87157624D01*
X137682406Y-87177637D01*
X137650709Y-87217551D01*
X137646549Y-87227848D01*
X137622327Y-87265724D01*
X137586965Y-87293842D01*
X137542343Y-87316917D01*
X137542343Y-87251485D01*
X137544969Y-87211506D01*
X137556230Y-87179997D01*
X137581199Y-87146378D01*
X137605169Y-87120484D01*
X137642441Y-87083817D01*
X137671401Y-87064121D01*
X137702505Y-87056220D01*
X137737713Y-87054914D01*
X137814876Y-87066335D01*
G37*
X135773910Y-82352348D02*
X135852454Y-82352778D01*
X135909298Y-82353942D01*
X135948105Y-82356207D01*
X135972538Y-82359940D01*
X135986262Y-82365506D01*
X135992940Y-82373273D01*
X135996236Y-82383605D01*
X135996556Y-82384943D01*
X136001562Y-82409079D01*
X136010829Y-82456701D01*
X136023392Y-82522741D01*
X136038287Y-82602128D01*
X136054551Y-82689796D01*
X136055119Y-82692875D01*
X136071410Y-82778789D01*
X136086652Y-82854696D01*
X136099861Y-82916045D01*
X136110054Y-82958282D01*
X136116248Y-82976855D01*
X136116543Y-82977184D01*
X136134788Y-82986253D01*
X136172405Y-83001367D01*
X136221271Y-83019262D01*
X136221543Y-83019358D01*
X136283093Y-83042493D01*
X136355657Y-83071965D01*
X136424057Y-83101597D01*
X136427294Y-83103062D01*
X136538702Y-83153626D01*
X136785399Y-82985160D01*
X136861077Y-82933803D01*
X136929631Y-82887889D01*
X136987088Y-82850030D01*
X137029476Y-82822837D01*
X137052825Y-82808921D01*
X137055042Y-82807889D01*
X137072010Y-82812484D01*
X137103701Y-82834655D01*
X137151352Y-82875447D01*
X137216198Y-82935905D01*
X137282397Y-83000227D01*
X137346214Y-83063612D01*
X137403329Y-83121451D01*
X137450305Y-83170175D01*
X137483703Y-83206210D01*
X137500085Y-83225984D01*
X137500694Y-83227002D01*
X137502505Y-83240572D01*
X137495683Y-83262733D01*
X137478540Y-83296478D01*
X137449393Y-83344800D01*
X137406555Y-83410692D01*
X137349448Y-83495517D01*
X137298766Y-83570177D01*
X137253461Y-83637140D01*
X137216150Y-83692516D01*
X137189452Y-83732420D01*
X137175985Y-83752962D01*
X137175137Y-83754356D01*
X137176781Y-83774038D01*
X137189245Y-83812293D01*
X137210048Y-83861889D01*
X137217462Y-83877728D01*
X137249814Y-83948290D01*
X137284328Y-84028353D01*
X137312365Y-84097629D01*
X137332568Y-84149045D01*
X137348615Y-84188119D01*
X137357888Y-84208541D01*
X137359041Y-84210114D01*
X137376096Y-84212721D01*
X137416298Y-84219863D01*
X137474302Y-84230523D01*
X137544763Y-84243685D01*
X137622335Y-84258333D01*
X137701672Y-84273449D01*
X137777431Y-84288018D01*
X137844264Y-84301022D01*
X137896828Y-84311445D01*
X137929776Y-84318270D01*
X137937857Y-84320199D01*
X137946205Y-84324962D01*
X137952506Y-84335718D01*
X137957045Y-84356098D01*
X137960104Y-84389734D01*
X137961967Y-84440255D01*
X137962918Y-84511292D01*
X137963240Y-84606476D01*
X137963257Y-84645492D01*
X137963257Y-84962799D01*
X137887057Y-84977839D01*
X137844663Y-84985995D01*
X137781400Y-84997899D01*
X137704962Y-85012116D01*
X137623043Y-85027210D01*
X137600400Y-85031355D01*
X137524806Y-85046053D01*
X137458953Y-85060505D01*
X137408366Y-85073375D01*
X137378574Y-85083322D01*
X137373612Y-85086287D01*
X137361426Y-85107283D01*
X137343953Y-85147967D01*
X137324577Y-85200322D01*
X137320734Y-85211600D01*
X137295339Y-85281523D01*
X137263817Y-85360418D01*
X137232969Y-85431266D01*
X137232817Y-85431595D01*
X137181447Y-85542733D01*
X137350399Y-85791253D01*
X137519352Y-86039772D01*
X137302429Y-86257058D01*
X137236819Y-86321726D01*
X137176979Y-86378733D01*
X137126267Y-86425033D01*
X137088046Y-86457584D01*
X137065675Y-86473343D01*
X137062466Y-86474343D01*
X137043626Y-86466469D01*
X137005180Y-86444578D01*
X136951330Y-86411267D01*
X136886276Y-86369131D01*
X136815940Y-86321943D01*
X136744555Y-86273810D01*
X136680908Y-86231928D01*
X136629041Y-86198871D01*
X136592995Y-86177218D01*
X136576867Y-86169543D01*
X136557189Y-86176037D01*
X136519875Y-86193150D01*
X136472621Y-86217326D01*
X136467612Y-86220013D01*
X136403977Y-86251927D01*
X136360341Y-86267579D01*
X136333202Y-86267745D01*
X136319057Y-86253204D01*
X136318975Y-86253000D01*
X136311905Y-86235779D01*
X136295042Y-86194899D01*
X136269695Y-86133525D01*
X136237171Y-86054819D01*
X136198778Y-85961947D01*
X136155822Y-85858072D01*
X136114222Y-85757502D01*
X136068504Y-85646516D01*
X136026526Y-85543703D01*
X135989548Y-85452215D01*
X135958827Y-85375201D01*
X135935622Y-85315815D01*
X135921190Y-85277209D01*
X135916743Y-85262800D01*
X135927896Y-85246272D01*
X135957069Y-85219930D01*
X135995971Y-85190887D01*
X136106757Y-85099039D01*
X136193351Y-84993759D01*
X136254716Y-84877266D01*
X136289815Y-84751776D01*
X136297608Y-84619507D01*
X136291943Y-84558457D01*
X136261078Y-84431795D01*
X136207920Y-84319941D01*
X136135767Y-84224001D01*
X136047917Y-84145076D01*
X135947665Y-84084270D01*
X135838310Y-84042687D01*
X135723147Y-84021428D01*
X135605475Y-84021599D01*
X135488590Y-84044301D01*
X135375789Y-84090638D01*
X135270369Y-84161713D01*
X135226368Y-84201911D01*
X135141979Y-84305129D01*
X135083222Y-84417925D01*
X135049704Y-84537010D01*
X135041035Y-84659095D01*
X135056823Y-84780893D01*
X135096678Y-84899116D01*
X135160207Y-85010475D01*
X135247021Y-85111684D01*
X135344029Y-85190887D01*
X135384437Y-85221162D01*
X135412982Y-85247219D01*
X135423257Y-85262825D01*
X135417877Y-85279843D01*
X135402575Y-85320500D01*
X135378612Y-85381642D01*
X135347244Y-85460119D01*
X135309732Y-85552780D01*
X135267333Y-85656472D01*
X135225663Y-85757526D01*
X135179690Y-85868607D01*
X135137107Y-85971541D01*
X135099221Y-86063165D01*
X135067340Y-86140316D01*
X135042771Y-86199831D01*
X135026820Y-86238544D01*
X135020910Y-86253000D01*
X135006948Y-86267685D01*
X134979940Y-86267642D01*
X134936413Y-86252099D01*
X134872890Y-86220284D01*
X134872388Y-86220013D01*
X134824560Y-86195323D01*
X134785897Y-86177338D01*
X134764095Y-86169614D01*
X134763133Y-86169543D01*
X134746721Y-86177378D01*
X134710487Y-86199165D01*
X134658474Y-86232328D01*
X134594725Y-86274291D01*
X134524060Y-86321943D01*
X134452116Y-86370191D01*
X134387274Y-86412151D01*
X134333735Y-86445227D01*
X134295697Y-86466821D01*
X134277533Y-86474343D01*
X134260808Y-86464457D01*
X134227180Y-86436826D01*
X134180010Y-86394495D01*
X134122658Y-86340505D01*
X134058484Y-86277899D01*
X134037497Y-86256983D01*
X133820499Y-86039623D01*
X133985668Y-85797220D01*
X134035864Y-85722781D01*
X134079919Y-85655972D01*
X134115362Y-85600665D01*
X134139719Y-85560729D01*
X134150522Y-85540036D01*
X134150838Y-85538563D01*
X134145143Y-85519058D01*
X134129826Y-85479822D01*
X134107537Y-85427430D01*
X134091893Y-85392355D01*
X134062641Y-85325201D01*
X134035094Y-85257358D01*
X134013737Y-85200034D01*
X134007935Y-85182572D01*
X133991452Y-85135938D01*
X133975340Y-85099905D01*
X133966490Y-85086287D01*
X133946960Y-85077952D01*
X133904334Y-85066137D01*
X133844145Y-85052181D01*
X133771922Y-85037422D01*
X133739600Y-85031355D01*
X133657522Y-85016273D01*
X133578795Y-85001669D01*
X133511109Y-84988980D01*
X133462160Y-84979642D01*
X133452943Y-84977839D01*
X133376743Y-84962799D01*
X133376743Y-84645492D01*
X133376914Y-84541154D01*
X133377616Y-84462213D01*
X133379134Y-84405038D01*
X133381749Y-84365999D01*
X133385746Y-84341465D01*
X133391409Y-84327805D01*
X133399020Y-84321389D01*
X133402143Y-84320199D01*
X133420978Y-84315980D01*
X133462588Y-84307562D01*
X133521630Y-84295961D01*
X133592757Y-84282195D01*
X133670625Y-84267280D01*
X133749887Y-84252232D01*
X133825198Y-84238069D01*
X133891213Y-84225806D01*
X133942587Y-84216461D01*
X133973975Y-84211050D01*
X133980959Y-84210114D01*
X133987285Y-84197596D01*
X134001290Y-84164246D01*
X134020355Y-84116377D01*
X134027634Y-84097629D01*
X134056996Y-84025195D01*
X134091571Y-83945170D01*
X134122537Y-83877728D01*
X134145323Y-83826159D01*
X134160482Y-83783785D01*
X134165542Y-83757834D01*
X134164736Y-83754356D01*
X134154041Y-83737936D01*
X134129620Y-83701417D01*
X134094095Y-83648687D01*
X134050087Y-83583635D01*
X134000217Y-83510151D01*
X133990356Y-83495645D01*
X133932492Y-83409704D01*
X133889956Y-83344261D01*
X133861054Y-83296304D01*
X133844090Y-83262820D01*
X133837367Y-83240795D01*
X133839190Y-83227217D01*
X133839236Y-83227131D01*
X133853586Y-83209297D01*
X133885323Y-83174817D01*
X133931010Y-83127268D01*
X133987204Y-83070222D01*
X134050468Y-83007255D01*
X134057602Y-83000227D01*
X134137330Y-82923020D01*
X134198857Y-82866330D01*
X134243421Y-82829110D01*
X134272257Y-82810315D01*
X134284958Y-82807889D01*
X134303494Y-82818471D01*
X134341961Y-82842916D01*
X134396386Y-82878612D01*
X134462798Y-82922947D01*
X134537225Y-82973311D01*
X134554601Y-82985160D01*
X134801297Y-83153626D01*
X134912706Y-83103062D01*
X134980457Y-83073595D01*
X135053183Y-83043959D01*
X135115703Y-83020330D01*
X135118457Y-83019358D01*
X135167360Y-83001457D01*
X135205057Y-82986320D01*
X135223425Y-82977210D01*
X135223456Y-82977184D01*
X135229285Y-82960717D01*
X135239192Y-82920219D01*
X135252195Y-82860242D01*
X135267309Y-82785340D01*
X135283552Y-82700064D01*
X135284881Y-82692875D01*
X135301175Y-82605014D01*
X135316133Y-82525260D01*
X135328791Y-82458681D01*
X135338186Y-82410347D01*
X135343354Y-82385325D01*
X135343444Y-82384943D01*
X135346589Y-82374299D01*
X135352704Y-82366262D01*
X135365453Y-82360467D01*
X135388500Y-82356547D01*
X135425509Y-82354135D01*
X135480144Y-82352865D01*
X135556067Y-82352371D01*
X135656944Y-82352286D01*
X135670000Y-82352286D01*
X135773910Y-82352348D01*
G36*
X135773910Y-82352348D02*
G01*
X135852454Y-82352778D01*
X135909298Y-82353942D01*
X135948105Y-82356207D01*
X135972538Y-82359940D01*
X135986262Y-82365506D01*
X135992940Y-82373273D01*
X135996236Y-82383605D01*
X135996556Y-82384943D01*
X136001562Y-82409079D01*
X136010829Y-82456701D01*
X136023392Y-82522741D01*
X136038287Y-82602128D01*
X136054551Y-82689796D01*
X136055119Y-82692875D01*
X136071410Y-82778789D01*
X136086652Y-82854696D01*
X136099861Y-82916045D01*
X136110054Y-82958282D01*
X136116248Y-82976855D01*
X136116543Y-82977184D01*
X136134788Y-82986253D01*
X136172405Y-83001367D01*
X136221271Y-83019262D01*
X136221543Y-83019358D01*
X136283093Y-83042493D01*
X136355657Y-83071965D01*
X136424057Y-83101597D01*
X136427294Y-83103062D01*
X136538702Y-83153626D01*
X136785399Y-82985160D01*
X136861077Y-82933803D01*
X136929631Y-82887889D01*
X136987088Y-82850030D01*
X137029476Y-82822837D01*
X137052825Y-82808921D01*
X137055042Y-82807889D01*
X137072010Y-82812484D01*
X137103701Y-82834655D01*
X137151352Y-82875447D01*
X137216198Y-82935905D01*
X137282397Y-83000227D01*
X137346214Y-83063612D01*
X137403329Y-83121451D01*
X137450305Y-83170175D01*
X137483703Y-83206210D01*
X137500085Y-83225984D01*
X137500694Y-83227002D01*
X137502505Y-83240572D01*
X137495683Y-83262733D01*
X137478540Y-83296478D01*
X137449393Y-83344800D01*
X137406555Y-83410692D01*
X137349448Y-83495517D01*
X137298766Y-83570177D01*
X137253461Y-83637140D01*
X137216150Y-83692516D01*
X137189452Y-83732420D01*
X137175985Y-83752962D01*
X137175137Y-83754356D01*
X137176781Y-83774038D01*
X137189245Y-83812293D01*
X137210048Y-83861889D01*
X137217462Y-83877728D01*
X137249814Y-83948290D01*
X137284328Y-84028353D01*
X137312365Y-84097629D01*
X137332568Y-84149045D01*
X137348615Y-84188119D01*
X137357888Y-84208541D01*
X137359041Y-84210114D01*
X137376096Y-84212721D01*
X137416298Y-84219863D01*
X137474302Y-84230523D01*
X137544763Y-84243685D01*
X137622335Y-84258333D01*
X137701672Y-84273449D01*
X137777431Y-84288018D01*
X137844264Y-84301022D01*
X137896828Y-84311445D01*
X137929776Y-84318270D01*
X137937857Y-84320199D01*
X137946205Y-84324962D01*
X137952506Y-84335718D01*
X137957045Y-84356098D01*
X137960104Y-84389734D01*
X137961967Y-84440255D01*
X137962918Y-84511292D01*
X137963240Y-84606476D01*
X137963257Y-84645492D01*
X137963257Y-84962799D01*
X137887057Y-84977839D01*
X137844663Y-84985995D01*
X137781400Y-84997899D01*
X137704962Y-85012116D01*
X137623043Y-85027210D01*
X137600400Y-85031355D01*
X137524806Y-85046053D01*
X137458953Y-85060505D01*
X137408366Y-85073375D01*
X137378574Y-85083322D01*
X137373612Y-85086287D01*
X137361426Y-85107283D01*
X137343953Y-85147967D01*
X137324577Y-85200322D01*
X137320734Y-85211600D01*
X137295339Y-85281523D01*
X137263817Y-85360418D01*
X137232969Y-85431266D01*
X137232817Y-85431595D01*
X137181447Y-85542733D01*
X137350399Y-85791253D01*
X137519352Y-86039772D01*
X137302429Y-86257058D01*
X137236819Y-86321726D01*
X137176979Y-86378733D01*
X137126267Y-86425033D01*
X137088046Y-86457584D01*
X137065675Y-86473343D01*
X137062466Y-86474343D01*
X137043626Y-86466469D01*
X137005180Y-86444578D01*
X136951330Y-86411267D01*
X136886276Y-86369131D01*
X136815940Y-86321943D01*
X136744555Y-86273810D01*
X136680908Y-86231928D01*
X136629041Y-86198871D01*
X136592995Y-86177218D01*
X136576867Y-86169543D01*
X136557189Y-86176037D01*
X136519875Y-86193150D01*
X136472621Y-86217326D01*
X136467612Y-86220013D01*
X136403977Y-86251927D01*
X136360341Y-86267579D01*
X136333202Y-86267745D01*
X136319057Y-86253204D01*
X136318975Y-86253000D01*
X136311905Y-86235779D01*
X136295042Y-86194899D01*
X136269695Y-86133525D01*
X136237171Y-86054819D01*
X136198778Y-85961947D01*
X136155822Y-85858072D01*
X136114222Y-85757502D01*
X136068504Y-85646516D01*
X136026526Y-85543703D01*
X135989548Y-85452215D01*
X135958827Y-85375201D01*
X135935622Y-85315815D01*
X135921190Y-85277209D01*
X135916743Y-85262800D01*
X135927896Y-85246272D01*
X135957069Y-85219930D01*
X135995971Y-85190887D01*
X136106757Y-85099039D01*
X136193351Y-84993759D01*
X136254716Y-84877266D01*
X136289815Y-84751776D01*
X136297608Y-84619507D01*
X136291943Y-84558457D01*
X136261078Y-84431795D01*
X136207920Y-84319941D01*
X136135767Y-84224001D01*
X136047917Y-84145076D01*
X135947665Y-84084270D01*
X135838310Y-84042687D01*
X135723147Y-84021428D01*
X135605475Y-84021599D01*
X135488590Y-84044301D01*
X135375789Y-84090638D01*
X135270369Y-84161713D01*
X135226368Y-84201911D01*
X135141979Y-84305129D01*
X135083222Y-84417925D01*
X135049704Y-84537010D01*
X135041035Y-84659095D01*
X135056823Y-84780893D01*
X135096678Y-84899116D01*
X135160207Y-85010475D01*
X135247021Y-85111684D01*
X135344029Y-85190887D01*
X135384437Y-85221162D01*
X135412982Y-85247219D01*
X135423257Y-85262825D01*
X135417877Y-85279843D01*
X135402575Y-85320500D01*
X135378612Y-85381642D01*
X135347244Y-85460119D01*
X135309732Y-85552780D01*
X135267333Y-85656472D01*
X135225663Y-85757526D01*
X135179690Y-85868607D01*
X135137107Y-85971541D01*
X135099221Y-86063165D01*
X135067340Y-86140316D01*
X135042771Y-86199831D01*
X135026820Y-86238544D01*
X135020910Y-86253000D01*
X135006948Y-86267685D01*
X134979940Y-86267642D01*
X134936413Y-86252099D01*
X134872890Y-86220284D01*
X134872388Y-86220013D01*
X134824560Y-86195323D01*
X134785897Y-86177338D01*
X134764095Y-86169614D01*
X134763133Y-86169543D01*
X134746721Y-86177378D01*
X134710487Y-86199165D01*
X134658474Y-86232328D01*
X134594725Y-86274291D01*
X134524060Y-86321943D01*
X134452116Y-86370191D01*
X134387274Y-86412151D01*
X134333735Y-86445227D01*
X134295697Y-86466821D01*
X134277533Y-86474343D01*
X134260808Y-86464457D01*
X134227180Y-86436826D01*
X134180010Y-86394495D01*
X134122658Y-86340505D01*
X134058484Y-86277899D01*
X134037497Y-86256983D01*
X133820499Y-86039623D01*
X133985668Y-85797220D01*
X134035864Y-85722781D01*
X134079919Y-85655972D01*
X134115362Y-85600665D01*
X134139719Y-85560729D01*
X134150522Y-85540036D01*
X134150838Y-85538563D01*
X134145143Y-85519058D01*
X134129826Y-85479822D01*
X134107537Y-85427430D01*
X134091893Y-85392355D01*
X134062641Y-85325201D01*
X134035094Y-85257358D01*
X134013737Y-85200034D01*
X134007935Y-85182572D01*
X133991452Y-85135938D01*
X133975340Y-85099905D01*
X133966490Y-85086287D01*
X133946960Y-85077952D01*
X133904334Y-85066137D01*
X133844145Y-85052181D01*
X133771922Y-85037422D01*
X133739600Y-85031355D01*
X133657522Y-85016273D01*
X133578795Y-85001669D01*
X133511109Y-84988980D01*
X133462160Y-84979642D01*
X133452943Y-84977839D01*
X133376743Y-84962799D01*
X133376743Y-84645492D01*
X133376914Y-84541154D01*
X133377616Y-84462213D01*
X133379134Y-84405038D01*
X133381749Y-84365999D01*
X133385746Y-84341465D01*
X133391409Y-84327805D01*
X133399020Y-84321389D01*
X133402143Y-84320199D01*
X133420978Y-84315980D01*
X133462588Y-84307562D01*
X133521630Y-84295961D01*
X133592757Y-84282195D01*
X133670625Y-84267280D01*
X133749887Y-84252232D01*
X133825198Y-84238069D01*
X133891213Y-84225806D01*
X133942587Y-84216461D01*
X133973975Y-84211050D01*
X133980959Y-84210114D01*
X133987285Y-84197596D01*
X134001290Y-84164246D01*
X134020355Y-84116377D01*
X134027634Y-84097629D01*
X134056996Y-84025195D01*
X134091571Y-83945170D01*
X134122537Y-83877728D01*
X134145323Y-83826159D01*
X134160482Y-83783785D01*
X134165542Y-83757834D01*
X134164736Y-83754356D01*
X134154041Y-83737936D01*
X134129620Y-83701417D01*
X134094095Y-83648687D01*
X134050087Y-83583635D01*
X134000217Y-83510151D01*
X133990356Y-83495645D01*
X133932492Y-83409704D01*
X133889956Y-83344261D01*
X133861054Y-83296304D01*
X133844090Y-83262820D01*
X133837367Y-83240795D01*
X133839190Y-83227217D01*
X133839236Y-83227131D01*
X133853586Y-83209297D01*
X133885323Y-83174817D01*
X133931010Y-83127268D01*
X133987204Y-83070222D01*
X134050468Y-83007255D01*
X134057602Y-83000227D01*
X134137330Y-82923020D01*
X134198857Y-82866330D01*
X134243421Y-82829110D01*
X134272257Y-82810315D01*
X134284958Y-82807889D01*
X134303494Y-82818471D01*
X134341961Y-82842916D01*
X134396386Y-82878612D01*
X134462798Y-82922947D01*
X134537225Y-82973311D01*
X134554601Y-82985160D01*
X134801297Y-83153626D01*
X134912706Y-83103062D01*
X134980457Y-83073595D01*
X135053183Y-83043959D01*
X135115703Y-83020330D01*
X135118457Y-83019358D01*
X135167360Y-83001457D01*
X135205057Y-82986320D01*
X135223425Y-82977210D01*
X135223456Y-82977184D01*
X135229285Y-82960717D01*
X135239192Y-82920219D01*
X135252195Y-82860242D01*
X135267309Y-82785340D01*
X135283552Y-82700064D01*
X135284881Y-82692875D01*
X135301175Y-82605014D01*
X135316133Y-82525260D01*
X135328791Y-82458681D01*
X135338186Y-82410347D01*
X135343354Y-82385325D01*
X135343444Y-82384943D01*
X135346589Y-82374299D01*
X135352704Y-82366262D01*
X135365453Y-82360467D01*
X135388500Y-82356547D01*
X135425509Y-82354135D01*
X135480144Y-82352865D01*
X135556067Y-82352371D01*
X135656944Y-82352286D01*
X135670000Y-82352286D01*
X135773910Y-82352348D01*
G37*
D12*
%TO.C,R2*%
X155830000Y-106912936D02*
X155830000Y-108367064D01*
X157650000Y-106912936D02*
X157650000Y-108367064D01*
%TO.C,U1*%
D11*
X146420000Y-85140000D02*
X148220000Y-85140000D01*
X148220000Y-86348832D01*
X146420000Y-86348832D01*
X146420000Y-85140000D01*
X152411169Y-91440000D02*
G75*
G02*
X142228831Y-91440000I-5091169J0D01*
G01*
X142228831Y-91440000D02*
G75*
G02*
X152411169Y-91440000I5091169J0D01*
G01*
%TO.C,U2*%
X146420000Y-102920000D02*
X148220000Y-102920000D01*
X148220000Y-104128832D01*
X146420000Y-104128832D01*
X146420000Y-102920000D01*
X152411169Y-109220000D02*
G75*
G02*
X142228831Y-109220000I-5091169J0D01*
G01*
X142228831Y-109220000D02*
G75*
G02*
X152411169Y-109220000I5091169J0D01*
G01*
%TD*%
M02*
