<?xml version="1.0" standalone="no"?>
 <!DOCTYPE svg PUBLIC "-//W3C//DTD SVG 1.1//EN" 
 "http://www.w3.org/Graphics/SVG/1.1/DTD/svg11.dtd"> 
<svg
  xmlns:svg="http://www.w3.org/2000/svg"
  xmlns="http://www.w3.org/2000/svg"
  xmlns:xlink="http://www.w3.org/1999/xlink"
  version="1.1"
  width="297.0022mm" height="210.0072mm" viewBox="0.0000 0.0000 297.0022 210.0072">
<title>SVG Image created as TGS2600-B_Cu.svg date 2024/08/01 16:29:04 </title>
  <desc>Image generated by PCBNEW </desc>
<g style="fill:#000000; fill-opacity:1.0000;stroke:#000000; stroke-opacity:1.0000;
stroke-linecap:round; stroke-linejoin:round;"
 transform="translate(0 0) scale(1 1)">
</g>
<g style="fill:none; 
stroke:#000000; stroke-width:0.1500; stroke-opacity:1; 
stroke-linecap:round; stroke-linejoin:round;">
<path d="M177.0022 166.0072
L285.0022 166.0072
L285.0022 198.0072
L177.0022 198.0072
L177.0022 166.0072
" />
</g>
<g style="fill:none; 
stroke:#000000; stroke-width:0.1500; stroke-opacity:1; 
stroke-linecap:round; stroke-linejoin:round;">
<path d="M10.0000 10.0000
L287.0022 10.0000
L287.0022 200.0072
L10.0000 200.0072
L10.0000 10.0000
" />
</g>
<g style="fill:none; 
stroke:#000000; stroke-width:0.1500; stroke-opacity:1; 
stroke-linecap:round; stroke-linejoin:round;">
<path d="M12.0000 12.0000
L285.0022 12.0000
L285.0022 198.0072
L12.0000 198.0072
L12.0000 12.0000
" />
</g>
<g style="fill:none; 
stroke:#000000; stroke-width:0.1500; stroke-opacity:1; 
stroke-linecap:round; stroke-linejoin:round;">
<path d="M60.0000 12.0000
L60.0000 10.0000
" />
</g>
<g style="fill:none; 
stroke:#000000; stroke-width:0.1500; stroke-opacity:1; 
stroke-linecap:round; stroke-linejoin:round;">
<path d="M110.0000 12.0000
L110.0000 10.0000
" />
</g>
<g style="fill:none; 
stroke:#000000; stroke-width:0.1500; stroke-opacity:1; 
stroke-linecap:round; stroke-linejoin:round;">
<path d="M160.0000 12.0000
L160.0000 10.0000
" />
</g>
<g style="fill:none; 
stroke:#000000; stroke-width:0.1500; stroke-opacity:1; 
stroke-linecap:round; stroke-linejoin:round;">
<path d="M210.0000 12.0000
L210.0000 10.0000
" />
</g>
<g style="fill:none; 
stroke:#000000; stroke-width:0.1500; stroke-opacity:1; 
stroke-linecap:round; stroke-linejoin:round;">
<path d="M260.0000 12.0000
L260.0000 10.0000
" />
</g>
<g style="fill:none; 
stroke:#000000; stroke-width:0.1500; stroke-opacity:1; 
stroke-linecap:round; stroke-linejoin:round;">
<text x="35.0000" y="11.6500"
textLength="1.4281" font-size="1.7333" lengthAdjust="spacingAndGlyphs"
text-anchor="start" opacity="0" stroke-opacity="0">1</text>
<g class="stroked-text"><desc>1</desc>
<path d="M36.0892 11.5936
L35.3463 11.5936
" />
<path d="M35.7177 11.5936
L35.7177 10.2936
" />
<path d="M35.7177 10.2936
L35.5939 10.4793
" />
<path d="M35.5939 10.4793
L35.4701 10.6031
" />
<path d="M35.4701 10.6031
L35.3463 10.6650
" />
</g></g>
<g style="fill:none; 
stroke:#000000; stroke-width:0.1500; stroke-opacity:1; 
stroke-linecap:round; stroke-linejoin:round;">
<text x="85.0000" y="11.6500"
textLength="1.4281" font-size="1.7333" lengthAdjust="spacingAndGlyphs"
text-anchor="start" opacity="0" stroke-opacity="0">2</text>
<g class="stroked-text"><desc>2</desc>
<path d="M85.3463 10.4174
L85.4082 10.3555
" />
<path d="M85.4082 10.3555
L85.5320 10.2936
" />
<path d="M85.5320 10.2936
L85.8415 10.2936
" />
<path d="M85.8415 10.2936
L85.9654 10.3555
" />
<path d="M85.9654 10.3555
L86.0273 10.4174
" />
<path d="M86.0273 10.4174
L86.0892 10.5412
" />
<path d="M86.0892 10.5412
L86.0892 10.6650
" />
<path d="M86.0892 10.6650
L86.0273 10.8507
" />
<path d="M86.0273 10.8507
L85.2844 11.5936
" />
<path d="M85.2844 11.5936
L86.0892 11.5936
" />
</g></g>
<g style="fill:none; 
stroke:#000000; stroke-width:0.1500; stroke-opacity:1; 
stroke-linecap:round; stroke-linejoin:round;">
<text x="135.0000" y="11.6500"
textLength="1.4281" font-size="1.7333" lengthAdjust="spacingAndGlyphs"
text-anchor="start" opacity="0" stroke-opacity="0">3</text>
<g class="stroked-text"><desc>3</desc>
<path d="M135.2844 10.2936
L136.0892 10.2936
" />
<path d="M136.0892 10.2936
L135.6558 10.7888
" />
<path d="M135.6558 10.7888
L135.8415 10.7888
" />
<path d="M135.8415 10.7888
L135.9654 10.8507
" />
<path d="M135.9654 10.8507
L136.0273 10.9127
" />
<path d="M136.0273 10.9127
L136.0892 11.0365
" />
<path d="M136.0892 11.0365
L136.0892 11.3460
" />
<path d="M136.0892 11.3460
L136.0273 11.4698
" />
<path d="M136.0273 11.4698
L135.9654 11.5317
" />
<path d="M135.9654 11.5317
L135.8415 11.5936
" />
<path d="M135.8415 11.5936
L135.4701 11.5936
" />
<path d="M135.4701 11.5936
L135.3463 11.5317
" />
<path d="M135.3463 11.5317
L135.2844 11.4698
" />
</g></g>
<g style="fill:none; 
stroke:#000000; stroke-width:0.1500; stroke-opacity:1; 
stroke-linecap:round; stroke-linejoin:round;">
<text x="185.0000" y="11.6500"
textLength="1.4281" font-size="1.7333" lengthAdjust="spacingAndGlyphs"
text-anchor="start" opacity="0" stroke-opacity="0">4</text>
<g class="stroked-text"><desc>4</desc>
<path d="M185.9654 10.7269
L185.9654 11.5936
" />
<path d="M185.6558 10.2317
L185.3463 11.1603
" />
<path d="M185.3463 11.1603
L186.1511 11.1603
" />
</g></g>
<g style="fill:none; 
stroke:#000000; stroke-width:0.1500; stroke-opacity:1; 
stroke-linecap:round; stroke-linejoin:round;">
<text x="235.0000" y="11.6500"
textLength="1.4281" font-size="1.7333" lengthAdjust="spacingAndGlyphs"
text-anchor="start" opacity="0" stroke-opacity="0">5</text>
<g class="stroked-text"><desc>5</desc>
<path d="M236.0273 10.2936
L235.4082 10.2936
" />
<path d="M235.4082 10.2936
L235.3463 10.9127
" />
<path d="M235.3463 10.9127
L235.4082 10.8507
" />
<path d="M235.4082 10.8507
L235.5320 10.7888
" />
<path d="M235.5320 10.7888
L235.8415 10.7888
" />
<path d="M235.8415 10.7888
L235.9654 10.8507
" />
<path d="M235.9654 10.8507
L236.0273 10.9127
" />
<path d="M236.0273 10.9127
L236.0892 11.0365
" />
<path d="M236.0892 11.0365
L236.0892 11.3460
" />
<path d="M236.0892 11.3460
L236.0273 11.4698
" />
<path d="M236.0273 11.4698
L235.9654 11.5317
" />
<path d="M235.9654 11.5317
L235.8415 11.5936
" />
<path d="M235.8415 11.5936
L235.5320 11.5936
" />
<path d="M235.5320 11.5936
L235.4082 11.5317
" />
<path d="M235.4082 11.5317
L235.3463 11.4698
" />
</g></g>
<g style="fill:none; 
stroke:#000000; stroke-width:0.1500; stroke-opacity:1; 
stroke-linecap:round; stroke-linejoin:round;">
<text x="285.0000" y="11.6500"
textLength="1.4281" font-size="1.7333" lengthAdjust="spacingAndGlyphs"
text-anchor="start" opacity="0" stroke-opacity="0">6</text>
<g class="stroked-text"><desc>6</desc>
<path d="M285.9654 10.2936
L285.7177 10.2936
" />
<path d="M285.7177 10.2936
L285.5939 10.3555
" />
<path d="M285.5939 10.3555
L285.5320 10.4174
" />
<path d="M285.5320 10.4174
L285.4082 10.6031
" />
<path d="M285.4082 10.6031
L285.3463 10.8507
" />
<path d="M285.3463 10.8507
L285.3463 11.3460
" />
<path d="M285.3463 11.3460
L285.4082 11.4698
" />
<path d="M285.4082 11.4698
L285.4701 11.5317
" />
<path d="M285.4701 11.5317
L285.5939 11.5936
" />
<path d="M285.5939 11.5936
L285.8415 11.5936
" />
<path d="M285.8415 11.5936
L285.9654 11.5317
" />
<path d="M285.9654 11.5317
L286.0273 11.4698
" />
<path d="M286.0273 11.4698
L286.0892 11.3460
" />
<path d="M286.0892 11.3460
L286.0892 11.0365
" />
<path d="M286.0892 11.0365
L286.0273 10.9127
" />
<path d="M286.0273 10.9127
L285.9654 10.8507
" />
<path d="M285.9654 10.8507
L285.8415 10.7888
" />
<path d="M285.8415 10.7888
L285.5939 10.7888
" />
<path d="M285.5939 10.7888
L285.4701 10.8507
" />
<path d="M285.4701 10.8507
L285.4082 10.9127
" />
<path d="M285.4082 10.9127
L285.3463 11.0365
" />
</g></g>
<g style="fill:none; 
stroke:#000000; stroke-width:0.1500; stroke-opacity:1; 
stroke-linecap:round; stroke-linejoin:round;">
<path d="M60.0000 198.0072
L60.0000 200.0072
" />
</g>
<g style="fill:none; 
stroke:#000000; stroke-width:0.1500; stroke-opacity:1; 
stroke-linecap:round; stroke-linejoin:round;">
<path d="M110.0000 198.0072
L110.0000 200.0072
" />
</g>
<g style="fill:none; 
stroke:#000000; stroke-width:0.1500; stroke-opacity:1; 
stroke-linecap:round; stroke-linejoin:round;">
<path d="M160.0000 198.0072
L160.0000 200.0072
" />
</g>
<g style="fill:none; 
stroke:#000000; stroke-width:0.1500; stroke-opacity:1; 
stroke-linecap:round; stroke-linejoin:round;">
<path d="M210.0000 198.0072
L210.0000 200.0072
" />
</g>
<g style="fill:none; 
stroke:#000000; stroke-width:0.1500; stroke-opacity:1; 
stroke-linecap:round; stroke-linejoin:round;">
<path d="M260.0000 198.0072
L260.0000 200.0072
" />
</g>
<g style="fill:none; 
stroke:#000000; stroke-width:0.1500; stroke-opacity:1; 
stroke-linecap:round; stroke-linejoin:round;">
<text x="35.0000" y="199.6572"
textLength="1.4281" font-size="1.7333" lengthAdjust="spacingAndGlyphs"
text-anchor="start" opacity="0" stroke-opacity="0">1</text>
<g class="stroked-text"><desc>1</desc>
<path d="M36.0892 199.6008
L35.3463 199.6008
" />
<path d="M35.7177 199.6008
L35.7177 198.3008
" />
<path d="M35.7177 198.3008
L35.5939 198.4865
" />
<path d="M35.5939 198.4865
L35.4701 198.6103
" />
<path d="M35.4701 198.6103
L35.3463 198.6722
" />
</g></g>
<g style="fill:none; 
stroke:#000000; stroke-width:0.1500; stroke-opacity:1; 
stroke-linecap:round; stroke-linejoin:round;">
<text x="85.0000" y="199.6572"
textLength="1.4281" font-size="1.7333" lengthAdjust="spacingAndGlyphs"
text-anchor="start" opacity="0" stroke-opacity="0">2</text>
<g class="stroked-text"><desc>2</desc>
<path d="M85.3463 198.4246
L85.4082 198.3627
" />
<path d="M85.4082 198.3627
L85.5320 198.3008
" />
<path d="M85.5320 198.3008
L85.8415 198.3008
" />
<path d="M85.8415 198.3008
L85.9654 198.3627
" />
<path d="M85.9654 198.3627
L86.0273 198.4246
" />
<path d="M86.0273 198.4246
L86.0892 198.5484
" />
<path d="M86.0892 198.5484
L86.0892 198.6722
" />
<path d="M86.0892 198.6722
L86.0273 198.8579
" />
<path d="M86.0273 198.8579
L85.2844 199.6008
" />
<path d="M85.2844 199.6008
L86.0892 199.6008
" />
</g></g>
<g style="fill:none; 
stroke:#000000; stroke-width:0.1500; stroke-opacity:1; 
stroke-linecap:round; stroke-linejoin:round;">
<text x="135.0000" y="199.6572"
textLength="1.4281" font-size="1.7333" lengthAdjust="spacingAndGlyphs"
text-anchor="start" opacity="0" stroke-opacity="0">3</text>
<g class="stroked-text"><desc>3</desc>
<path d="M135.2844 198.3008
L136.0892 198.3008
" />
<path d="M136.0892 198.3008
L135.6558 198.7960
" />
<path d="M135.6558 198.7960
L135.8415 198.7960
" />
<path d="M135.8415 198.7960
L135.9654 198.8579
" />
<path d="M135.9654 198.8579
L136.0273 198.9199
" />
<path d="M136.0273 198.9199
L136.0892 199.0437
" />
<path d="M136.0892 199.0437
L136.0892 199.3532
" />
<path d="M136.0892 199.3532
L136.0273 199.4770
" />
<path d="M136.0273 199.4770
L135.9654 199.5389
" />
<path d="M135.9654 199.5389
L135.8415 199.6008
" />
<path d="M135.8415 199.6008
L135.4701 199.6008
" />
<path d="M135.4701 199.6008
L135.3463 199.5389
" />
<path d="M135.3463 199.5389
L135.2844 199.4770
" />
</g></g>
<g style="fill:none; 
stroke:#000000; stroke-width:0.1500; stroke-opacity:1; 
stroke-linecap:round; stroke-linejoin:round;">
<text x="185.0000" y="199.6572"
textLength="1.4281" font-size="1.7333" lengthAdjust="spacingAndGlyphs"
text-anchor="start" opacity="0" stroke-opacity="0">4</text>
<g class="stroked-text"><desc>4</desc>
<path d="M185.9654 198.7341
L185.9654 199.6008
" />
<path d="M185.6558 198.2389
L185.3463 199.1675
" />
<path d="M185.3463 199.1675
L186.1511 199.1675
" />
</g></g>
<g style="fill:none; 
stroke:#000000; stroke-width:0.1500; stroke-opacity:1; 
stroke-linecap:round; stroke-linejoin:round;">
<text x="235.0000" y="199.6572"
textLength="1.4281" font-size="1.7333" lengthAdjust="spacingAndGlyphs"
text-anchor="start" opacity="0" stroke-opacity="0">5</text>
<g class="stroked-text"><desc>5</desc>
<path d="M236.0273 198.3008
L235.4082 198.3008
" />
<path d="M235.4082 198.3008
L235.3463 198.9199
" />
<path d="M235.3463 198.9199
L235.4082 198.8579
" />
<path d="M235.4082 198.8579
L235.5320 198.7960
" />
<path d="M235.5320 198.7960
L235.8415 198.7960
" />
<path d="M235.8415 198.7960
L235.9654 198.8579
" />
<path d="M235.9654 198.8579
L236.0273 198.9199
" />
<path d="M236.0273 198.9199
L236.0892 199.0437
" />
<path d="M236.0892 199.0437
L236.0892 199.3532
" />
<path d="M236.0892 199.3532
L236.0273 199.4770
" />
<path d="M236.0273 199.4770
L235.9654 199.5389
" />
<path d="M235.9654 199.5389
L235.8415 199.6008
" />
<path d="M235.8415 199.6008
L235.5320 199.6008
" />
<path d="M235.5320 199.6008
L235.4082 199.5389
" />
<path d="M235.4082 199.5389
L235.3463 199.4770
" />
</g></g>
<g style="fill:none; 
stroke:#000000; stroke-width:0.1500; stroke-opacity:1; 
stroke-linecap:round; stroke-linejoin:round;">
<text x="285.0000" y="199.6572"
textLength="1.4281" font-size="1.7333" lengthAdjust="spacingAndGlyphs"
text-anchor="start" opacity="0" stroke-opacity="0">6</text>
<g class="stroked-text"><desc>6</desc>
<path d="M285.9654 198.3008
L285.7177 198.3008
" />
<path d="M285.7177 198.3008
L285.5939 198.3627
" />
<path d="M285.5939 198.3627
L285.5320 198.4246
" />
<path d="M285.5320 198.4246
L285.4082 198.6103
" />
<path d="M285.4082 198.6103
L285.3463 198.8579
" />
<path d="M285.3463 198.8579
L285.3463 199.3532
" />
<path d="M285.3463 199.3532
L285.4082 199.4770
" />
<path d="M285.4082 199.4770
L285.4701 199.5389
" />
<path d="M285.4701 199.5389
L285.5939 199.6008
" />
<path d="M285.5939 199.6008
L285.8415 199.6008
" />
<path d="M285.8415 199.6008
L285.9654 199.5389
" />
<path d="M285.9654 199.5389
L286.0273 199.4770
" />
<path d="M286.0273 199.4770
L286.0892 199.3532
" />
<path d="M286.0892 199.3532
L286.0892 199.0437
" />
<path d="M286.0892 199.0437
L286.0273 198.9199
" />
<path d="M286.0273 198.9199
L285.9654 198.8579
" />
<path d="M285.9654 198.8579
L285.8415 198.7960
" />
<path d="M285.8415 198.7960
L285.5939 198.7960
" />
<path d="M285.5939 198.7960
L285.4701 198.8579
" />
<path d="M285.4701 198.8579
L285.4082 198.9199
" />
<path d="M285.4082 198.9199
L285.3463 199.0437
" />
</g></g>
<g style="fill:none; 
stroke:#000000; stroke-width:0.1500; stroke-opacity:1; 
stroke-linecap:round; stroke-linejoin:round;">
<path d="M10.0000 60.0000
L12.0000 60.0000
" />
</g>
<g style="fill:none; 
stroke:#000000; stroke-width:0.1500; stroke-opacity:1; 
stroke-linecap:round; stroke-linejoin:round;">
<path d="M10.0000 110.0000
L12.0000 110.0000
" />
</g>
<g style="fill:none; 
stroke:#000000; stroke-width:0.1500; stroke-opacity:1; 
stroke-linecap:round; stroke-linejoin:round;">
<path d="M10.0000 160.0000
L12.0000 160.0000
" />
</g>
<g style="fill:none; 
stroke:#000000; stroke-width:0.1500; stroke-opacity:1; 
stroke-linecap:round; stroke-linejoin:round;">
<text x="11.0000" y="35.6500"
textLength="1.3043" font-size="1.7333" lengthAdjust="spacingAndGlyphs"
text-anchor="middle" opacity="0" stroke-opacity="0">A</text>
<g class="stroked-text"><desc>A</desc>
<path d="M10.6905 35.2222
L11.3095 35.2222
" />
<path d="M10.5667 35.5936
L11.0000 34.2936
" />
<path d="M11.0000 34.2936
L11.4333 35.5936
" />
</g></g>
<g style="fill:none; 
stroke:#000000; stroke-width:0.1500; stroke-opacity:1; 
stroke-linecap:round; stroke-linejoin:round;">
<text x="11.0000" y="85.6500"
textLength="1.4900" font-size="1.7333" lengthAdjust="spacingAndGlyphs"
text-anchor="middle" opacity="0" stroke-opacity="0">B</text>
<g class="stroked-text"><desc>B</desc>
<path d="M11.0929 84.9127
L11.2786 84.9746
" />
<path d="M11.2786 84.9746
L11.3405 85.0365
" />
<path d="M11.3405 85.0365
L11.4024 85.1603
" />
<path d="M11.4024 85.1603
L11.4024 85.3460
" />
<path d="M11.4024 85.3460
L11.3405 85.4698
" />
<path d="M11.3405 85.4698
L11.2786 85.5317
" />
<path d="M11.2786 85.5317
L11.1548 85.5936
" />
<path d="M11.1548 85.5936
L10.6595 85.5936
" />
<path d="M10.6595 85.5936
L10.6595 84.2936
" />
<path d="M10.6595 84.2936
L11.0929 84.2936
" />
<path d="M11.0929 84.2936
L11.2167 84.3555
" />
<path d="M11.2167 84.3555
L11.2786 84.4174
" />
<path d="M11.2786 84.4174
L11.3405 84.5412
" />
<path d="M11.3405 84.5412
L11.3405 84.6650
" />
<path d="M11.3405 84.6650
L11.2786 84.7888
" />
<path d="M11.2786 84.7888
L11.2167 84.8507
" />
<path d="M11.2167 84.8507
L11.0929 84.9127
" />
<path d="M11.0929 84.9127
L10.6595 84.9127
" />
</g></g>
<g style="fill:none; 
stroke:#000000; stroke-width:0.1500; stroke-opacity:1; 
stroke-linecap:round; stroke-linejoin:round;">
<text x="11.0000" y="135.6500"
textLength="1.4900" font-size="1.7333" lengthAdjust="spacingAndGlyphs"
text-anchor="middle" opacity="0" stroke-opacity="0">C</text>
<g class="stroked-text"><desc>C</desc>
<path d="M11.4024 135.4698
L11.3405 135.5317
" />
<path d="M11.3405 135.5317
L11.1548 135.5936
" />
<path d="M11.1548 135.5936
L11.0310 135.5936
" />
<path d="M11.0310 135.5936
L10.8452 135.5317
" />
<path d="M10.8452 135.5317
L10.7214 135.4079
" />
<path d="M10.7214 135.4079
L10.6595 135.2841
" />
<path d="M10.6595 135.2841
L10.5976 135.0365
" />
<path d="M10.5976 135.0365
L10.5976 134.8507
" />
<path d="M10.5976 134.8507
L10.6595 134.6031
" />
<path d="M10.6595 134.6031
L10.7214 134.4793
" />
<path d="M10.7214 134.4793
L10.8452 134.3555
" />
<path d="M10.8452 134.3555
L11.0310 134.2936
" />
<path d="M11.0310 134.2936
L11.1548 134.2936
" />
<path d="M11.1548 134.2936
L11.3405 134.3555
" />
<path d="M11.3405 134.3555
L11.4024 134.4174
" />
</g></g>
<g style="fill:none; 
stroke:#000000; stroke-width:0.1500; stroke-opacity:1; 
stroke-linecap:round; stroke-linejoin:round;">
<text x="11.0000" y="185.6500"
textLength="1.4900" font-size="1.7333" lengthAdjust="spacingAndGlyphs"
text-anchor="middle" opacity="0" stroke-opacity="0">D</text>
<g class="stroked-text"><desc>D</desc>
<path d="M10.6595 185.5936
L10.6595 184.2936
" />
<path d="M10.6595 184.2936
L10.9690 184.2936
" />
<path d="M10.9690 184.2936
L11.1548 184.3555
" />
<path d="M11.1548 184.3555
L11.2786 184.4793
" />
<path d="M11.2786 184.4793
L11.3405 184.6031
" />
<path d="M11.3405 184.6031
L11.4024 184.8507
" />
<path d="M11.4024 184.8507
L11.4024 185.0365
" />
<path d="M11.4024 185.0365
L11.3405 185.2841
" />
<path d="M11.3405 185.2841
L11.2786 185.4079
" />
<path d="M11.2786 185.4079
L11.1548 185.5317
" />
<path d="M11.1548 185.5317
L10.9690 185.5936
" />
<path d="M10.9690 185.5936
L10.6595 185.5936
" />
</g></g>
<g style="fill:none; 
stroke:#000000; stroke-width:0.1500; stroke-opacity:1; 
stroke-linecap:round; stroke-linejoin:round;">
<path d="M287.0022 60.0000
L285.0022 60.0000
" />
</g>
<g style="fill:none; 
stroke:#000000; stroke-width:0.1500; stroke-opacity:1; 
stroke-linecap:round; stroke-linejoin:round;">
<path d="M287.0022 110.0000
L285.0022 110.0000
" />
</g>
<g style="fill:none; 
stroke:#000000; stroke-width:0.1500; stroke-opacity:1; 
stroke-linecap:round; stroke-linejoin:round;">
<path d="M287.0022 160.0000
L285.0022 160.0000
" />
</g>
<g style="fill:none; 
stroke:#000000; stroke-width:0.1500; stroke-opacity:1; 
stroke-linecap:round; stroke-linejoin:round;">
<text x="286.0022" y="35.6500"
textLength="1.3043" font-size="1.7333" lengthAdjust="spacingAndGlyphs"
text-anchor="middle" opacity="0" stroke-opacity="0">A</text>
<g class="stroked-text"><desc>A</desc>
<path d="M285.6927 35.2222
L286.3117 35.2222
" />
<path d="M285.5689 35.5936
L286.0022 34.2936
" />
<path d="M286.0022 34.2936
L286.4355 35.5936
" />
</g></g>
<g style="fill:none; 
stroke:#000000; stroke-width:0.1500; stroke-opacity:1; 
stroke-linecap:round; stroke-linejoin:round;">
<text x="286.0022" y="85.6500"
textLength="1.4900" font-size="1.7333" lengthAdjust="spacingAndGlyphs"
text-anchor="middle" opacity="0" stroke-opacity="0">B</text>
<g class="stroked-text"><desc>B</desc>
<path d="M286.0951 84.9127
L286.2808 84.9746
" />
<path d="M286.2808 84.9746
L286.3427 85.0365
" />
<path d="M286.3427 85.0365
L286.4046 85.1603
" />
<path d="M286.4046 85.1603
L286.4046 85.3460
" />
<path d="M286.4046 85.3460
L286.3427 85.4698
" />
<path d="M286.3427 85.4698
L286.2808 85.5317
" />
<path d="M286.2808 85.5317
L286.1570 85.5936
" />
<path d="M286.1570 85.5936
L285.6617 85.5936
" />
<path d="M285.6617 85.5936
L285.6617 84.2936
" />
<path d="M285.6617 84.2936
L286.0951 84.2936
" />
<path d="M286.0951 84.2936
L286.2189 84.3555
" />
<path d="M286.2189 84.3555
L286.2808 84.4174
" />
<path d="M286.2808 84.4174
L286.3427 84.5412
" />
<path d="M286.3427 84.5412
L286.3427 84.6650
" />
<path d="M286.3427 84.6650
L286.2808 84.7888
" />
<path d="M286.2808 84.7888
L286.2189 84.8507
" />
<path d="M286.2189 84.8507
L286.0951 84.9127
" />
<path d="M286.0951 84.9127
L285.6617 84.9127
" />
</g></g>
<g style="fill:none; 
stroke:#000000; stroke-width:0.1500; stroke-opacity:1; 
stroke-linecap:round; stroke-linejoin:round;">
<text x="286.0022" y="135.6500"
textLength="1.4900" font-size="1.7333" lengthAdjust="spacingAndGlyphs"
text-anchor="middle" opacity="0" stroke-opacity="0">C</text>
<g class="stroked-text"><desc>C</desc>
<path d="M286.4046 135.4698
L286.3427 135.5317
" />
<path d="M286.3427 135.5317
L286.1570 135.5936
" />
<path d="M286.1570 135.5936
L286.0332 135.5936
" />
<path d="M286.0332 135.5936
L285.8474 135.5317
" />
<path d="M285.8474 135.5317
L285.7236 135.4079
" />
<path d="M285.7236 135.4079
L285.6617 135.2841
" />
<path d="M285.6617 135.2841
L285.5998 135.0365
" />
<path d="M285.5998 135.0365
L285.5998 134.8507
" />
<path d="M285.5998 134.8507
L285.6617 134.6031
" />
<path d="M285.6617 134.6031
L285.7236 134.4793
" />
<path d="M285.7236 134.4793
L285.8474 134.3555
" />
<path d="M285.8474 134.3555
L286.0332 134.2936
" />
<path d="M286.0332 134.2936
L286.1570 134.2936
" />
<path d="M286.1570 134.2936
L286.3427 134.3555
" />
<path d="M286.3427 134.3555
L286.4046 134.4174
" />
</g></g>
<g style="fill:none; 
stroke:#000000; stroke-width:0.1500; stroke-opacity:1; 
stroke-linecap:round; stroke-linejoin:round;">
<text x="286.0022" y="185.6500"
textLength="1.4900" font-size="1.7333" lengthAdjust="spacingAndGlyphs"
text-anchor="middle" opacity="0" stroke-opacity="0">D</text>
<g class="stroked-text"><desc>D</desc>
<path d="M285.6617 185.5936
L285.6617 184.2936
" />
<path d="M285.6617 184.2936
L285.9712 184.2936
" />
<path d="M285.9712 184.2936
L286.1570 184.3555
" />
<path d="M286.1570 184.3555
L286.2808 184.4793
" />
<path d="M286.2808 184.4793
L286.3427 184.6031
" />
<path d="M286.3427 184.6031
L286.4046 184.8507
" />
<path d="M286.4046 184.8507
L286.4046 185.0365
" />
<path d="M286.4046 185.0365
L286.3427 185.2841
" />
<path d="M286.3427 185.2841
L286.2808 185.4079
" />
<path d="M286.2808 185.4079
L286.1570 185.5317
" />
<path d="M286.1570 185.5317
L285.9712 185.5936
" />
<path d="M285.9712 185.5936
L285.6617 185.5936
" />
</g></g>
<g style="fill:none; 
stroke:#000000; stroke-width:0.1500; stroke-opacity:1; 
stroke-linecap:round; stroke-linejoin:round;">
<text x="200.0022" y="193.8572"
textLength="7.0071" font-size="2.0000" lengthAdjust="spacingAndGlyphs"
text-anchor="start" opacity="0" stroke-opacity="0">Date: </text>
<g class="stroked-text"><desc>Date: </desc>
<path d="M200.4580 193.7933
L200.4580 192.2933
" />
<path d="M200.4580 192.2933
L200.8152 192.2933
" />
<path d="M200.8152 192.2933
L201.0295 192.3648
" />
<path d="M201.0295 192.3648
L201.1723 192.5076
" />
<path d="M201.1723 192.5076
L201.2437 192.6505
" />
<path d="M201.2437 192.6505
L201.3152 192.9362
" />
<path d="M201.3152 192.9362
L201.3152 193.1505
" />
<path d="M201.3152 193.1505
L201.2437 193.4362
" />
<path d="M201.2437 193.4362
L201.1723 193.5790
" />
<path d="M201.1723 193.5790
L201.0295 193.7219
" />
<path d="M201.0295 193.7219
L200.8152 193.7933
" />
<path d="M200.8152 193.7933
L200.4580 193.7933
" />
<path d="M202.6009 193.7933
L202.6009 193.0076
" />
<path d="M202.6009 193.0076
L202.5295 192.8648
" />
<path d="M202.5295 192.8648
L202.3866 192.7933
" />
<path d="M202.3866 192.7933
L202.1009 192.7933
" />
<path d="M202.1009 192.7933
L201.9580 192.8648
" />
<path d="M202.6009 193.7219
L202.4580 193.7933
" />
<path d="M202.4580 193.7933
L202.1009 193.7933
" />
<path d="M202.1009 193.7933
L201.9580 193.7219
" />
<path d="M201.9580 193.7219
L201.8866 193.5790
" />
<path d="M201.8866 193.5790
L201.8866 193.4362
" />
<path d="M201.8866 193.4362
L201.9580 193.2933
" />
<path d="M201.9580 193.2933
L202.1009 193.2219
" />
<path d="M202.1009 193.2219
L202.4580 193.2219
" />
<path d="M202.4580 193.2219
L202.6009 193.1505
" />
<path d="M203.1009 192.7933
L203.6723 192.7933
" />
<path d="M203.3152 192.2933
L203.3152 193.5790
" />
<path d="M203.3152 193.5790
L203.3866 193.7219
" />
<path d="M203.3866 193.7219
L203.5295 193.7933
" />
<path d="M203.5295 193.7933
L203.6723 193.7933
" />
<path d="M204.7437 193.7219
L204.6009 193.7933
" />
<path d="M204.6009 193.7933
L204.3152 193.7933
" />
<path d="M204.3152 193.7933
L204.1723 193.7219
" />
<path d="M204.1723 193.7219
L204.1009 193.5790
" />
<path d="M204.1009 193.5790
L204.1009 193.0076
" />
<path d="M204.1009 193.0076
L204.1723 192.8648
" />
<path d="M204.1723 192.8648
L204.3152 192.7933
" />
<path d="M204.3152 192.7933
L204.6009 192.7933
" />
<path d="M204.6009 192.7933
L204.7437 192.8648
" />
<path d="M204.7437 192.8648
L204.8152 193.0076
" />
<path d="M204.8152 193.0076
L204.8152 193.1505
" />
<path d="M204.8152 193.1505
L204.1009 193.2933
" />
<path d="M205.4580 193.6505
L205.5295 193.7219
" />
<path d="M205.5295 193.7219
L205.4580 193.7933
" />
<path d="M205.4580 193.7933
L205.3866 193.7219
" />
<path d="M205.3866 193.7219
L205.4580 193.6505
" />
<path d="M205.4580 193.6505
L205.4580 193.7933
" />
<path d="M205.4580 192.8648
L205.5295 192.9362
" />
<path d="M205.5295 192.9362
L205.4580 193.0076
" />
<path d="M205.4580 193.0076
L205.3866 192.9362
" />
<path d="M205.3866 192.9362
L205.4580 192.8648
" />
<path d="M205.4580 192.8648
L205.4580 193.0076
" />
</g></g>
<g style="fill:none; 
stroke:#000000; stroke-width:0.1500; stroke-opacity:1; 
stroke-linecap:round; stroke-linejoin:round;">
<path d="M177.0022 194.5072
L285.0022 194.5072
" />
</g>
<g style="fill:none; 
stroke:#000000; stroke-width:0.1500; stroke-opacity:1; 
stroke-linecap:round; stroke-linejoin:round;">
<text x="178.0022" y="196.6572"
textLength="20.8643" font-size="2.0000" lengthAdjust="spacingAndGlyphs"
text-anchor="start" opacity="0" stroke-opacity="0">KiCad E.D.A. 8.0.4</text>
<g class="stroked-text"><desc>KiCad E.D.A. 8.0.4</desc>
<path d="M178.4580 196.5933
L178.4580 195.0933
" />
<path d="M179.3152 196.5933
L178.6723 195.7362
" />
<path d="M179.3152 195.0933
L178.4580 195.9505
" />
<path d="M179.9580 196.5933
L179.9580 195.5933
" />
<path d="M179.9580 195.0933
L179.8866 195.1648
" />
<path d="M179.8866 195.1648
L179.9580 195.2362
" />
<path d="M179.9580 195.2362
L180.0295 195.1648
" />
<path d="M180.0295 195.1648
L179.9580 195.0933
" />
<path d="M179.9580 195.0933
L179.9580 195.2362
" />
<path d="M181.5295 196.4505
L181.4580 196.5219
" />
<path d="M181.4580 196.5219
L181.2437 196.5933
" />
<path d="M181.2437 196.5933
L181.1009 196.5933
" />
<path d="M181.1009 196.5933
L180.8866 196.5219
" />
<path d="M180.8866 196.5219
L180.7437 196.3790
" />
<path d="M180.7437 196.3790
L180.6723 196.2362
" />
<path d="M180.6723 196.2362
L180.6009 195.9505
" />
<path d="M180.6009 195.9505
L180.6009 195.7362
" />
<path d="M180.6009 195.7362
L180.6723 195.4505
" />
<path d="M180.6723 195.4505
L180.7437 195.3076
" />
<path d="M180.7437 195.3076
L180.8866 195.1648
" />
<path d="M180.8866 195.1648
L181.1009 195.0933
" />
<path d="M181.1009 195.0933
L181.2437 195.0933
" />
<path d="M181.2437 195.0933
L181.4580 195.1648
" />
<path d="M181.4580 195.1648
L181.5295 195.2362
" />
<path d="M182.8152 196.5933
L182.8152 195.8076
" />
<path d="M182.8152 195.8076
L182.7437 195.6648
" />
<path d="M182.7437 195.6648
L182.6009 195.5933
" />
<path d="M182.6009 195.5933
L182.3152 195.5933
" />
<path d="M182.3152 195.5933
L182.1723 195.6648
" />
<path d="M182.8152 196.5219
L182.6723 196.5933
" />
<path d="M182.6723 196.5933
L182.3152 196.5933
" />
<path d="M182.3152 196.5933
L182.1723 196.5219
" />
<path d="M182.1723 196.5219
L182.1009 196.3790
" />
<path d="M182.1009 196.3790
L182.1009 196.2362
" />
<path d="M182.1009 196.2362
L182.1723 196.0933
" />
<path d="M182.1723 196.0933
L182.3152 196.0219
" />
<path d="M182.3152 196.0219
L182.6723 196.0219
" />
<path d="M182.6723 196.0219
L182.8152 195.9505
" />
<path d="M184.1723 196.5933
L184.1723 195.0933
" />
<path d="M184.1723 196.5219
L184.0295 196.5933
" />
<path d="M184.0295 196.5933
L183.7437 196.5933
" />
<path d="M183.7437 196.5933
L183.6009 196.5219
" />
<path d="M183.6009 196.5219
L183.5295 196.4505
" />
<path d="M183.5295 196.4505
L183.4580 196.3076
" />
<path d="M183.4580 196.3076
L183.4580 195.8790
" />
<path d="M183.4580 195.8790
L183.5295 195.7362
" />
<path d="M183.5295 195.7362
L183.6009 195.6648
" />
<path d="M183.6009 195.6648
L183.7437 195.5933
" />
<path d="M183.7437 195.5933
L184.0295 195.5933
" />
<path d="M184.0295 195.5933
L184.1723 195.6648
" />
<path d="M186.0295 195.8076
L186.5295 195.8076
" />
<path d="M186.7437 196.5933
L186.0295 196.5933
" />
<path d="M186.0295 196.5933
L186.0295 195.0933
" />
<path d="M186.0295 195.0933
L186.7437 195.0933
" />
<path d="M187.3866 196.4505
L187.4580 196.5219
" />
<path d="M187.4580 196.5219
L187.3866 196.5933
" />
<path d="M187.3866 196.5933
L187.3152 196.5219
" />
<path d="M187.3152 196.5219
L187.3866 196.4505
" />
<path d="M187.3866 196.4505
L187.3866 196.5933
" />
<path d="M188.1009 196.5933
L188.1009 195.0933
" />
<path d="M188.1009 195.0933
L188.4580 195.0933
" />
<path d="M188.4580 195.0933
L188.6723 195.1648
" />
<path d="M188.6723 195.1648
L188.8152 195.3076
" />
<path d="M188.8152 195.3076
L188.8866 195.4505
" />
<path d="M188.8866 195.4505
L188.9580 195.7362
" />
<path d="M188.9580 195.7362
L188.9580 195.9505
" />
<path d="M188.9580 195.9505
L188.8866 196.2362
" />
<path d="M188.8866 196.2362
L188.8152 196.3790
" />
<path d="M188.8152 196.3790
L188.6723 196.5219
" />
<path d="M188.6723 196.5219
L188.4580 196.5933
" />
<path d="M188.4580 196.5933
L188.1009 196.5933
" />
<path d="M189.6009 196.4505
L189.6723 196.5219
" />
<path d="M189.6723 196.5219
L189.6009 196.5933
" />
<path d="M189.6009 196.5933
L189.5295 196.5219
" />
<path d="M189.5295 196.5219
L189.6009 196.4505
" />
<path d="M189.6009 196.4505
L189.6009 196.5933
" />
<path d="M190.2437 196.1648
L190.9580 196.1648
" />
<path d="M190.1009 196.5933
L190.6009 195.0933
" />
<path d="M190.6009 195.0933
L191.1009 196.5933
" />
<path d="M191.6009 196.4505
L191.6723 196.5219
" />
<path d="M191.6723 196.5219
L191.6009 196.5933
" />
<path d="M191.6009 196.5933
L191.5295 196.5219
" />
<path d="M191.5295 196.5219
L191.6009 196.4505
" />
<path d="M191.6009 196.4505
L191.6009 196.5933
" />
<path d="M193.6723 195.7362
L193.5295 195.6648
" />
<path d="M193.5295 195.6648
L193.4580 195.5933
" />
<path d="M193.4580 195.5933
L193.3866 195.4505
" />
<path d="M193.3866 195.4505
L193.3866 195.3790
" />
<path d="M193.3866 195.3790
L193.4580 195.2362
" />
<path d="M193.4580 195.2362
L193.5295 195.1648
" />
<path d="M193.5295 195.1648
L193.6723 195.0933
" />
<path d="M193.6723 195.0933
L193.9580 195.0933
" />
<path d="M193.9580 195.0933
L194.1009 195.1648
" />
<path d="M194.1009 195.1648
L194.1723 195.2362
" />
<path d="M194.1723 195.2362
L194.2437 195.3790
" />
<path d="M194.2437 195.3790
L194.2437 195.4505
" />
<path d="M194.2437 195.4505
L194.1723 195.5933
" />
<path d="M194.1723 195.5933
L194.1009 195.6648
" />
<path d="M194.1009 195.6648
L193.9580 195.7362
" />
<path d="M193.9580 195.7362
L193.6723 195.7362
" />
<path d="M193.6723 195.7362
L193.5295 195.8076
" />
<path d="M193.5295 195.8076
L193.4580 195.8790
" />
<path d="M193.4580 195.8790
L193.3866 196.0219
" />
<path d="M193.3866 196.0219
L193.3866 196.3076
" />
<path d="M193.3866 196.3076
L193.4580 196.4505
" />
<path d="M193.4580 196.4505
L193.5295 196.5219
" />
<path d="M193.5295 196.5219
L193.6723 196.5933
" />
<path d="M193.6723 196.5933
L193.9580 196.5933
" />
<path d="M193.9580 196.5933
L194.1009 196.5219
" />
<path d="M194.1009 196.5219
L194.1723 196.4505
" />
<path d="M194.1723 196.4505
L194.2437 196.3076
" />
<path d="M194.2437 196.3076
L194.2437 196.0219
" />
<path d="M194.2437 196.0219
L194.1723 195.8790
" />
<path d="M194.1723 195.8790
L194.1009 195.8076
" />
<path d="M194.1009 195.8076
L193.9580 195.7362
" />
<path d="M194.8866 196.4505
L194.9580 196.5219
" />
<path d="M194.9580 196.5219
L194.8866 196.5933
" />
<path d="M194.8866 196.5933
L194.8152 196.5219
" />
<path d="M194.8152 196.5219
L194.8866 196.4505
" />
<path d="M194.8866 196.4505
L194.8866 196.5933
" />
<path d="M195.8866 195.0933
L196.0295 195.0933
" />
<path d="M196.0295 195.0933
L196.1723 195.1648
" />
<path d="M196.1723 195.1648
L196.2437 195.2362
" />
<path d="M196.2437 195.2362
L196.3152 195.3790
" />
<path d="M196.3152 195.3790
L196.3866 195.6648
" />
<path d="M196.3866 195.6648
L196.3866 196.0219
" />
<path d="M196.3866 196.0219
L196.3152 196.3076
" />
<path d="M196.3152 196.3076
L196.2437 196.4505
" />
<path d="M196.2437 196.4505
L196.1723 196.5219
" />
<path d="M196.1723 196.5219
L196.0295 196.5933
" />
<path d="M196.0295 196.5933
L195.8866 196.5933
" />
<path d="M195.8866 196.5933
L195.7437 196.5219
" />
<path d="M195.7437 196.5219
L195.6723 196.4505
" />
<path d="M195.6723 196.4505
L195.6009 196.3076
" />
<path d="M195.6009 196.3076
L195.5295 196.0219
" />
<path d="M195.5295 196.0219
L195.5295 195.6648
" />
<path d="M195.5295 195.6648
L195.6009 195.3790
" />
<path d="M195.6009 195.3790
L195.6723 195.2362
" />
<path d="M195.6723 195.2362
L195.7437 195.1648
" />
<path d="M195.7437 195.1648
L195.8866 195.0933
" />
<path d="M197.0295 196.4505
L197.1009 196.5219
" />
<path d="M197.1009 196.5219
L197.0295 196.5933
" />
<path d="M197.0295 196.5933
L196.9580 196.5219
" />
<path d="M196.9580 196.5219
L197.0295 196.4505
" />
<path d="M197.0295 196.4505
L197.0295 196.5933
" />
<path d="M198.3866 195.5933
L198.3866 196.5933
" />
<path d="M198.0295 195.0219
L197.6723 196.0933
" />
<path d="M197.6723 196.0933
L198.6009 196.0933
" />
</g></g>
<g style="fill:none; 
stroke:#000000; stroke-width:0.1500; stroke-opacity:1; 
stroke-linecap:round; stroke-linejoin:round;">
<path d="M177.0022 191.5072
L285.0022 191.5072
" />
</g>
<g style="fill:none; 
stroke:#000000; stroke-width:0.3000; stroke-opacity:1; 
stroke-linecap:round; stroke-linejoin:round;">
<text x="263.0022" y="193.8572"
textLength="6.3857" font-size="2.0000" lengthAdjust="spacingAndGlyphs"
text-anchor="start" opacity="0" stroke-opacity="0">Rev: </text>
<g class="stroked-text"><desc>Rev: </desc>
<path d="M264.4139 193.7855
L263.9139 193.0712
" />
<path d="M263.5567 193.7855
L263.5567 192.2855
" />
<path d="M263.5567 192.2855
L264.1281 192.2855
" />
<path d="M264.1281 192.2855
L264.2710 192.3570
" />
<path d="M264.2710 192.3570
L264.3424 192.4284
" />
<path d="M264.3424 192.4284
L264.4139 192.5712
" />
<path d="M264.4139 192.5712
L264.4139 192.7855
" />
<path d="M264.4139 192.7855
L264.3424 192.9284
" />
<path d="M264.3424 192.9284
L264.2710 192.9998
" />
<path d="M264.2710 192.9998
L264.1281 193.0712
" />
<path d="M264.1281 193.0712
L263.5567 193.0712
" />
<path d="M265.6281 193.7141
L265.4853 193.7855
" />
<path d="M265.4853 193.7855
L265.1996 193.7855
" />
<path d="M265.1996 193.7855
L265.0567 193.7141
" />
<path d="M265.0567 193.7141
L264.9853 193.5712
" />
<path d="M264.9853 193.5712
L264.9853 192.9998
" />
<path d="M264.9853 192.9998
L265.0567 192.8570
" />
<path d="M265.0567 192.8570
L265.1996 192.7855
" />
<path d="M265.1996 192.7855
L265.4853 192.7855
" />
<path d="M265.4853 192.7855
L265.6281 192.8570
" />
<path d="M265.6281 192.8570
L265.6996 192.9998
" />
<path d="M265.6996 192.9998
L265.6996 193.1427
" />
<path d="M265.6996 193.1427
L264.9853 193.2855
" />
<path d="M266.1996 192.7855
L266.5567 193.7855
" />
<path d="M266.5567 193.7855
L266.9139 192.7855
" />
<path d="M267.4853 193.6427
L267.5567 193.7141
" />
<path d="M267.5567 193.7141
L267.4853 193.7855
" />
<path d="M267.4853 193.7855
L267.4139 193.7141
" />
<path d="M267.4139 193.7141
L267.4853 193.6427
" />
<path d="M267.4853 193.6427
L267.4853 193.7855
" />
<path d="M267.4853 192.8570
L267.5567 192.9284
" />
<path d="M267.5567 192.9284
L267.4853 192.9998
" />
<path d="M267.4853 192.9998
L267.4139 192.9284
" />
<path d="M267.4139 192.9284
L267.4853 192.8570
" />
<path d="M267.4853 192.8570
L267.4853 192.9998
" />
</g></g>
<g style="fill:none; 
stroke:#000000; stroke-width:0.1500; stroke-opacity:1; 
stroke-linecap:round; stroke-linejoin:round;">
<text x="178.0022" y="193.8572"
textLength="9.3643" font-size="2.0000" lengthAdjust="spacingAndGlyphs"
text-anchor="start" opacity="0" stroke-opacity="0">Size: A4</text>
<g class="stroked-text"><desc>Size: A4</desc>
<path d="M178.3866 193.7219
L178.6009 193.7933
" />
<path d="M178.6009 193.7933
L178.9580 193.7933
" />
<path d="M178.9580 193.7933
L179.1009 193.7219
" />
<path d="M179.1009 193.7219
L179.1723 193.6505
" />
<path d="M179.1723 193.6505
L179.2437 193.5076
" />
<path d="M179.2437 193.5076
L179.2437 193.3648
" />
<path d="M179.2437 193.3648
L179.1723 193.2219
" />
<path d="M179.1723 193.2219
L179.1009 193.1505
" />
<path d="M179.1009 193.1505
L178.9580 193.0790
" />
<path d="M178.9580 193.0790
L178.6723 193.0076
" />
<path d="M178.6723 193.0076
L178.5295 192.9362
" />
<path d="M178.5295 192.9362
L178.4580 192.8648
" />
<path d="M178.4580 192.8648
L178.3866 192.7219
" />
<path d="M178.3866 192.7219
L178.3866 192.5790
" />
<path d="M178.3866 192.5790
L178.4580 192.4362
" />
<path d="M178.4580 192.4362
L178.5295 192.3648
" />
<path d="M178.5295 192.3648
L178.6723 192.2933
" />
<path d="M178.6723 192.2933
L179.0295 192.2933
" />
<path d="M179.0295 192.2933
L179.2437 192.3648
" />
<path d="M179.8866 193.7933
L179.8866 192.7933
" />
<path d="M179.8866 192.2933
L179.8152 192.3648
" />
<path d="M179.8152 192.3648
L179.8866 192.4362
" />
<path d="M179.8866 192.4362
L179.9580 192.3648
" />
<path d="M179.9580 192.3648
L179.8866 192.2933
" />
<path d="M179.8866 192.2933
L179.8866 192.4362
" />
<path d="M180.4580 192.7933
L181.2437 192.7933
" />
<path d="M181.2437 192.7933
L180.4580 193.7933
" />
<path d="M180.4580 193.7933
L181.2437 193.7933
" />
<path d="M182.3866 193.7219
L182.2437 193.7933
" />
<path d="M182.2437 193.7933
L181.9580 193.7933
" />
<path d="M181.9580 193.7933
L181.8152 193.7219
" />
<path d="M181.8152 193.7219
L181.7437 193.5790
" />
<path d="M181.7437 193.5790
L181.7437 193.0076
" />
<path d="M181.7437 193.0076
L181.8152 192.8648
" />
<path d="M181.8152 192.8648
L181.9580 192.7933
" />
<path d="M181.9580 192.7933
L182.2437 192.7933
" />
<path d="M182.2437 192.7933
L182.3866 192.8648
" />
<path d="M182.3866 192.8648
L182.4580 193.0076
" />
<path d="M182.4580 193.0076
L182.4580 193.1505
" />
<path d="M182.4580 193.1505
L181.7437 193.2933
" />
<path d="M183.1009 193.6505
L183.1723 193.7219
" />
<path d="M183.1723 193.7219
L183.1009 193.7933
" />
<path d="M183.1009 193.7933
L183.0295 193.7219
" />
<path d="M183.0295 193.7219
L183.1009 193.6505
" />
<path d="M183.1009 193.6505
L183.1009 193.7933
" />
<path d="M183.1009 192.8648
L183.1723 192.9362
" />
<path d="M183.1723 192.9362
L183.1009 193.0076
" />
<path d="M183.1009 193.0076
L183.0295 192.9362
" />
<path d="M183.0295 192.9362
L183.1009 192.8648
" />
<path d="M183.1009 192.8648
L183.1009 193.0076
" />
<path d="M184.8866 193.3648
L185.6009 193.3648
" />
<path d="M184.7437 193.7933
L185.2437 192.2933
" />
<path d="M185.2437 192.2933
L185.7437 193.7933
" />
<path d="M186.8866 192.7933
L186.8866 193.7933
" />
<path d="M186.5295 192.2219
L186.1723 193.2933
" />
<path d="M186.1723 193.2933
L187.1009 193.2933
" />
</g></g>
<g style="fill:none; 
stroke:#000000; stroke-width:0.1500; stroke-opacity:1; 
stroke-linecap:round; stroke-linejoin:round;">
<text x="263.0022" y="196.6572"
textLength="8.5071" font-size="2.0000" lengthAdjust="spacingAndGlyphs"
text-anchor="start" opacity="0" stroke-opacity="0">Id: 1/1</text>
<g class="stroked-text"><desc>Id: 1/1</desc>
<path d="M263.4580 196.5933
L263.4580 195.0933
" />
<path d="M264.8152 196.5933
L264.8152 195.0933
" />
<path d="M264.8152 196.5219
L264.6723 196.5933
" />
<path d="M264.6723 196.5933
L264.3866 196.5933
" />
<path d="M264.3866 196.5933
L264.2437 196.5219
" />
<path d="M264.2437 196.5219
L264.1723 196.4505
" />
<path d="M264.1723 196.4505
L264.1009 196.3076
" />
<path d="M264.1009 196.3076
L264.1009 195.8790
" />
<path d="M264.1009 195.8790
L264.1723 195.7362
" />
<path d="M264.1723 195.7362
L264.2437 195.6648
" />
<path d="M264.2437 195.6648
L264.3866 195.5933
" />
<path d="M264.3866 195.5933
L264.6723 195.5933
" />
<path d="M264.6723 195.5933
L264.8152 195.6648
" />
<path d="M265.5295 196.4505
L265.6009 196.5219
" />
<path d="M265.6009 196.5219
L265.5295 196.5933
" />
<path d="M265.5295 196.5933
L265.4580 196.5219
" />
<path d="M265.4580 196.5219
L265.5295 196.4505
" />
<path d="M265.5295 196.4505
L265.5295 196.5933
" />
<path d="M265.5295 195.6648
L265.6009 195.7362
" />
<path d="M265.6009 195.7362
L265.5295 195.8076
" />
<path d="M265.5295 195.8076
L265.4580 195.7362
" />
<path d="M265.4580 195.7362
L265.5295 195.6648
" />
<path d="M265.5295 195.6648
L265.5295 195.8076
" />
<path d="M268.1723 196.5933
L267.3152 196.5933
" />
<path d="M267.7437 196.5933
L267.7437 195.0933
" />
<path d="M267.7437 195.0933
L267.6009 195.3076
" />
<path d="M267.6009 195.3076
L267.4580 195.4505
" />
<path d="M267.4580 195.4505
L267.3152 195.5219
" />
<path d="M269.8866 195.0219
L268.6009 196.9505
" />
<path d="M271.1723 196.5933
L270.3152 196.5933
" />
<path d="M270.7437 196.5933
L270.7437 195.0933
" />
<path d="M270.7437 195.0933
L270.6009 195.3076
" />
<path d="M270.6009 195.3076
L270.4580 195.4505
" />
<path d="M270.4580 195.4505
L270.3152 195.5219
" />
</g></g>
<g style="fill:none; 
stroke:#000000; stroke-width:0.1500; stroke-opacity:1; 
stroke-linecap:round; stroke-linejoin:round;">
<path d="M177.0022 187.5072
L285.0022 187.5072
" />
</g>
<g style="fill:none; 
stroke:#000000; stroke-width:0.4000; stroke-opacity:1; 
stroke-linecap:round; stroke-linejoin:round;">
<text x="178.0022" y="190.3072"
textLength="9.6571" font-size="2.6667" lengthAdjust="spacingAndGlyphs"
text-anchor="start" opacity="0" stroke-opacity="0">Title: </text>
<g class="stroked-text"><desc>Title: </desc>
<path d="M178.6939 188.2116
L179.8368 188.2116
" />
<path d="M179.0154 190.2116
L179.2654 188.2116
" />
<path d="M180.2535 190.2116
L180.4201 188.8783
" />
<path d="M180.5035 188.2116
L180.3963 188.3069
" />
<path d="M180.3963 188.3069
L180.4796 188.4021
" />
<path d="M180.4796 188.4021
L180.5868 188.3069
" />
<path d="M180.5868 188.3069
L180.5035 188.2116
" />
<path d="M180.5035 188.2116
L180.4796 188.4021
" />
<path d="M181.0868 188.8783
L181.8487 188.8783
" />
<path d="M181.4558 188.2116
L181.2415 189.9259
" />
<path d="M181.2415 189.9259
L181.3130 190.1164
" />
<path d="M181.3130 190.1164
L181.4915 190.2116
" />
<path d="M181.4915 190.2116
L181.6820 190.2116
" />
<path d="M182.6344 190.2116
L182.4558 190.1164
" />
<path d="M182.4558 190.1164
L182.3844 189.9259
" />
<path d="M182.3844 189.9259
L182.5987 188.2116
" />
<path d="M184.1701 190.1164
L183.9677 190.2116
" />
<path d="M183.9677 190.2116
L183.5868 190.2116
" />
<path d="M183.5868 190.2116
L183.4082 190.1164
" />
<path d="M183.4082 190.1164
L183.3368 189.9259
" />
<path d="M183.3368 189.9259
L183.4320 189.1640
" />
<path d="M183.4320 189.1640
L183.5511 188.9735
" />
<path d="M183.5511 188.9735
L183.7535 188.8783
" />
<path d="M183.7535 188.8783
L184.1344 188.8783
" />
<path d="M184.1344 188.8783
L184.3130 188.9735
" />
<path d="M184.3130 188.9735
L184.3844 189.1640
" />
<path d="M184.3844 189.1640
L184.3606 189.3545
" />
<path d="M184.3606 189.3545
L183.3844 189.5450
" />
<path d="M185.1344 190.0212
L185.2177 190.1164
" />
<path d="M185.2177 190.1164
L185.1106 190.2116
" />
<path d="M185.1106 190.2116
L185.0273 190.1164
" />
<path d="M185.0273 190.1164
L185.1344 190.0212
" />
<path d="M185.1344 190.0212
L185.1106 190.2116
" />
<path d="M185.2654 188.9735
L185.3487 189.0688
" />
<path d="M185.3487 189.0688
L185.2415 189.1640
" />
<path d="M185.2415 189.1640
L185.1582 189.0688
" />
<path d="M185.1582 189.0688
L185.2654 188.9735
" />
<path d="M185.2654 188.9735
L185.2415 189.1640
" />
</g></g>
<g style="fill:none; 
stroke:#000000; stroke-width:0.1500; stroke-opacity:1; 
stroke-linecap:round; stroke-linejoin:round;">
<text x="178.0022" y="186.4572"
textLength="27.6500" font-size="2.0000" lengthAdjust="spacingAndGlyphs"
text-anchor="start" opacity="0" stroke-opacity="0">File: TGS2600.kicad_pcb</text>
<g class="stroked-text"><desc>File: TGS2600.kicad_pcb</desc>
<path d="M178.9580 185.6076
L178.4580 185.6076
" />
<path d="M178.4580 186.3933
L178.4580 184.8933
" />
<path d="M178.4580 184.8933
L179.1723 184.8933
" />
<path d="M179.7437 186.3933
L179.7437 185.3933
" />
<path d="M179.7437 184.8933
L179.6723 184.9648
" />
<path d="M179.6723 184.9648
L179.7437 185.0362
" />
<path d="M179.7437 185.0362
L179.8152 184.9648
" />
<path d="M179.8152 184.9648
L179.7437 184.8933
" />
<path d="M179.7437 184.8933
L179.7437 185.0362
" />
<path d="M180.6723 186.3933
L180.5295 186.3219
" />
<path d="M180.5295 186.3219
L180.4580 186.1790
" />
<path d="M180.4580 186.1790
L180.4580 184.8933
" />
<path d="M181.8152 186.3219
L181.6723 186.3933
" />
<path d="M181.6723 186.3933
L181.3866 186.3933
" />
<path d="M181.3866 186.3933
L181.2437 186.3219
" />
<path d="M181.2437 186.3219
L181.1723 186.1790
" />
<path d="M181.1723 186.1790
L181.1723 185.6076
" />
<path d="M181.1723 185.6076
L181.2437 185.4648
" />
<path d="M181.2437 185.4648
L181.3866 185.3933
" />
<path d="M181.3866 185.3933
L181.6723 185.3933
" />
<path d="M181.6723 185.3933
L181.8152 185.4648
" />
<path d="M181.8152 185.4648
L181.8866 185.6076
" />
<path d="M181.8866 185.6076
L181.8866 185.7505
" />
<path d="M181.8866 185.7505
L181.1723 185.8933
" />
<path d="M182.5295 186.2505
L182.6009 186.3219
" />
<path d="M182.6009 186.3219
L182.5295 186.3933
" />
<path d="M182.5295 186.3933
L182.4580 186.3219
" />
<path d="M182.4580 186.3219
L182.5295 186.2505
" />
<path d="M182.5295 186.2505
L182.5295 186.3933
" />
<path d="M182.5295 185.4648
L182.6009 185.5362
" />
<path d="M182.6009 185.5362
L182.5295 185.6076
" />
<path d="M182.5295 185.6076
L182.4580 185.5362
" />
<path d="M182.4580 185.5362
L182.5295 185.4648
" />
<path d="M182.5295 185.4648
L182.5295 185.6076
" />
<path d="M184.1723 184.8933
L185.0295 184.8933
" />
<path d="M184.6009 186.3933
L184.6009 184.8933
" />
<path d="M186.3152 184.9648
L186.1723 184.8933
" />
<path d="M186.1723 184.8933
L185.9580 184.8933
" />
<path d="M185.9580 184.8933
L185.7437 184.9648
" />
<path d="M185.7437 184.9648
L185.6009 185.1076
" />
<path d="M185.6009 185.1076
L185.5295 185.2505
" />
<path d="M185.5295 185.2505
L185.4580 185.5362
" />
<path d="M185.4580 185.5362
L185.4580 185.7505
" />
<path d="M185.4580 185.7505
L185.5295 186.0362
" />
<path d="M185.5295 186.0362
L185.6009 186.1790
" />
<path d="M185.6009 186.1790
L185.7437 186.3219
" />
<path d="M185.7437 186.3219
L185.9580 186.3933
" />
<path d="M185.9580 186.3933
L186.1009 186.3933
" />
<path d="M186.1009 186.3933
L186.3152 186.3219
" />
<path d="M186.3152 186.3219
L186.3866 186.2505
" />
<path d="M186.3866 186.2505
L186.3866 185.7505
" />
<path d="M186.3866 185.7505
L186.1009 185.7505
" />
<path d="M186.9580 186.3219
L187.1723 186.3933
" />
<path d="M187.1723 186.3933
L187.5295 186.3933
" />
<path d="M187.5295 186.3933
L187.6723 186.3219
" />
<path d="M187.6723 186.3219
L187.7437 186.2505
" />
<path d="M187.7437 186.2505
L187.8152 186.1076
" />
<path d="M187.8152 186.1076
L187.8152 185.9648
" />
<path d="M187.8152 185.9648
L187.7437 185.8219
" />
<path d="M187.7437 185.8219
L187.6723 185.7505
" />
<path d="M187.6723 185.7505
L187.5295 185.6790
" />
<path d="M187.5295 185.6790
L187.2437 185.6076
" />
<path d="M187.2437 185.6076
L187.1009 185.5362
" />
<path d="M187.1009 185.5362
L187.0295 185.4648
" />
<path d="M187.0295 185.4648
L186.9580 185.3219
" />
<path d="M186.9580 185.3219
L186.9580 185.1790
" />
<path d="M186.9580 185.1790
L187.0295 185.0362
" />
<path d="M187.0295 185.0362
L187.1009 184.9648
" />
<path d="M187.1009 184.9648
L187.2437 184.8933
" />
<path d="M187.2437 184.8933
L187.6009 184.8933
" />
<path d="M187.6009 184.8933
L187.8152 184.9648
" />
<path d="M188.3866 185.0362
L188.4580 184.9648
" />
<path d="M188.4580 184.9648
L188.6009 184.8933
" />
<path d="M188.6009 184.8933
L188.9580 184.8933
" />
<path d="M188.9580 184.8933
L189.1009 184.9648
" />
<path d="M189.1009 184.9648
L189.1723 185.0362
" />
<path d="M189.1723 185.0362
L189.2437 185.1790
" />
<path d="M189.2437 185.1790
L189.2437 185.3219
" />
<path d="M189.2437 185.3219
L189.1723 185.5362
" />
<path d="M189.1723 185.5362
L188.3152 186.3933
" />
<path d="M188.3152 186.3933
L189.2437 186.3933
" />
<path d="M190.5295 184.8933
L190.2437 184.8933
" />
<path d="M190.2437 184.8933
L190.1009 184.9648
" />
<path d="M190.1009 184.9648
L190.0295 185.0362
" />
<path d="M190.0295 185.0362
L189.8866 185.2505
" />
<path d="M189.8866 185.2505
L189.8152 185.5362
" />
<path d="M189.8152 185.5362
L189.8152 186.1076
" />
<path d="M189.8152 186.1076
L189.8866 186.2505
" />
<path d="M189.8866 186.2505
L189.9580 186.3219
" />
<path d="M189.9580 186.3219
L190.1009 186.3933
" />
<path d="M190.1009 186.3933
L190.3866 186.3933
" />
<path d="M190.3866 186.3933
L190.5295 186.3219
" />
<path d="M190.5295 186.3219
L190.6009 186.2505
" />
<path d="M190.6009 186.2505
L190.6723 186.1076
" />
<path d="M190.6723 186.1076
L190.6723 185.7505
" />
<path d="M190.6723 185.7505
L190.6009 185.6076
" />
<path d="M190.6009 185.6076
L190.5295 185.5362
" />
<path d="M190.5295 185.5362
L190.3866 185.4648
" />
<path d="M190.3866 185.4648
L190.1009 185.4648
" />
<path d="M190.1009 185.4648
L189.9580 185.5362
" />
<path d="M189.9580 185.5362
L189.8866 185.6076
" />
<path d="M189.8866 185.6076
L189.8152 185.7505
" />
<path d="M191.6009 184.8933
L191.7437 184.8933
" />
<path d="M191.7437 184.8933
L191.8866 184.9648
" />
<path d="M191.8866 184.9648
L191.9580 185.0362
" />
<path d="M191.9580 185.0362
L192.0295 185.1790
" />
<path d="M192.0295 185.1790
L192.1009 185.4648
" />
<path d="M192.1009 185.4648
L192.1009 185.8219
" />
<path d="M192.1009 185.8219
L192.0295 186.1076
" />
<path d="M192.0295 186.1076
L191.9580 186.2505
" />
<path d="M191.9580 186.2505
L191.8866 186.3219
" />
<path d="M191.8866 186.3219
L191.7437 186.3933
" />
<path d="M191.7437 186.3933
L191.6009 186.3933
" />
<path d="M191.6009 186.3933
L191.4580 186.3219
" />
<path d="M191.4580 186.3219
L191.3866 186.2505
" />
<path d="M191.3866 186.2505
L191.3152 186.1076
" />
<path d="M191.3152 186.1076
L191.2437 185.8219
" />
<path d="M191.2437 185.8219
L191.2437 185.4648
" />
<path d="M191.2437 185.4648
L191.3152 185.1790
" />
<path d="M191.3152 185.1790
L191.3866 185.0362
" />
<path d="M191.3866 185.0362
L191.4580 184.9648
" />
<path d="M191.4580 184.9648
L191.6009 184.8933
" />
<path d="M193.0295 184.8933
L193.1723 184.8933
" />
<path d="M193.1723 184.8933
L193.3152 184.9648
" />
<path d="M193.3152 184.9648
L193.3866 185.0362
" />
<path d="M193.3866 185.0362
L193.4580 185.1790
" />
<path d="M193.4580 185.1790
L193.5295 185.4648
" />
<path d="M193.5295 185.4648
L193.5295 185.8219
" />
<path d="M193.5295 185.8219
L193.4580 186.1076
" />
<path d="M193.4580 186.1076
L193.3866 186.2505
" />
<path d="M193.3866 186.2505
L193.3152 186.3219
" />
<path d="M193.3152 186.3219
L193.1723 186.3933
" />
<path d="M193.1723 186.3933
L193.0295 186.3933
" />
<path d="M193.0295 186.3933
L192.8866 186.3219
" />
<path d="M192.8866 186.3219
L192.8152 186.2505
" />
<path d="M192.8152 186.2505
L192.7437 186.1076
" />
<path d="M192.7437 186.1076
L192.6723 185.8219
" />
<path d="M192.6723 185.8219
L192.6723 185.4648
" />
<path d="M192.6723 185.4648
L192.7437 185.1790
" />
<path d="M192.7437 185.1790
L192.8152 185.0362
" />
<path d="M192.8152 185.0362
L192.8866 184.9648
" />
<path d="M192.8866 184.9648
L193.0295 184.8933
" />
<path d="M194.1723 186.2505
L194.2437 186.3219
" />
<path d="M194.2437 186.3219
L194.1723 186.3933
" />
<path d="M194.1723 186.3933
L194.1009 186.3219
" />
<path d="M194.1009 186.3219
L194.1723 186.2505
" />
<path d="M194.1723 186.2505
L194.1723 186.3933
" />
<path d="M194.8866 186.3933
L194.8866 184.8933
" />
<path d="M195.0295 185.8219
L195.4580 186.3933
" />
<path d="M195.4580 185.3933
L194.8866 185.9648
" />
<path d="M196.1009 186.3933
L196.1009 185.3933
" />
<path d="M196.1009 184.8933
L196.0295 184.9648
" />
<path d="M196.0295 184.9648
L196.1009 185.0362
" />
<path d="M196.1009 185.0362
L196.1723 184.9648
" />
<path d="M196.1723 184.9648
L196.1009 184.8933
" />
<path d="M196.1009 184.8933
L196.1009 185.0362
" />
<path d="M197.4580 186.3219
L197.3152 186.3933
" />
<path d="M197.3152 186.3933
L197.0295 186.3933
" />
<path d="M197.0295 186.3933
L196.8866 186.3219
" />
<path d="M196.8866 186.3219
L196.8152 186.2505
" />
<path d="M196.8152 186.2505
L196.7437 186.1076
" />
<path d="M196.7437 186.1076
L196.7437 185.6790
" />
<path d="M196.7437 185.6790
L196.8152 185.5362
" />
<path d="M196.8152 185.5362
L196.8866 185.4648
" />
<path d="M196.8866 185.4648
L197.0295 185.3933
" />
<path d="M197.0295 185.3933
L197.3152 185.3933
" />
<path d="M197.3152 185.3933
L197.4580 185.4648
" />
<path d="M198.7437 186.3933
L198.7437 185.6076
" />
<path d="M198.7437 185.6076
L198.6723 185.4648
" />
<path d="M198.6723 185.4648
L198.5295 185.3933
" />
<path d="M198.5295 185.3933
L198.2437 185.3933
" />
<path d="M198.2437 185.3933
L198.1009 185.4648
" />
<path d="M198.7437 186.3219
L198.6009 186.3933
" />
<path d="M198.6009 186.3933
L198.2437 186.3933
" />
<path d="M198.2437 186.3933
L198.1009 186.3219
" />
<path d="M198.1009 186.3219
L198.0295 186.1790
" />
<path d="M198.0295 186.1790
L198.0295 186.0362
" />
<path d="M198.0295 186.0362
L198.1009 185.8933
" />
<path d="M198.1009 185.8933
L198.2437 185.8219
" />
<path d="M198.2437 185.8219
L198.6009 185.8219
" />
<path d="M198.6009 185.8219
L198.7437 185.7505
" />
<path d="M200.1009 186.3933
L200.1009 184.8933
" />
<path d="M200.1009 186.3219
L199.9580 186.3933
" />
<path d="M199.9580 186.3933
L199.6723 186.3933
" />
<path d="M199.6723 186.3933
L199.5295 186.3219
" />
<path d="M199.5295 186.3219
L199.4580 186.2505
" />
<path d="M199.4580 186.2505
L199.3866 186.1076
" />
<path d="M199.3866 186.1076
L199.3866 185.6790
" />
<path d="M199.3866 185.6790
L199.4580 185.5362
" />
<path d="M199.4580 185.5362
L199.5295 185.4648
" />
<path d="M199.5295 185.4648
L199.6723 185.3933
" />
<path d="M199.6723 185.3933
L199.9580 185.3933
" />
<path d="M199.9580 185.3933
L200.1009 185.4648
" />
<path d="M200.4580 186.5362
L201.6009 186.5362
" />
<path d="M201.9580 185.3933
L201.9580 186.8933
" />
<path d="M201.9580 185.4648
L202.1009 185.3933
" />
<path d="M202.1009 185.3933
L202.3866 185.3933
" />
<path d="M202.3866 185.3933
L202.5295 185.4648
" />
<path d="M202.5295 185.4648
L202.6009 185.5362
" />
<path d="M202.6009 185.5362
L202.6723 185.6790
" />
<path d="M202.6723 185.6790
L202.6723 186.1076
" />
<path d="M202.6723 186.1076
L202.6009 186.2505
" />
<path d="M202.6009 186.2505
L202.5295 186.3219
" />
<path d="M202.5295 186.3219
L202.3866 186.3933
" />
<path d="M202.3866 186.3933
L202.1009 186.3933
" />
<path d="M202.1009 186.3933
L201.9580 186.3219
" />
<path d="M203.9580 186.3219
L203.8152 186.3933
" />
<path d="M203.8152 186.3933
L203.5295 186.3933
" />
<path d="M203.5295 186.3933
L203.3866 186.3219
" />
<path d="M203.3866 186.3219
L203.3152 186.2505
" />
<path d="M203.3152 186.2505
L203.2437 186.1076
" />
<path d="M203.2437 186.1076
L203.2437 185.6790
" />
<path d="M203.2437 185.6790
L203.3152 185.5362
" />
<path d="M203.3152 185.5362
L203.3866 185.4648
" />
<path d="M203.3866 185.4648
L203.5295 185.3933
" />
<path d="M203.5295 185.3933
L203.8152 185.3933
" />
<path d="M203.8152 185.3933
L203.9580 185.4648
" />
<path d="M204.6009 186.3933
L204.6009 184.8933
" />
<path d="M204.6009 185.4648
L204.7437 185.3933
" />
<path d="M204.7437 185.3933
L205.0295 185.3933
" />
<path d="M205.0295 185.3933
L205.1723 185.4648
" />
<path d="M205.1723 185.4648
L205.2437 185.5362
" />
<path d="M205.2437 185.5362
L205.3152 185.6790
" />
<path d="M205.3152 185.6790
L205.3152 186.1076
" />
<path d="M205.3152 186.1076
L205.2437 186.2505
" />
<path d="M205.2437 186.2505
L205.1723 186.3219
" />
<path d="M205.1723 186.3219
L205.0295 186.3933
" />
<path d="M205.0295 186.3933
L204.7437 186.3933
" />
<path d="M204.7437 186.3933
L204.6009 186.3219
" />
</g></g>
<g style="fill:none; 
stroke:#000000; stroke-width:0.1500; stroke-opacity:1; 
stroke-linecap:round; stroke-linejoin:round;">
<path d="M177.0022 181.5072
L285.0022 181.5072
" />
</g>
<g style="fill:none; 
stroke:#000000; stroke-width:0.1500; stroke-opacity:1; 
stroke-linecap:round; stroke-linejoin:round;">
<text x="178.0022" y="183.7572"
textLength="8.2214" font-size="2.0000" lengthAdjust="spacingAndGlyphs"
text-anchor="start" opacity="0" stroke-opacity="0">Sheet: </text>
<g class="stroked-text"><desc>Sheet: </desc>
<path d="M178.3866 183.6219
L178.6009 183.6933
" />
<path d="M178.6009 183.6933
L178.9580 183.6933
" />
<path d="M178.9580 183.6933
L179.1009 183.6219
" />
<path d="M179.1009 183.6219
L179.1723 183.5505
" />
<path d="M179.1723 183.5505
L179.2437 183.4076
" />
<path d="M179.2437 183.4076
L179.2437 183.2648
" />
<path d="M179.2437 183.2648
L179.1723 183.1219
" />
<path d="M179.1723 183.1219
L179.1009 183.0505
" />
<path d="M179.1009 183.0505
L178.9580 182.9790
" />
<path d="M178.9580 182.9790
L178.6723 182.9076
" />
<path d="M178.6723 182.9076
L178.5295 182.8362
" />
<path d="M178.5295 182.8362
L178.4580 182.7648
" />
<path d="M178.4580 182.7648
L178.3866 182.6219
" />
<path d="M178.3866 182.6219
L178.3866 182.4790
" />
<path d="M178.3866 182.4790
L178.4580 182.3362
" />
<path d="M178.4580 182.3362
L178.5295 182.2648
" />
<path d="M178.5295 182.2648
L178.6723 182.1933
" />
<path d="M178.6723 182.1933
L179.0295 182.1933
" />
<path d="M179.0295 182.1933
L179.2437 182.2648
" />
<path d="M179.8866 183.6933
L179.8866 182.1933
" />
<path d="M180.5295 183.6933
L180.5295 182.9076
" />
<path d="M180.5295 182.9076
L180.4580 182.7648
" />
<path d="M180.4580 182.7648
L180.3152 182.6933
" />
<path d="M180.3152 182.6933
L180.1009 182.6933
" />
<path d="M180.1009 182.6933
L179.9580 182.7648
" />
<path d="M179.9580 182.7648
L179.8866 182.8362
" />
<path d="M181.8152 183.6219
L181.6723 183.6933
" />
<path d="M181.6723 183.6933
L181.3866 183.6933
" />
<path d="M181.3866 183.6933
L181.2437 183.6219
" />
<path d="M181.2437 183.6219
L181.1723 183.4790
" />
<path d="M181.1723 183.4790
L181.1723 182.9076
" />
<path d="M181.1723 182.9076
L181.2437 182.7648
" />
<path d="M181.2437 182.7648
L181.3866 182.6933
" />
<path d="M181.3866 182.6933
L181.6723 182.6933
" />
<path d="M181.6723 182.6933
L181.8152 182.7648
" />
<path d="M181.8152 182.7648
L181.8866 182.9076
" />
<path d="M181.8866 182.9076
L181.8866 183.0505
" />
<path d="M181.8866 183.0505
L181.1723 183.1933
" />
<path d="M183.1009 183.6219
L182.9580 183.6933
" />
<path d="M182.9580 183.6933
L182.6723 183.6933
" />
<path d="M182.6723 183.6933
L182.5295 183.6219
" />
<path d="M182.5295 183.6219
L182.4580 183.4790
" />
<path d="M182.4580 183.4790
L182.4580 182.9076
" />
<path d="M182.4580 182.9076
L182.5295 182.7648
" />
<path d="M182.5295 182.7648
L182.6723 182.6933
" />
<path d="M182.6723 182.6933
L182.9580 182.6933
" />
<path d="M182.9580 182.6933
L183.1009 182.7648
" />
<path d="M183.1009 182.7648
L183.1723 182.9076
" />
<path d="M183.1723 182.9076
L183.1723 183.0505
" />
<path d="M183.1723 183.0505
L182.4580 183.1933
" />
<path d="M183.6009 182.6933
L184.1723 182.6933
" />
<path d="M183.8152 182.1933
L183.8152 183.4790
" />
<path d="M183.8152 183.4790
L183.8866 183.6219
" />
<path d="M183.8866 183.6219
L184.0295 183.6933
" />
<path d="M184.0295 183.6933
L184.1723 183.6933
" />
<path d="M184.6723 183.5505
L184.7437 183.6219
" />
<path d="M184.7437 183.6219
L184.6723 183.6933
" />
<path d="M184.6723 183.6933
L184.6009 183.6219
" />
<path d="M184.6009 183.6219
L184.6723 183.5505
" />
<path d="M184.6723 183.5505
L184.6723 183.6933
" />
<path d="M184.6723 182.7648
L184.7437 182.8362
" />
<path d="M184.7437 182.8362
L184.6723 182.9076
" />
<path d="M184.6723 182.9076
L184.6009 182.8362
" />
<path d="M184.6009 182.8362
L184.6723 182.7648
" />
<path d="M184.6723 182.7648
L184.6723 182.9076
" />
</g></g>
<g style="fill:none; 
stroke:#000000; stroke-width:0.3000; stroke-opacity:1; 
stroke-linecap:round; stroke-linejoin:round;">
<text x="178.0022" y="180.7572"
textLength="0.9000" font-size="2.0000" lengthAdjust="spacingAndGlyphs"
text-anchor="start" opacity="0" stroke-opacity="0"></text>
<g class="stroked-text"><desc></desc>
</g></g>
<g style="fill:none; 
stroke:#000000; stroke-width:0.1500; stroke-opacity:1; 
stroke-linecap:round; stroke-linejoin:round;">
<text x="178.0022" y="177.7572"
textLength="0.4500" font-size="2.0000" lengthAdjust="spacingAndGlyphs"
text-anchor="start" opacity="0" stroke-opacity="0"></text>
<g class="stroked-text"><desc></desc>
</g></g>
<g style="fill:none; 
stroke:#000000; stroke-width:0.1500; stroke-opacity:1; 
stroke-linecap:round; stroke-linejoin:round;">
<text x="178.0022" y="174.7572"
textLength="0.4500" font-size="2.0000" lengthAdjust="spacingAndGlyphs"
text-anchor="start" opacity="0" stroke-opacity="0"></text>
<g class="stroked-text"><desc></desc>
</g></g>
<g style="fill:none; 
stroke:#000000; stroke-width:0.1500; stroke-opacity:1; 
stroke-linecap:round; stroke-linejoin:round;">
<text x="178.0022" y="171.7572"
textLength="0.4500" font-size="2.0000" lengthAdjust="spacingAndGlyphs"
text-anchor="start" opacity="0" stroke-opacity="0"></text>
<g class="stroked-text"><desc></desc>
</g></g>
<g style="fill:none; 
stroke:#000000; stroke-width:0.1500; stroke-opacity:1; 
stroke-linecap:round; stroke-linejoin:round;">
<text x="178.0022" y="168.7572"
textLength="0.4500" font-size="2.0000" lengthAdjust="spacingAndGlyphs"
text-anchor="start" opacity="0" stroke-opacity="0"></text>
<g class="stroked-text"><desc></desc>
</g></g>
<g style="fill:none; 
stroke:#000000; stroke-width:0.1500; stroke-opacity:1; 
stroke-linecap:round; stroke-linejoin:round;">
<path d="M197.0022 191.5072
L197.0022 194.5072
" />
</g>
<g style="fill:none; 
stroke:#000000; stroke-width:0.1500; stroke-opacity:1; 
stroke-linecap:round; stroke-linejoin:round;">
<path d="M261.0022 191.5072
L261.0022 198.0072
" />
</g>
<g style="fill:none; 
stroke:#000000; stroke-width:0.2000; stroke-opacity:1; 
stroke-linecap:round; stroke-linejoin:round;">
<path d="M136.1100 78.0000
L154.7700 78.0000
" />
<path d="M131.0300 113.5600 A5.0800 5.0800 0.0 0 0 136.1100 118.6400" />
<path d="M159.8500 83.0800
L159.8500 113.5600
" />
<path d="M154.7700 118.6400 A5.0800 5.0800 0.0 0 0 159.8500 113.5600" />
<path d="M131.0300 113.5600
L131.0300 83.0800
" />
<path d="M154.7700 118.6400
L136.1100 118.6400
" />
<path d="M136.1100 78.0000 A5.0800 5.0800 0.0 0 0 131.0300 83.0800" />
<path d="M159.8500 83.0800 A5.0800 5.0800 0.0 0 0 154.7700 78.0000" />
</g>
<g style="fill:#000000; fill-opacity:1.0000; stroke:none;">
<circle cx="137.1600" cy="93.9800" r="0.5000" /> 
</g>
<g style="fill:#000000; fill-opacity:1.0000; stroke:none;">
<circle cx="137.1600" cy="96.5200" r="0.5000" /> 
</g>
<g style="fill:#000000; fill-opacity:1.0000; stroke:none;">
<circle cx="137.1600" cy="99.0600" r="0.5000" /> 
</g>
<g style="fill:#000000; fill-opacity:1.0000; stroke:none;">
<circle cx="137.1600" cy="101.6000" r="0.5000" /> 
</g>
<g style="fill:#000000; fill-opacity:1.0000; stroke:none;">
<circle cx="137.1600" cy="104.1400" r="0.5000" /> 
</g>
<g style="fill:#000000; fill-opacity:1.0000; stroke:none;">
<circle cx="149.1200" cy="89.6400" r="0.4050" /> 
</g>
<g style="fill:#000000; fill-opacity:1.0000; stroke:none;">
<circle cx="149.1200" cy="93.2400" r="0.4050" /> 
</g>
<g style="fill:#000000; fill-opacity:1.0000; stroke:none;">
<circle cx="145.5200" cy="93.2400" r="0.4050" /> 
</g>
<g style="fill:#000000; fill-opacity:1.0000; stroke:none;">
<circle cx="145.5200" cy="89.6400" r="0.4050" /> 
</g>
<g style="fill:#000000; fill-opacity:1.0000; stroke:none;">
<circle cx="149.1200" cy="107.4200" r="0.4050" /> 
</g>
<g style="fill:#000000; fill-opacity:1.0000; stroke:none;">
<circle cx="149.1200" cy="111.0200" r="0.4050" /> 
</g>
<g style="fill:#000000; fill-opacity:1.0000; stroke:none;">
<circle cx="145.5200" cy="111.0200" r="0.4050" /> 
</g>
<g style="fill:#000000; fill-opacity:1.0000; stroke:none;">
<circle cx="145.5200" cy="107.4200" r="0.4050" /> 
<path style="fill:#000000; fill-opacity:1.0000; stroke:none;fill-rule:evenodd;"
d="M 136.3100,94.8300
136.3100,93.1300
138.0100,93.1300
138.0100,94.8300
Z" /> 
</g>
<g style="fill:#000000; fill-opacity:1.0000; stroke:none;">
<circle cx="137.1600" cy="96.5200" r="0.8500" /> 
<circle cx="137.1600" cy="99.0600" r="0.8500" /> 
<circle cx="137.1600" cy="101.6000" r="0.8500" /> 
<circle cx="137.1600" cy="104.1400" r="0.8500" /> 
<circle cx="149.1200" cy="89.6400" r="0.8800" /> 
</g>
<g style="fill:#000000; fill-opacity:1.0000; stroke:none;">
<circle cx="149.1200" cy="93.2400" r="0.8800" /> 
</g>
<g style="fill:#000000; fill-opacity:1.0000; stroke:none;">
<circle cx="145.5200" cy="93.2400" r="0.8800" /> 
</g>
<g style="fill:#000000; fill-opacity:1.0000; stroke:none;">
<circle cx="145.5200" cy="89.6400" r="0.8800" /> 
</g>
<g style="fill:#000000; fill-opacity:1.0000; stroke:none;">
<circle cx="149.1200" cy="107.4200" r="0.8800" /> 
</g>
<g style="fill:#000000; fill-opacity:1.0000; stroke:none;">
<circle cx="149.1200" cy="111.0200" r="0.8800" /> 
</g>
<g style="fill:#000000; fill-opacity:1.0000; stroke:none;">
<circle cx="145.5200" cy="111.0200" r="0.8800" /> 
</g>
<g style="fill:#000000; fill-opacity:1.0000; stroke:none;">
<circle cx="145.5200" cy="107.4200" r="0.8800" /> 
</g>
<g style="fill:#000000; fill-opacity:1.0000; stroke:none;">
<circle cx="134.5000" cy="109.3000" r="0.7000" /> 
</g>
<g style="fill:#000000; fill-opacity:1.0000; stroke:none;">
<circle cx="145.5000" cy="98.1000" r="0.7000" /> 
</g>
<g style="fill:#000000; fill-opacity:1.0000; stroke:none;">
<circle cx="138.2000" cy="89.6000" r="0.7000" /> 
</g>
<g style="fill:#000000; fill-opacity:1.0000; stroke:none;">
<circle cx="149.7000" cy="99.1000" r="0.7000" /> 
</g>
<g style="fill:none; 
stroke:#000000; stroke-width:0.5500; stroke-opacity:1; 
stroke-linecap:round; stroke-linejoin:round;">
<path d="M134.5000 109.3000
L134.5000 100.2000
" />
<path d="M134.5000 100.2000
L135.6400 99.0600
" />
<path d="M135.6400 99.0600
L137.1600 99.0600
" />
<path d="M142.7000 101.6000
L140.1600 104.1400
" />
<path d="M140.1600 104.1400
L137.1600 104.1400
" />
<path d="M145.5000 98.1000
L141.3800 93.9800
" />
<path d="M141.3800 93.9800
L137.1600 93.9800
" />
<path d="M138.2000 89.6000
L134.3000 93.5000
" />
<path d="M134.3000 93.5000
L134.3000 95.6000
" />
<path d="M134.3000 95.6000
L135.2200 96.5200
" />
<path d="M135.2200 96.5200
L137.1600 96.5200
" />
<path d="M142.7000 101.6000
L147.2000 101.6000
" />
<path d="M147.2000 101.6000
L149.7000 99.1000
" />
<path style="fill:#000000; fill-opacity:1.0000; stroke:none;fill-rule:evenodd;"
d="M 154.7727,78.5006
155.1637,78.5177
155.1745,78.5186
155.5599,78.5694
155.5705,78.5712
155.9500,78.6554
155.9604,78.6582
156.3311,78.7750
156.3413,78.7787
156.7004,78.9275
156.7102,78.9321
157.0550,79.1115
157.0643,79.1169
157.3344,79.2890
157.3921,79.3258
157.4010,79.3320
157.7094,79.5686
157.7176,79.5756
158.0042,79.8381
158.0119,79.8458
158.2744,80.1324
158.2814,80.1406
158.5180,80.4490
158.5242,80.4579
158.7331,80.7857
158.7385,80.7951
158.9179,81.1398
158.9225,81.1496
159.0712,81.5087
159.0749,81.5189
159.1918,81.8896
159.1946,81.9000
159.2788,82.2795
159.2806,82.2902
159.3314,82.6755
159.3323,82.6863
159.3494,83.0773
159.3495,83.0827
159.3495,113.4941
159.3495,113.5573
159.3494,113.5627
159.3323,113.9537
159.3314,113.9645
159.2806,114.3498
159.2788,114.3605
159.1946,114.7400
159.1918,114.7504
159.0749,115.1211
159.0712,115.1313
158.9225,115.4904
158.9179,115.5002
158.7385,115.8449
158.7331,115.8543
158.5242,116.1821
158.5180,116.1910
158.2814,116.4994
158.2744,116.5076
158.0119,116.7942
158.0042,116.8019
157.7176,117.0644
157.7094,117.0714
157.4010,117.3080
157.3921,117.3142
157.0643,117.5231
157.0549,117.5285
156.7102,117.7079
156.7004,117.7125
156.3413,117.8612
156.3311,117.8649
155.9604,117.9818
155.9500,117.9846
155.5705,118.0688
155.5598,118.0706
155.1745,118.1214
155.1637,118.1223
154.7727,118.1394
154.7673,118.1395
136.1127,118.1395
136.1073,118.1394
135.7163,118.1223
135.7055,118.1214
135.6168,118.1097
135.3202,118.0706
135.3095,118.0688
134.9300,117.9846
134.9196,117.9818
134.5489,117.8649
134.5387,117.8612
134.1796,117.7125
134.1698,117.7079
133.8251,117.5285
133.8157,117.5231
133.4879,117.3142
133.4790,117.3080
133.1706,117.0714
133.1624,117.0644
132.8758,116.8019
132.8681,116.7942
132.6056,116.5076
132.5986,116.4994
132.3620,116.1910
132.3558,116.1821
132.1469,115.8543
132.1415,115.8449
131.9621,115.5002
131.9575,115.4904
131.8087,115.1313
131.8051,115.1211
131.6882,114.7504
131.6854,114.7400
131.6012,114.3605
131.5994,114.3498
131.5486,113.9645
131.5477,113.9537
131.5306,113.5627
131.5305,113.5573
131.5305,113.4941
131.5305,111.0200
144.0846,111.0200
144.0846,111.0200
144.1042,111.2563
144.1624,111.4861
144.2576,111.7032
144.3873,111.9016
144.5478,112.0761
144.5478,112.0761
144.7349,112.2217
144.9434,112.3345
145.1676,112.4115
145.4015,112.4505
145.6385,112.4505
145.8724,112.4115
146.0966,112.3345
146.3051,112.2217
146.4922,112.0761
146.6527,111.9016
146.7824,111.7032
146.8776,111.4861
146.9358,111.2563
146.9554,111.0200
146.9554,111.0200
147.6846,111.0200
147.6846,111.0200
147.7042,111.2563
147.7624,111.4861
147.8576,111.7032
147.9873,111.9016
148.1478,112.0761
148.1478,112.0761
148.3349,112.2217
148.5434,112.3345
148.7676,112.4115
149.0015,112.4505
149.2385,112.4505
149.4724,112.4115
149.6966,112.3345
149.9051,112.2217
150.0922,112.0761
150.2527,111.9016
150.3824,111.7032
150.4776,111.4861
150.5358,111.2563
150.5554,111.0200
150.5358,110.7837
150.4922,110.6114
150.4776,110.5539
150.3824,110.3368
150.2527,110.1384
150.0922,109.9639
150.0922,109.9639
149.9051,109.8183
149.6966,109.7055
149.6966,109.7055
149.4724,109.6285
149.2385,109.5895
149.0015,109.5895
148.7676,109.6285
148.5434,109.7055
148.5434,109.7055
148.3349,109.8183
148.1478,109.9639
148.1478,109.9639
147.9873,110.1384
147.8576,110.3368
147.7624,110.5539
147.7042,110.7837
147.6846,111.0200
146.9554,111.0200
146.9358,110.7837
146.8922,110.6114
146.8776,110.5539
146.7824,110.3368
146.6527,110.1384
146.4922,109.9639
146.4922,109.9639
146.3051,109.8183
146.0966,109.7055
146.0966,109.7055
145.8724,109.6285
145.6385,109.5895
145.4015,109.5895
145.1676,109.6285
144.9434,109.7055
144.9434,109.7055
144.7349,109.8183
144.5478,109.9639
144.5478,109.9639
144.3873,110.1384
144.2576,110.3368
144.1624,110.5539
144.1042,110.7837
144.0846,111.0200
131.5305,111.0200
131.5305,109.3000
133.2447,109.3000
133.2447,109.3000
133.2638,109.5180
133.2638,109.5180
133.3204,109.7293
133.3204,109.7293
133.3204,109.7293
133.3619,109.8183
133.4129,109.9276
133.4129,109.9276
133.5384,110.1069
133.6931,110.2616
133.8724,110.3871
134.0707,110.4796
134.2820,110.5362
134.4649,110.5522
134.5000,110.5553
134.5000,110.5553
134.5000,110.5553
134.5283,110.5528
134.7180,110.5362
134.9293,110.4796
135.1276,110.3871
135.3069,110.2616
135.4616,110.1069
135.5871,109.9276
135.6796,109.7293
135.7362,109.5180
135.7553,109.3000
135.7362,109.0820
135.6796,108.8707
135.5871,108.6724
135.5871,108.6724
135.5871,108.6724
135.4616,108.4931
135.3618,108.3933
135.3283,108.3320
135.3255,108.3057
135.3255,107.4200
144.0846,107.4200
144.0846,107.4200
144.1042,107.6563
144.1624,107.8861
144.2576,108.1032
144.3873,108.3016
144.4717,108.3933
144.5478,108.4761
144.7349,108.6217
144.9434,108.7345
145.1676,108.8115
145.4015,108.8505
145.6385,108.8505
145.8724,108.8115
146.0966,108.7345
146.3051,108.6217
146.4922,108.4761
146.6527,108.3016
146.7824,108.1032
146.8776,107.8861
146.9358,107.6563
146.9554,107.4200
146.9554,107.4200
147.7353,107.4200
147.7353,107.4200
147.7542,107.6479
147.8103,107.8696
147.9022,108.0791
147.9833,108.2032
148.7150,107.4714
148.7150,107.4733
148.7426,107.5763
148.7959,107.6687
148.8713,107.7441
148.9637,107.7974
149.0667,107.8250
149.0686,107.8250
148.3355,108.5581
148.3626,108.5793
148.3626,108.5793
148.5638,108.6881
148.5638,108.6881
148.7801,108.7624
149.0057,108.8000
149.2344,108.8000
149.4599,108.7624
149.6762,108.6881
149.6762,108.6881
149.8774,108.5793
149.8774,108.5793
149.9045,108.5581
149.9045,108.5581
149.1714,107.8250
149.1733,107.8250
149.2763,107.7974
149.3687,107.7441
149.4441,107.6687
149.4974,107.5763
149.5250,107.4733
149.5250,107.4714
150.2567,108.2032
150.3378,108.0791
150.3378,108.0791
150.4297,107.8696
150.4858,107.6479
150.5047,107.4200
150.5047,107.4200
150.4858,107.1921
150.4297,106.9704
150.3378,106.7609
150.2567,106.6368
149.5250,107.3686
149.5250,107.3667
149.4974,107.2637
149.4441,107.1713
149.3687,107.0959
149.2763,107.0426
149.1733,107.0150
149.1714,107.0150
149.9045,106.2819
149.9045,106.2819
149.8774,106.2608
149.8774,106.2607
149.6762,106.1519
149.6762,106.1519
149.4599,106.0776
149.2344,106.0400
149.0057,106.0400
148.7801,106.0776
148.5638,106.1519
148.5638,106.1519
148.3626,106.2608
148.3355,106.2819
148.3355,106.2819
149.0686,107.0150
149.0667,107.0150
148.9637,107.0426
148.8713,107.0959
148.7959,107.1713
148.7426,107.2637
148.7150,107.3667
148.7150,107.3686
147.9833,106.6368
147.9022,106.7609
147.8103,106.9704
147.7542,107.1921
147.7353,107.4200
146.9554,107.4200
146.9358,107.1837
146.8776,106.9539
146.7824,106.7368
146.6527,106.5384
146.6527,106.5384
146.4922,106.3639
146.4922,106.3639
146.3596,106.2608
146.3051,106.2183
146.3051,106.2183
146.3051,106.2183
146.0966,106.1055
146.0966,106.1055
145.8724,106.0285
145.6385,105.9895
145.4015,105.9895
145.1676,106.0285
144.9434,106.1055
144.9434,106.1055
144.7349,106.2183
144.5478,106.3639
144.5478,106.3639
144.3873,106.5384
144.2576,106.7368
144.1624,106.9539
144.1042,107.1837
144.0846,107.4200
135.3255,107.4200
135.3255,100.5933
135.3452,100.5263
135.3618,100.5056
135.6310,100.2365
135.9085,99.9590
135.9698,99.9255
136.0395,99.9305
136.0874,99.9627
136.2082,100.0939
136.2082,100.0939
136.2082,100.0939
136.3914,100.2365
136.3914,100.2365
136.3914,100.2365
136.4192,100.2515
136.4688,100.3008
136.4839,100.3690
136.4598,100.4345
136.4313,100.4622
136.2889,100.5619
136.2889,100.5619
136.1219,100.7289
136.1219,100.7289
135.9864,100.9224
135.9864,100.9224
135.8866,101.1365
135.8866,101.1365
135.8294,101.3500
135.8294,101.3500
136.7270,101.3500
136.6941,101.4070
136.6600,101.5342
136.6600,101.6658
136.6941,101.7930
136.7270,101.8500
135.8294,101.8500
135.8866,102.0635
135.8866,102.0635
135.9864,102.2776
136.1219,102.4711
136.2889,102.6381
136.4313,102.7378
136.4750,102.7924
136.4821,102.8619
136.4506,102.9243
136.4192,102.9485
136.3914,102.9635
136.3914,102.9635
136.2082,103.1061
136.2082,103.1061
136.0510,103.2769
135.9241,103.4712
135.8308,103.6837
135.7739,103.9087
135.7739,103.9087
135.7547,104.1400
135.7547,104.1400
135.7739,104.3713
135.7739,104.3713
135.8308,104.5963
135.9241,104.8088
136.0510,105.0031
136.0510,105.0032
136.0510,105.0032
136.2082,105.1739
136.2082,105.1739
136.2082,105.1739
136.3914,105.3165
136.3914,105.3165
136.3914,105.3165
136.5955,105.4269
136.7095,105.4661
136.8150,105.5023
136.8150,105.5023
136.8150,105.5023
137.0440,105.5405
137.0440,105.5405
137.2760,105.5405
137.2760,105.5405
137.5050,105.5023
137.7245,105.4269
137.9286,105.3165
138.1118,105.1739
138.2668,105.0055
138.3267,104.9695
138.3580,104.9655
140.2413,104.9655
140.3486,104.9442
140.4008,104.9338
140.5510,104.8715
140.5510,104.8715
140.6449,104.8088
140.6862,104.7812
143.0056,102.4618
143.0669,102.4283
143.0933,102.4255
147.2813,102.4255
147.3886,102.4042
147.4408,102.3938
147.5910,102.3315
147.5910,102.3315
147.6718,102.2776
147.7262,102.2412
149.5783,100.3891
149.6397,100.3556
149.6768,100.3532
149.7000,100.3553
149.7000,100.3553
149.7000,100.3553
149.7000,100.3553
149.7283,100.3528
149.9180,100.3362
150.1293,100.2796
150.3276,100.1871
150.5069,100.0616
150.6616,99.9069
150.7871,99.7276
150.8796,99.5293
150.9362,99.3180
150.9553,99.1000
150.9362,98.8820
150.8796,98.6707
150.7871,98.4724
150.7871,98.4724
150.7871,98.4724
150.6616,98.2931
150.5989,98.2305
150.5069,98.1384
150.3276,98.0129
150.3276,98.0129
150.3276,98.0129
150.2285,97.9667
150.1293,97.9204
150.1293,97.9204
150.1293,97.9204
149.9180,97.8638
149.7000,97.8447
149.7000,97.8447
149.5547,97.8574
149.4820,97.8638
149.4820,97.8638
149.2707,97.9204
149.2707,97.9204
149.0724,98.0129
149.0724,98.0129
148.8931,98.1384
148.7384,98.2931
148.6129,98.4724
148.6129,98.4724
148.5204,98.6707
148.5204,98.6707
148.4638,98.8820
148.4638,98.8820
148.4447,99.1000
148.4447,99.1000
148.4467,99.1232
148.4330,99.1917
148.4109,99.2217
146.8944,100.7382
146.8331,100.7717
146.8067,100.7745
142.6187,100.7745
142.4592,100.8062
142.4592,100.8062
142.3090,100.8684
142.3090,100.8685
142.1738,100.9588
142.1738,100.9588
139.8544,103.2782
139.7931,103.3117
139.7667,103.3145
138.3580,103.3145
138.2910,103.2948
138.2668,103.2745
138.2447,103.2504
138.1118,103.1061
138.1118,103.1061
138.1118,103.1061
137.9286,102.9635
137.9286,102.9635
137.9008,102.9485
137.8512,102.8992
137.8361,102.8310
137.8602,102.7655
137.8887,102.7378
138.0311,102.6381
138.1981,102.4711
138.3336,102.2776
138.4334,102.0635
138.4334,102.0635
138.4906,101.8500
137.5930,101.8500
137.6259,101.7930
137.6600,101.6658
137.6600,101.5342
137.6259,101.4070
137.5930,101.3500
138.4906,101.3500
138.4906,101.3500
138.4334,101.1365
138.4334,101.1365
138.3336,100.9224
138.3336,100.9224
138.1981,100.7289
138.1981,100.7289
138.0311,100.5619
137.8887,100.4622
137.8450,100.4076
137.8378,100.3381
137.8694,100.2757
137.9008,100.2515
137.9286,100.2365
138.1118,100.0939
138.2690,99.9232
138.3959,99.7288
138.4892,99.5163
138.5461,99.2913
138.5519,99.2217
138.5653,99.0600
138.5653,99.0600
138.5461,98.8287
138.5461,98.8287
138.4892,98.6037
138.3959,98.3912
138.2690,98.1969
138.2690,98.1968
138.2690,98.1968
138.1118,98.0261
138.1118,98.0261
138.1118,98.0261
137.9286,97.8835
137.9286,97.8835
137.9008,97.8685
137.8512,97.8192
137.8361,97.7510
137.8602,97.6855
137.8887,97.6578
138.0311,97.5581
138.1981,97.3911
138.3336,97.1976
138.4334,96.9835
138.4334,96.9835
138.4906,96.7700
137.5930,96.7700
137.6259,96.7130
137.6600,96.5858
137.6600,96.4542
137.6259,96.3270
137.5930,96.2700
138.4906,96.2700
138.4906,96.2700
138.4334,96.0565
138.4334,96.0565
138.3336,95.8424
138.3336,95.8424
138.1981,95.6489
138.1981,95.6489
138.1157,95.5665
138.0822,95.5052
138.0872,95.4355
138.1290,95.3795
138.1579,95.3635
138.2823,95.3144
138.4029,95.2229
138.4944,95.1023
138.5499,94.9616
138.5555,94.9147
138.5830,94.8505
138.6409,94.8114
138.6786,94.8055
140.9867,94.8055
141.0537,94.8252
141.0744,94.8418
144.2109,97.9783
144.2444,98.0397
144.2467,98.0768
144.2447,98.1000
144.2616,98.2931
144.2638,98.3180
144.2638,98.3180
144.3204,98.5293
144.3204,98.5293
144.3204,98.5293
144.3551,98.6037
144.4129,98.7276
144.4129,98.7276
144.5384,98.9069
144.6931,99.0616
144.8724,99.1871
145.0707,99.2796
145.2820,99.3362
145.4649,99.3522
145.5000,99.3553
145.5000,99.3553
145.5000,99.3553
145.5283,99.3528
145.7180,99.3362
145.9293,99.2796
146.1276,99.1871
146.3069,99.0616
146.4616,98.9069
146.5871,98.7276
146.6796,98.5293
146.7362,98.3180
146.7553,98.1000
146.7362,97.8820
146.6796,97.6707
146.5871,97.4724
146.5871,97.4724
146.5871,97.4724
146.4616,97.2931
146.4616,97.2931
146.3069,97.1384
146.1276,97.0129
146.1276,97.0129
146.1276,97.0129
146.0285,96.9667
145.9293,96.9204
145.9293,96.9204
145.9293,96.9204
145.7180,96.8638
145.5000,96.8447
145.5000,96.8447
145.4768,96.8468
145.4083,96.8330
145.3783,96.8109
141.9062,93.3388
141.9062,93.3388
141.7710,93.2485
141.7710,93.2484
141.7506,93.2400
144.0846,93.2400
144.0846,93.2400
144.1042,93.4763
144.1624,93.7061
144.2576,93.9232
144.3873,94.1216
144.5478,94.2961
144.5478,94.2961
144.7349,94.4417
144.9434,94.5545
145.1676,94.6315
145.4015,94.6705
145.6385,94.6705
145.8724,94.6315
146.0966,94.5545
146.3051,94.4417
146.4922,94.2961
146.6527,94.1216
146.7824,93.9232
146.8776,93.7061
146.9358,93.4763
146.9554,93.2400
146.9554,93.2400
147.6846,93.2400
147.6846,93.2400
147.7042,93.4763
147.7624,93.7061
147.8576,93.9232
147.9873,94.1216
148.1478,94.2961
148.1478,94.2961
148.3349,94.4417
148.5434,94.5545
148.7676,94.6315
149.0015,94.6705
149.2385,94.6705
149.4724,94.6315
149.6966,94.5545
149.9051,94.4417
150.0922,94.2961
150.2527,94.1216
150.3824,93.9232
150.4776,93.7061
150.5358,93.4763
150.5554,93.2400
150.5483,93.1545
150.5358,93.0037
150.5358,93.0037
150.4776,92.7739
150.4615,92.7371
150.3824,92.5568
150.2527,92.3584
150.0922,92.1839
150.0922,92.1839
149.9051,92.0383
149.6966,91.9255
149.6966,91.9255
149.4724,91.8485
149.2385,91.8095
149.0015,91.8095
148.7676,91.8485
148.5434,91.9255
148.5434,91.9255
148.3349,92.0383
148.1478,92.1839
148.1478,92.1839
147.9873,92.3584
147.8576,92.5568
147.7624,92.7739
147.7042,93.0037
147.6846,93.2400
146.9554,93.2400
146.9483,93.1545
146.9358,93.0037
146.9358,93.0037
146.8776,92.7739
146.8615,92.7371
146.7824,92.5568
146.6527,92.3584
146.4922,92.1839
146.4922,92.1839
146.3051,92.0383
146.0966,91.9255
146.0966,91.9255
145.8724,91.8485
145.6385,91.8095
145.4015,91.8095
145.1676,91.8485
144.9434,91.9255
144.9434,91.9255
144.7349,92.0383
144.5478,92.1839
144.5478,92.1839
144.3873,92.3584
144.2576,92.5568
144.1624,92.7739
144.1042,93.0037
144.0846,93.2400
141.7506,93.2400
141.6208,93.1862
141.6208,93.1862
141.4613,93.1545
141.4613,93.1545
138.6786,93.1545
138.6116,93.1348
138.5658,93.0820
138.5555,93.0453
138.5499,92.9984
138.4944,92.8577
138.4944,92.8577
138.4944,92.8577
138.4029,92.7371
138.2823,92.6456
138.1416,92.5901
138.0959,92.5846
138.0531,92.5795
136.2669,92.5795
136.2279,92.5842
136.1784,92.5901
136.0377,92.6456
135.9171,92.7371
135.8256,92.8577
135.7701,92.9984
135.7645,93.0453
135.7595,93.0869
135.7595,94.8731
135.7645,94.9147
135.7701,94.9616
135.8256,95.1023
135.9171,95.2229
136.0377,95.3144
136.0377,95.3144
136.0377,95.3144
136.1621,95.3635
136.2173,95.4064
136.2405,95.4723
136.2244,95.5402
136.2043,95.5665
136.1219,95.6489
135.9864,95.8424
135.9864,95.8424
135.8866,96.0565
135.8866,96.0565
135.8294,96.2700
135.8294,96.2700
136.7270,96.2700
136.6941,96.3270
136.6600,96.4542
136.6600,96.5858
136.6941,96.7130
136.7270,96.7700
135.8294,96.7700
135.8866,96.9835
135.8866,96.9835
135.9864,97.1976
136.1219,97.3911
136.2889,97.5581
136.4313,97.6578
136.4750,97.7124
136.4821,97.7819
136.4506,97.8443
136.4192,97.8685
136.3914,97.8835
136.3914,97.8835
136.2082,98.0261
136.2082,98.0261
136.0532,98.1945
135.9933,98.2305
135.9620,98.2345
135.5587,98.2345
135.3992,98.2662
135.3992,98.2662
135.2490,98.3284
135.2490,98.3285
135.1138,98.4188
135.1138,98.4188
134.0163,99.5163
133.9738,99.5588
133.9163,99.6163
133.8588,99.6738
133.8588,99.6738
133.7685,99.8090
133.7685,99.8090
133.7062,99.9592
133.7062,99.9592
133.6745,100.1187
133.6745,108.3057
133.6548,108.3727
133.6382,108.3933
133.5384,108.4931
133.4129,108.6724
133.4129,108.6724
133.3204,108.8707
133.3204,108.8707
133.2638,109.0820
133.2638,109.0820
133.2447,109.3000
131.5305,109.3000
131.5305,105.9895
131.5305,89.6400
144.0846,89.6400
144.0846,89.6400
144.1042,89.8763
144.1624,90.1061
144.2576,90.3232
144.3873,90.5216
144.5478,90.6961
144.5478,90.6961
144.7349,90.8417
144.9434,90.9545
145.1676,91.0315
145.4015,91.0705
145.6385,91.0705
145.8724,91.0315
146.0966,90.9545
146.3051,90.8417
146.4922,90.6961
146.6527,90.5216
146.7824,90.3232
146.8776,90.1061
146.9358,89.8763
146.9554,89.6400
146.9554,89.6400
147.7353,89.6400
147.7353,89.6400
147.7542,89.8679
147.8103,90.0896
147.9022,90.2991
147.9833,90.4232
148.7150,89.6914
148.7150,89.6933
148.7426,89.7963
148.7959,89.8887
148.8713,89.9641
148.9637,90.0174
149.0667,90.0450
149.0686,90.0450
148.3355,90.7781
148.3626,90.7993
148.3626,90.7993
148.5638,90.9081
148.5638,90.9081
148.7801,90.9824
149.0057,91.0200
149.2344,91.0200
149.4599,90.9824
149.6762,90.9081
149.6762,90.9081
149.8774,90.7993
149.8774,90.7993
149.9045,90.7781
149.9045,90.7781
149.1714,90.0450
149.1733,90.0450
149.2763,90.0174
149.3687,89.9641
149.4441,89.8887
149.4974,89.7963
149.5250,89.6933
149.5250,89.6914
150.2567,90.4232
150.3378,90.2991
150.3378,90.2991
150.4297,90.0896
150.4858,89.8679
150.5047,89.6400
150.5047,89.6400
150.4858,89.4121
150.4297,89.1904
150.3378,88.9809
150.2567,88.8568
149.5250,89.5886
149.5250,89.5867
149.4974,89.4837
149.4441,89.3913
149.3687,89.3159
149.2763,89.2626
149.1733,89.2350
149.1714,89.2350
149.9045,88.5019
149.9045,88.5019
149.8774,88.4808
149.8774,88.4807
149.6762,88.3719
149.6762,88.3719
149.4599,88.2976
149.2344,88.2600
149.0057,88.2600
148.7801,88.2976
148.5638,88.3719
148.5638,88.3719
148.3626,88.4808
148.3355,88.5019
148.3355,88.5019
149.0686,89.2350
149.0667,89.2350
148.9637,89.2626
148.8713,89.3159
148.7959,89.3913
148.7426,89.4837
148.7150,89.5867
148.7150,89.5886
147.9833,88.8568
147.9022,88.9809
147.8103,89.1904
147.7542,89.4121
147.7353,89.6400
146.9554,89.6400
146.9358,89.4037
146.8776,89.1739
146.7824,88.9568
146.6527,88.7584
146.6527,88.7584
146.4922,88.5839
146.4922,88.5839
146.3596,88.4808
146.3051,88.4383
146.3051,88.4383
146.3051,88.4383
146.0966,88.3255
146.0966,88.3255
145.8724,88.2485
145.6385,88.2095
145.4015,88.2095
145.1676,88.2485
144.9434,88.3255
144.9434,88.3255
144.7349,88.4383
144.5478,88.5839
144.5478,88.5839
144.3873,88.7584
144.2576,88.9568
144.1624,89.1739
144.1042,89.4037
144.0846,89.6400
131.5305,89.6400
131.5305,83.0827
131.5306,83.0773
131.5477,82.6863
131.5486,82.6755
131.5994,82.2901
131.6012,82.2795
131.6854,81.9000
131.6882,81.8896
131.8051,81.5189
131.8087,81.5087
131.9575,81.1496
131.9621,81.1398
132.1415,80.7950
132.1469,80.7857
132.3558,80.4579
132.3620,80.4490
132.5986,80.1406
132.6056,80.1324
132.8682,79.8458
132.8758,79.8382
133.1624,79.5756
133.1706,79.5686
133.4790,79.3320
133.4879,79.3258
133.8157,79.1169
133.8251,79.1115
134.1698,78.9321
134.1796,78.9275
134.5387,78.7787
134.5489,78.7751
134.9196,78.6582
134.9300,78.6554
135.3095,78.5712
135.3201,78.5694
135.7055,78.5186
135.7163,78.5177
136.1074,78.5006
136.1127,78.5005
136.1759,78.5005
154.7041,78.5005
154.7673,78.5005
Z" /> 
</g>
<g style="fill:#FFFFFF; fill-opacity:1.0000; stroke:none;">
<circle cx="134.5000" cy="109.3000" r="0.4050" /> 
</g>
<g style="fill:#FFFFFF; fill-opacity:1.0000; stroke:none;">
<circle cx="145.5000" cy="98.1000" r="0.4050" /> 
</g>
<g style="fill:#FFFFFF; fill-opacity:1.0000; stroke:none;">
<circle cx="138.2000" cy="89.6000" r="0.4050" /> 
</g>
<g style="fill:#FFFFFF; fill-opacity:1.0000; stroke:none;">
<circle cx="149.7000" cy="99.1000" r="0.4050" /> 
</g>
<g style="fill:#FFFFFF; fill-opacity:1.0000; stroke:none;">
<circle cx="137.1600" cy="93.9800" r="0.5000" /> 
</g>
<g style="fill:#FFFFFF; fill-opacity:1.0000; stroke:none;">
<circle cx="137.1600" cy="96.5200" r="0.5000" /> 
</g>
<g style="fill:#FFFFFF; fill-opacity:1.0000; stroke:none;">
<circle cx="137.1600" cy="99.0600" r="0.5000" /> 
</g>
<g style="fill:#FFFFFF; fill-opacity:1.0000; stroke:none;">
<circle cx="137.1600" cy="101.6000" r="0.5000" /> 
</g>
<g style="fill:#FFFFFF; fill-opacity:1.0000; stroke:none;">
<circle cx="137.1600" cy="104.1400" r="0.5000" /> 
</g>
<g style="fill:#FFFFFF; fill-opacity:1.0000; stroke:none;">
<circle cx="149.1200" cy="89.6400" r="0.4050" /> 
</g>
<g style="fill:#FFFFFF; fill-opacity:1.0000; stroke:none;">
<circle cx="149.1200" cy="93.2400" r="0.4050" /> 
</g>
<g style="fill:#FFFFFF; fill-opacity:1.0000; stroke:none;">
<circle cx="145.5200" cy="93.2400" r="0.4050" /> 
</g>
<g style="fill:#FFFFFF; fill-opacity:1.0000; stroke:none;">
<circle cx="145.5200" cy="89.6400" r="0.4050" /> 
</g>
<g style="fill:#FFFFFF; fill-opacity:1.0000; stroke:none;">
<circle cx="149.1200" cy="107.4200" r="0.4050" /> 
</g>
<g style="fill:#FFFFFF; fill-opacity:1.0000; stroke:none;">
<circle cx="149.1200" cy="111.0200" r="0.4050" /> 
</g>
<g style="fill:#FFFFFF; fill-opacity:1.0000; stroke:none;">
<circle cx="145.5200" cy="111.0200" r="0.4050" /> 
</g>
<g style="fill:#FFFFFF; fill-opacity:1.0000; stroke:none;">
<circle cx="145.5200" cy="107.4200" r="0.4050" /> 
</g> 
</svg>
